<svg width="10" height="6" viewBox="0 0 10 6" fill="none" xmlns="http://www.w3.org/2000/svg">
<path d="M4.73879 5.6607C4.64975 5.66124 4.56148 5.6434 4.47905 5.60821C4.39662 5.57301 4.32164 5.52115 4.25842 5.45561L0.198975 1.21225C0.0715735 1.07908 0 0.898455 0 0.71012C0 0.521784 0.0715735 0.341163 0.198975 0.207989C0.326376 0.074816 0.49917 0 0.679343 0C0.859516 0 1.03231 0.074816 1.15971 0.207989L4.73879 3.95629L8.31787 0.215062C8.4473 0.0991995 8.61379 0.0386563 8.78406 0.0455313C8.95434 0.0524064 9.11587 0.126193 9.23636 0.252146C9.35685 0.3781 9.42744 0.546942 9.43402 0.724934C9.4406 0.902926 9.38268 1.07696 9.27184 1.21225L5.21239 5.45561C5.08637 5.58626 4.91628 5.65992 4.73879 5.6607Z" fill="#ACACAC"/>
</svg>
