<svg width="175" height="213" viewBox="0 0 175 213" fill="none" xmlns="http://www.w3.org/2000/svg">
<g opacity="0.2">
<path d="M75.0318 212.022C116.273 212.022 149.705 209.275 149.705 205.886C149.705 202.496 116.273 199.749 75.0318 199.749C33.7908 199.749 0.358398 202.496 0.358398 205.886C0.358398 209.275 33.7908 212.022 75.0318 212.022Z" fill="#369FFF"/>
</g>
<path d="M86.294 208.753C53.7157 207.607 20.0159 203.161 2.56973 143.122C-2.6191 125.273 0.753245 111.76 6.44754 101.572C7.85334 99.0526 9.4013 96.7464 10.9967 94.6219C11.5969 93.8242 12.205 93.0503 12.8131 92.3C25.5443 76.6861 46.892 71.0866 65.823 77.9892C76.4376 81.8591 90.0533 87.5771 102.192 95.0168C126.58 109.967 132.306 127.003 140.275 156.24C140.962 158.752 141.642 161.563 142.163 164.557C142.439 166.152 142.668 167.803 142.826 169.477C144.595 188.179 137.385 210.545 86.294 208.753Z" fill="#8AC53E"/>
<path d="M142.826 169.485C141.744 172.525 140.204 175.621 138.151 178.559C131.99 187.389 119.157 198.051 93.0307 198.746C91.8776 198.778 90.7482 198.793 89.6268 198.793C79.644 198.793 70.838 197.585 62.7901 195.129C54.3711 192.562 47.0262 188.676 40.3289 183.274C29.1377 174.239 19.9053 161.026 10.42 140.437C6.66859 132.302 4.72574 124.057 4.64677 115.93C4.59938 111.089 5.19961 106.279 6.45535 101.588C7.86116 99.0683 9.40912 96.7622 11.0045 94.6377C10.6017 95.5696 10.2068 96.549 9.8356 97.5678C6.42376 106.927 4.07023 121.822 12.2602 139.592C28.9166 175.74 48.2267 197.901 92.9833 196.732C118.272 196.069 130.608 185.857 136.5 177.414C139.58 173.007 141.318 168.545 142.171 164.572C142.439 166.16 142.668 167.803 142.826 169.485Z" fill="#006838" fill-opacity="0.4"/>
<path d="M96.2216 58.6869C96.2216 58.6869 116.677 86.4396 121.344 100.269C126.012 114.098 114.687 123.915 114.687 123.915L104.167 127.863C104.167 127.856 93.3547 79.0394 96.2216 58.6869Z" fill="#369FFF"/>
<path d="M94.4129 136.425C85.4727 139.386 63.6274 147.158 54.1422 144.014C53.7394 143.88 53.3682 143.73 53.0128 143.556C51.9782 143.051 51.149 142.372 50.5645 141.487C46.8447 135.824 43.1564 112.06 44.8149 98.0967C45.0203 96.3513 45.123 94.4559 45.1546 92.4656C45.2019 89.5356 45.1072 86.4002 44.9808 83.2489C44.5148 71.3865 42.6431 63.1965 47.7213 60.3138C52.2783 57.7234 58.0437 55.7015 61.7162 54.8249C63.9907 54.2799 67.7185 53.1426 70.3326 53.19L81.6422 55.2435C81.6422 55.2435 91.4039 56.8704 93.6548 58.5368C95.9056 60.1954 97.0587 67.5166 101.126 74.2218C105.193 80.927 106.078 87.6559 102.192 95.0166C98.812 101.422 99.4043 98.9892 98.9621 109.493C98.425 122.367 111.875 130.643 94.4129 136.425Z" fill="white"/>
<g opacity="0.8">
<g opacity="0.8">
<path opacity="0.8" d="M64.3857 76.1093C64.3857 76.1093 76.6431 72.9423 92.2885 75.8645L92.6677 86.6766C92.6677 86.6766 75.4663 84.7653 64.6306 87.5216L64.3857 76.1093Z" fill="#CED3E6"/>
</g>
</g>
<g opacity="0.8">
<path opacity="0.8" d="M78.4674 66.9797C78.3015 66.9797 78.1357 66.9718 77.9619 66.9639C71.2646 66.6164 65.1201 60.7088 64.8674 60.4561C64.6858 60.2824 64.6858 59.9901 64.8595 59.8085C65.0333 59.6268 65.3255 59.6268 65.5071 59.8006C65.5703 59.8559 71.6595 65.7239 78.0093 66.0477C84.0906 66.3715 84.8251 60.3376 84.8567 60.077C84.8883 59.8243 85.1094 59.6426 85.3621 59.6742C85.6148 59.6979 85.7965 59.927 85.7649 60.1797C85.7649 60.2508 84.9593 66.9797 78.4674 66.9797Z" fill="#CED3E6"/>
</g>
<g opacity="0.8">
<path opacity="0.8" d="M59.4811 121.111C59.4338 121.072 59.3943 121.032 59.3548 120.977C59.2205 120.748 59.2916 120.456 59.5127 120.321C68.224 115.046 76.5798 113.19 82.053 112.558C88 111.871 91.8304 112.423 91.9884 112.455C92.249 112.495 92.4306 112.739 92.3911 113C92.3517 113.261 92.1068 113.442 91.8462 113.403C91.8067 113.395 87.9526 112.842 82.124 113.521C76.7536 114.145 68.5478 115.977 60.0024 121.151C59.8444 121.237 59.6391 121.222 59.4811 121.111Z" fill="#CED3E6"/>
</g>
<path d="M70.8697 140.729C62.8219 138.178 55.5401 133.045 50.5724 128.472C50.1776 128.108 49.7985 127.753 49.4352 127.398C46.8605 124.894 45.044 126.181 44.2542 124.744C41.2452 119.239 42.9511 97.6388 44.2542 89.7015C45.5574 81.7722 40.0842 67.2403 43.0301 62.0436C45.9759 56.8468 56.1246 55.0303 56.1246 55.0303C56.1246 55.0303 54.6872 53.356 57.4119 51.4368C60.1366 49.5177 67.3868 50.3154 67.3868 50.3154C67.7343 84.647 72.5993 116.53 70.8697 140.729Z" fill="#369FFF"/>
<path d="M62.9561 130.888C62.735 130.888 62.5454 130.73 62.5138 130.509C58.8493 106.697 62.4744 61.9012 62.5138 61.4511C62.5375 61.2062 62.7508 61.0246 62.9956 61.0404C63.2404 61.0641 63.43 61.2773 63.4063 61.5221C63.3668 61.9723 59.7575 106.658 63.4063 130.367C63.4458 130.612 63.272 130.841 63.0272 130.88C63.0035 130.888 62.9798 130.888 62.9561 130.888Z" fill="white"/>
<path d="M70.3248 134.458C70.1115 134.458 69.922 134.308 69.8825 134.087C65.0886 106.737 64.7095 59.5399 64.7095 59.066C64.7095 58.8212 64.9069 58.6158 65.1517 58.6158C65.3966 58.6158 65.6019 58.8133 65.6019 59.0581C65.6019 59.532 65.9889 106.65 70.7671 133.929C70.8065 134.174 70.6486 134.403 70.4038 134.45C70.3722 134.458 70.3485 134.458 70.3248 134.458Z" fill="#006ED3"/>
<path d="M62.3717 58.7975C62.3322 58.7975 62.2927 58.7896 62.2532 58.7817C58.4623 57.7708 56.1403 55.5357 56.0376 55.441C55.8639 55.2672 55.856 54.9829 56.0298 54.8091C56.2035 54.6354 56.4878 54.6275 56.6616 54.8012C56.6853 54.8249 58.9203 56.9731 62.4743 57.9209C62.7113 57.984 62.8534 58.2289 62.7902 58.4737C62.7508 58.6632 62.5691 58.7975 62.3717 58.7975Z" fill="#006ED3"/>
<path d="M105.738 125.739C105.738 125.739 102.872 135.398 92.1938 140.002C90.8669 113.813 87.8658 83.9046 83.988 52.0924C83.988 52.0924 88.0711 51.3737 89.7691 53.7114C90.5036 54.7144 90.6616 56.4203 90.6616 56.4203C90.6616 56.4203 92.7466 56.8231 95.0291 57.8893C97.3115 58.9555 97.0509 60.4166 97.5958 64.1285C98.1408 67.8405 103.875 73.5822 105.738 81.3615C107.602 89.1408 102.658 94.1006 101.118 100.632C99.5703 107.148 105.738 125.739 105.738 125.739Z" fill="#1476B7"/>
<path d="M96.5691 129.791C96.3243 129.791 96.1268 129.601 96.1189 129.356C95.0843 93.7293 88.5765 61.8934 88.5134 61.5775C88.466 61.3327 88.616 61.0958 88.8609 61.0484C89.1057 61.001 89.3426 61.1511 89.39 61.3959C89.4532 61.7118 95.9768 93.6188 97.0114 129.332C97.0193 129.577 96.8218 129.791 96.577 129.791C96.577 129.791 96.577 129.791 96.5691 129.791Z" fill="white"/>
<path d="M86.7442 59.7848C86.531 59.7848 86.3415 59.6269 86.302 59.4136C86.2625 59.1688 86.4283 58.9398 86.6653 58.8924C86.6968 58.8845 89.5716 58.3632 90.2271 56.2861C90.2982 56.0492 90.551 55.9149 90.7879 55.9939C91.0248 56.065 91.1512 56.3177 91.0801 56.5546C90.2508 59.1609 86.9496 59.7532 86.8153 59.7769C86.7916 59.7769 86.7679 59.7848 86.7442 59.7848Z" fill="#006ED3"/>
<path d="M95.5265 129.791C95.3054 129.791 95.108 129.625 95.0843 129.396C91.9252 103.128 86.9338 61.151 86.8864 60.7325C86.8548 60.4876 87.0364 60.2665 87.2813 60.2349C87.5261 60.2033 87.7472 60.385 87.7788 60.6298C87.8262 61.0484 92.8176 103.033 95.9767 129.293C96.0083 129.538 95.8346 129.759 95.5818 129.791C95.5581 129.791 95.5423 129.791 95.5265 129.791Z" fill="#006ED3"/>
<path d="M68.998 148.65C70.3643 149.63 72.5125 150.649 75.7427 151.675C94.0655 157.504 110.864 148.098 110.864 148.098C111.883 143.082 111.251 137.38 109.561 135.295C110.09 134.553 109.743 133.668 109.743 133.668L126.604 116.167C117.016 124.112 105.154 126.71 95.9215 132.294C95.9215 132.294 95.9215 132.294 95.9136 132.294C93.2521 133.905 90.859 135.319 89.1057 136.298C86.4284 137.799 83.0166 137.949 79.6679 137.483C73.1443 136.583 66.8893 133.368 66.8893 133.368C66.8893 133.368 45.8891 123.851 41.9561 124.167C38.8996 124.412 55.3744 141.606 68.998 148.65Z" fill="#FF993A"/>
<path d="M101.45 163.325C101.45 163.325 96.048 161.769 94.3816 160.016L90.6223 168.861L103.409 172.849C103.417 172.849 103.59 165.078 101.45 163.325Z" fill="#EA9B7A"/>
<path d="M132.307 188.874L115.777 152.189C115.161 152.141 114.387 152.307 113.518 152.623C110.311 153.792 105.802 157.014 102.903 158.902C102.564 159.123 102.248 159.328 101.956 159.51C101.466 159.81 101.047 160.047 100.731 160.197C98.1805 161.342 99.5231 162.717 99.5231 162.717C104.278 165.094 101.379 172.139 104.278 173.781C104.278 173.781 105.51 174.5 109.443 176.23C113.376 177.959 117.333 182.137 120.997 185.557C125.728 189.98 128.697 190.493 130.395 190.09C131.754 189.774 132.307 188.874 132.307 188.874Z" fill="#006ED3"/>
<path d="M132.307 188.874L115.777 152.189C115.161 152.141 114.387 152.307 113.518 152.623L130.395 190.09C131.754 189.774 132.307 188.874 132.307 188.874Z" fill="#369FFF"/>
<path d="M117.467 155.932L116.977 154.842C116.227 156.493 114.774 158.365 111.993 159.463C108.289 160.916 104.862 159.842 102.911 158.91C102.571 159.131 102.256 159.336 101.963 159.518C103.946 160.584 107.902 162.1 112.341 160.363C114.995 159.305 116.558 157.583 117.467 155.932Z" fill="#369FFF"/>
<path d="M111.33 174.634C111.212 174.366 110.912 174.2 110.604 174.255C110.24 174.318 110.003 174.666 110.067 175.029L110.532 177.58C110.596 177.944 110.943 178.18 111.306 178.117C111.67 178.054 111.907 177.707 111.844 177.343L111.378 174.792C111.37 174.737 111.354 174.682 111.33 174.634Z" fill="white"/>
<path d="M108.4 173.221C108.282 172.952 107.981 172.786 107.673 172.841C107.31 172.905 107.073 173.252 107.136 173.615L107.602 176.166C107.666 176.53 108.013 176.767 108.376 176.703C108.74 176.64 108.977 176.293 108.913 175.929L108.447 173.378C108.44 173.315 108.424 173.268 108.4 173.221Z" fill="white"/>
<path d="M113.7 176.324C113.581 176.056 113.281 175.89 112.973 175.945C112.61 176.008 112.373 176.356 112.436 176.719L112.902 179.27C112.965 179.633 113.313 179.87 113.676 179.807C114.039 179.744 114.276 179.397 114.213 179.033L113.747 176.482C113.739 176.427 113.723 176.372 113.7 176.324Z" fill="white"/>
<path d="M116.014 178.038C115.895 177.77 115.595 177.604 115.287 177.659C114.924 177.722 114.687 178.07 114.75 178.433L115.216 180.984C115.279 181.347 115.627 181.584 115.99 181.521C116.353 181.458 116.59 181.11 116.527 180.747L116.061 178.196C116.045 178.141 116.029 178.086 116.014 178.038Z" fill="white"/>
<path d="M118.32 180.005C118.201 179.736 117.901 179.57 117.593 179.626C117.23 179.689 116.993 180.036 117.056 180.4L117.522 182.951C117.585 183.314 117.933 183.551 118.296 183.488C118.659 183.425 118.896 183.077 118.833 182.714L118.367 180.163C118.359 180.107 118.343 180.052 118.32 180.005Z" fill="white"/>
<path d="M120.555 182.263C120.436 181.995 120.136 181.829 119.828 181.884C119.465 181.948 119.228 182.295 119.291 182.658L119.757 185.209C119.82 185.573 120.168 185.81 120.531 185.746C120.894 185.683 121.131 185.336 121.068 184.972L120.602 182.421C120.586 182.358 120.571 182.311 120.555 182.263Z" fill="white"/>
<path d="M41.9639 124.167C41.9639 124.167 28.672 116.996 20.9796 122.54C6.90576 132.681 30.7886 152.181 58.1149 161.705C85.4412 171.23 94.3104 169.927 94.3104 169.927C94.3104 169.927 100.249 168.292 98.1408 158.673C98.1408 158.673 82.3926 152.686 74.1947 146.415C65.989 140.137 60.4052 132.452 41.9639 124.167Z" fill="#FF993A"/>
<path d="M97.0667 161.469C91.333 160.094 79.6601 154.732 65.8311 147.142C55.485 141.464 43.5594 134.206 41.8061 131.686C40.8583 130.328 40.6214 129.214 41.0953 128.377C41.8061 127.129 43.8595 127.003 44.7914 127.011C45.0284 127.011 45.2179 127.216 45.2021 127.453C45.1863 127.674 45.0047 127.84 44.7835 127.84C43.8674 127.832 42.2641 127.99 41.814 128.788C41.4349 129.451 41.9719 130.47 42.4853 131.204C43.899 133.234 53.8818 139.631 66.226 146.408C76.8564 152.244 90.5906 159.052 97.2563 160.655L97.0667 161.469Z" fill="#FF7E07"/>
<path d="M95.9848 157.393C95.3372 162.448 94.0261 167.044 91.175 170.575C91.175 170.575 93.6234 172.336 95.8584 171.072C97.5643 170.109 100.858 162.211 99.602 157.994C98.1725 157.212 96.9404 156.935 95.9848 157.393Z" fill="#FF7E07"/>
<path d="M61.3134 162.322C61.3134 162.322 66.7471 161.271 68.2871 159.407L72.623 167.976L60.1367 172.81C60.1288 172.818 59.2916 164.217 61.3134 162.322Z" fill="#EA9B7A"/>
<path d="M32.376 190.738L46.4182 153.034C47.0342 152.939 47.8082 153.057 48.7007 153.318C51.9782 154.274 56.6932 157.18 59.7101 158.878C60.0655 159.075 60.3894 159.257 60.6974 159.415C61.2107 159.684 61.6372 159.897 61.9689 160.015C64.591 160.987 63.5011 161.729 63.5011 161.729C58.3359 164.154 62.119 171.972 59.3389 173.813C59.3389 173.813 58.1543 174.61 54.3476 176.601C50.5408 178.591 46.8684 183.021 43.4408 186.678C39.018 191.401 36.0879 192.12 34.3662 191.827C32.992 191.598 32.376 190.738 32.376 190.738Z" fill="#006ED3"/>
<path d="M32.376 190.738L46.4182 153.034C47.0342 152.939 47.8082 153.057 48.7007 153.318L34.3583 191.827C32.992 191.598 32.376 190.738 32.376 190.738Z" fill="#369FFF"/>
<path d="M44.9808 156.88L45.3994 155.758C46.2603 157.354 47.8319 159.131 50.683 160.031C54.474 161.239 57.8226 159.936 59.7102 158.87C60.0656 159.068 60.3894 159.249 60.6974 159.407C58.794 160.608 54.9399 162.385 50.3987 160.939C47.674 160.086 45.9996 158.459 44.9808 156.88Z" fill="#369FFF"/>
<path d="M52.3495 175.132C52.4521 174.855 52.7364 174.666 53.0445 174.705C53.4078 174.745 53.6684 175.076 53.6289 175.44L53.3367 178.014C53.2972 178.378 52.9655 178.638 52.6022 178.599C52.2389 178.559 51.9783 178.228 52.0177 177.864L52.31 175.29C52.3179 175.234 52.3337 175.179 52.3495 175.132Z" fill="white"/>
<path d="M55.1847 173.521C55.2873 173.244 55.5717 173.055 55.8797 173.094C56.243 173.134 56.5036 173.465 56.4641 173.829L56.1719 176.403C56.1324 176.767 55.8007 177.027 55.4374 176.988C55.0741 176.948 54.8135 176.616 54.853 176.253L55.1452 173.679C55.1531 173.623 55.1689 173.568 55.1847 173.521Z" fill="white"/>
<path d="M50.1065 176.98C50.2092 176.703 50.4935 176.522 50.8015 176.553C51.1648 176.593 51.4255 176.924 51.386 177.288L51.0938 179.862C51.0543 180.226 50.7226 180.486 50.3593 180.447C49.996 180.407 49.7353 180.076 49.7748 179.712L50.067 177.138C50.0749 177.082 50.0907 177.027 50.1065 176.98Z" fill="white"/>
<path d="M47.9109 178.843C48.0136 178.567 48.2979 178.385 48.6059 178.417C48.9692 178.457 49.2299 178.788 49.1904 179.151L48.8981 181.726C48.8587 182.089 48.5269 182.35 48.1637 182.311C47.8004 182.271 47.5397 181.939 47.5792 181.576L47.8714 179.001C47.8793 178.946 47.8951 178.891 47.9109 178.843Z" fill="white"/>
<path d="M45.739 180.96C45.8417 180.684 46.126 180.502 46.434 180.534C46.7973 180.573 47.0579 180.905 47.0184 181.268L46.7262 183.843C46.6867 184.206 46.355 184.467 45.9917 184.427C45.6284 184.388 45.3678 184.056 45.4073 183.693L45.6995 181.118C45.7074 181.063 45.7232 181.008 45.739 180.96Z" fill="white"/>
<path d="M43.6619 183.353C43.7646 183.077 44.0489 182.887 44.3569 182.927C44.7202 182.966 44.9808 183.298 44.9413 183.661L44.6491 186.236C44.6096 186.599 44.2779 186.86 43.9146 186.82C43.5513 186.781 43.2907 186.449 43.3302 186.086L43.6224 183.511C43.6303 183.456 43.6461 183.408 43.6619 183.353Z" fill="white"/>
<path d="M121.186 118.339C121.186 118.339 133.76 109.975 141.934 114.793C156.884 123.599 134.889 145.207 108.55 157.196C82.2189 169.185 73.2628 168.703 73.2628 168.703C73.2628 168.703 67.2052 167.621 68.4136 157.844C68.4136 157.844 83.5457 150.435 91.1354 143.438C98.7252 136.448 103.582 128.282 121.186 118.339Z" fill="#FF993A"/>
<path d="M98.1881 161.706C96.7349 162.179 95.2659 162.661 93.7416 163.143C87.8499 164.999 81.121 166.942 75.0318 168.434L75.0081 169.303C80.5129 167.961 86.9653 166.144 93.9865 163.933C95.3607 163.498 96.7586 163.048 98.1644 162.582L98.1881 161.706Z" fill="#FF7E07"/>
<path d="M69.7403 160.537C75.3241 158.641 86.4599 152.236 99.5307 143.406C109.308 136.804 120.523 128.48 122.031 125.81C122.845 124.373 122.987 123.243 122.434 122.454C121.613 121.277 119.559 121.332 118.628 121.427C118.391 121.451 118.217 121.672 118.256 121.909C118.296 122.122 118.485 122.272 118.707 122.256C119.623 122.169 121.226 122.177 121.755 122.927C122.189 123.551 121.755 124.618 121.313 125.399C120.096 127.548 110.738 134.829 99.0647 142.719C89.0188 149.503 75.9638 157.543 69.4718 159.755L69.7403 160.537Z" fill="#FF7E07"/>
<path d="M70.4353 156.382C71.541 161.358 73.2706 165.812 76.4376 169.066C76.4376 169.066 74.1631 171.049 71.8253 169.99C70.0404 169.185 66.0362 161.619 66.8971 157.307C68.2476 156.398 69.4481 156.019 70.4353 156.382Z" fill="#FF7E07"/>
<path d="M68.7374 116.491L67.7265 130.92C67.7265 130.92 50.5646 128.472 42.1456 126.324C39.6894 125.7 36.941 124.894 34.4137 123.551C29.7619 121.079 25.9078 116.775 26.1921 108.388C26.279 105.695 26.8002 102.583 27.8585 98.9656C33.9872 78.0129 44.2543 60.4166 44.2543 60.4166C57.4673 66.0714 56.3537 75.4856 56.3537 75.4856C52.5864 85.5394 44.2543 106.95 44.2543 106.95C49.0956 112.866 68.7374 116.491 68.7374 116.491Z" fill="#1476B7"/>
<path d="M44.2542 107.4C44.1752 107.4 44.0883 107.377 44.0172 107.329C42.5562 106.429 38.5836 105.489 38.5441 105.481C38.2993 105.426 38.1492 105.181 38.2124 104.944C38.2677 104.699 38.5125 104.557 38.7494 104.613C38.8916 104.644 41.6795 105.3 43.5197 106.089C43.2512 105.489 42.8089 104.849 42.2008 104.154C42.0349 103.965 42.0586 103.689 42.2403 103.523C42.4298 103.357 42.7062 103.38 42.8721 103.562C43.9304 104.763 44.5306 105.852 44.6965 106.887C44.728 107.061 44.6491 107.235 44.5069 107.329C44.4279 107.377 44.3411 107.4 44.2542 107.4Z" fill="#084FC7"/>
<path d="M34.4216 123.551C29.7698 121.079 25.9157 116.775 26.2 108.388C29.8804 110.315 36.3013 114.99 34.4216 123.551Z" fill="#006ED3"/>
<path d="M57.949 114.271C57.9095 114.271 57.8779 114.264 57.8384 114.256C49.3404 112.06 44.1753 107.479 43.962 107.282C43.812 107.148 43.7725 106.927 43.8594 106.745C49.9248 94.8272 53.7553 85.3657 55.9271 76.9624C55.9903 76.7255 56.2352 76.5754 56.4721 76.6386C56.709 76.7018 56.8591 76.9466 56.7959 77.1836C54.624 85.5789 50.8173 95.0009 44.815 106.832C45.9602 107.78 50.8252 111.515 58.0595 113.379C58.2965 113.442 58.4465 113.687 58.3834 113.924C58.3281 114.137 58.1464 114.271 57.949 114.271Z" fill="#084FC7"/>
<path d="M54.545 83.6521C54.4502 83.6521 54.3475 83.6205 54.2686 83.5573C54.0711 83.3994 54.0395 83.1229 54.1975 82.9255L57.3487 78.9687C57.5067 78.7713 57.7831 78.7397 57.9805 78.8976C58.178 79.0556 58.2096 79.332 58.0516 79.5294L54.9004 83.4862C54.8056 83.5889 54.6793 83.6521 54.545 83.6521Z" fill="#084FC7"/>
<path d="M69.235 47.2827L84.4777 49.4625C94.3815 48.4752 97.5327 44.5342 99.1517 36.21C99.9652 32.0242 99.4281 28.328 98.6305 25.5796C98.4251 22.4521 97.7064 19.751 96.2296 17.9662C89.5401 9.90253 83.6484 10.2184 83.6484 10.2184C80.6552 8.84423 70.7671 7.9044 64.2436 15.8259C64.0382 15.9996 60.0578 20.217 59.1416 29.0625C58.2571 37.4973 63.8882 48.2699 69.235 47.2827Z" fill="#39393B"/>
<path d="M77.7487 12.4298C77.7487 12.4298 79.3362 -1.62826 66.8577 0.15664C58.7072 1.31761 53.6605 12.3666 61.116 17.3817C68.5715 22.3968 77.7487 12.4298 77.7487 12.4298Z" fill="#39393B"/>
<path d="M62.3718 18.8268C62.3087 18.8268 62.2455 18.811 62.1823 18.7794C61.9927 18.6768 61.9217 18.4319 62.0243 18.2424C64.9149 12.9904 69.0376 10.6684 71.9834 9.64171C75.182 8.53603 77.6698 8.67029 77.7725 8.67029C77.9936 8.68608 78.1595 8.86773 78.1437 9.08887C78.1279 9.31001 77.9462 9.47586 77.7251 9.46006C77.6303 9.45217 68.0029 9.00989 62.7193 18.6215C62.6404 18.7478 62.5061 18.8268 62.3718 18.8268Z" fill="#006ED3"/>
<path d="M70.4276 44.1078C70.4276 44.1078 60.7055 38.6662 62.6167 27.3408C64.528 16.0154 71.9835 9.19966 83.4115 12.4851C83.4194 12.4851 82.3059 45.2214 70.4276 44.1078Z" fill="#39393B"/>
<path d="M97.4695 23.2812C97.4695 23.2812 98.4646 33.0034 96.6876 34.4092C94.9185 35.815 93.181 31.9688 93.181 31.9688C93.181 31.9688 95.5977 23.3918 97.4695 23.2812Z" fill="#39393B"/>
<path d="M92.9914 35.2939C92.9914 35.2939 95.8899 32.7508 96.8534 35.8704C97.8169 38.9901 95.8662 44.7317 92.2569 43.2075L92.9914 35.2939Z" fill="#D46A43"/>
<path d="M96.5612 42.4966C96.1663 42.8599 95.724 43.1759 95.2422 43.4365C93.4178 44.4158 91.0406 44.5343 88.1816 43.0337C88.1816 43.0337 84.525 38.2792 89.927 29.8918C89.927 29.8918 94.8789 28.5887 97.7142 31.5819C98.0301 31.9136 98.3145 32.2927 98.5672 32.735C98.7251 33.0035 98.8594 33.2957 98.9858 33.6117C99.9888 36.1626 99.0568 40.23 96.5612 42.4966Z" fill="#FF993A"/>
<path d="M96.4347 30.5631C96.6637 29.4416 96.8927 28.0516 97.0428 26.5116C96.9717 26.5432 96.9006 26.5669 96.8217 26.5669C96.5136 26.5905 96.2135 26.4642 95.9134 26.243C95.7792 27.6804 95.5738 28.9836 95.3685 30.0656L96.4347 30.5631Z" fill="white"/>
<path d="M96.5612 42.4966C96.1663 42.8599 95.724 43.1758 95.2422 43.4365C97.7458 38.2476 97.8169 33.509 97.7143 31.5819C98.0302 31.9136 98.3145 32.2927 98.5672 32.735C98.5672 34.9148 98.2434 38.5004 96.5612 42.4966Z" fill="#FF7E07"/>
<path d="M84.5407 49.3202L83.3481 57.3602C83.3481 57.3602 78.4278 63.6705 67.0392 53.3797C68.3345 50.11 70.3247 45.9005 69.8114 42.6782C69.8114 42.6782 70.6406 43.4443 72.078 44.3525C72.3702 44.5421 72.6862 44.7395 73.0179 44.937C75.9716 46.7377 80.4891 49.0359 84.5407 49.3202Z" fill="#EA9B7A"/>
<path d="M84.5406 49.3203L83.9799 53.0797C80.6549 51.8002 74.9054 49.0281 72.0701 44.3447C72.3623 44.5343 72.6782 44.7317 73.0099 44.9292C75.9716 46.7377 80.4891 49.036 84.5406 49.3203Z" fill="#39393B"/>
<path d="M95.4633 35.6492C95.337 36.4784 95.2185 37.2603 95.0922 38.0027C94.176 43.5469 93.3389 46.5323 91.7988 47.7169C84.0037 53.6956 70.2616 43.1283 69.8193 42.7887C69.8114 42.7808 69.8114 42.7808 69.8114 42.7808C69.764 42.1332 69.7324 41.4935 69.7166 40.8696C69.535 35.5307 70.1905 30.6973 71.4068 26.1876C71.8727 21.3147 75.4188 17.2395 80.2128 16.2601C85.1805 15.2492 89.0977 17.9503 91.5224 19.1033C95.179 20.8566 96.8534 26.1718 95.8267 33.2324C95.7003 34.0775 95.5818 34.891 95.4633 35.6492Z" fill="#EA9B7A"/>
<path d="M88.4975 42.1096C84.138 42.1096 82.3926 37.9395 82.3768 37.8921C82.2978 37.6868 82.3926 37.4578 82.5979 37.3788C82.8033 37.2998 83.0323 37.3946 83.1113 37.5999C83.1902 37.7816 85.0146 42.1096 89.7691 41.1934C89.9823 41.1539 90.1956 41.2961 90.2351 41.5093C90.2745 41.7226 90.1324 41.9279 89.9191 41.9753C89.4137 42.0701 88.9398 42.1096 88.4975 42.1096Z" fill="#39393B"/>
<path d="M85.1409 27.0564C86.2624 26.6694 86.0334 25.0188 84.8487 24.9398C82.8348 24.8056 79.5967 24.8609 79.3282 26.4878C78.9333 28.865 82.6926 27.8778 85.0698 27.0801C85.0935 27.0722 85.1172 27.0643 85.1409 27.0564Z" fill="#39393B"/>
<path d="M91.088 27.7593C90.2192 26.9537 91.0959 25.5321 92.2095 25.9428C94.1049 26.6378 97.0508 27.9883 96.6401 29.5837C96.0478 31.9214 92.9992 29.4968 91.1433 27.8146C91.1196 27.7909 91.1038 27.7751 91.088 27.7593Z" fill="#39393B"/>
<path d="M85.2831 44.0604C86.0808 44.2579 86.7521 44.1078 86.7995 44.092C86.9416 44.0604 87.0285 43.9183 86.9969 43.7761C86.9653 43.634 86.8232 43.5471 86.681 43.5787C86.6652 43.5787 85.3621 43.8709 84.3749 43.0021C84.2643 42.9074 84.0984 42.9153 84.0037 43.0258C83.9089 43.1364 83.9168 43.3023 84.0274 43.397C84.4301 43.7603 84.8724 43.9578 85.2831 44.0604Z" fill="#D46A43"/>
<path d="M88.0158 38.6425C87.9447 38.6109 87.8974 38.5477 87.8658 38.4766C87.8184 38.3266 87.8974 38.1607 88.0474 38.1133L89.9508 37.4894L88.8214 36.3442C88.7582 36.281 88.7266 36.1942 88.7424 36.1073L89.0899 32.9561C89.1057 32.7981 89.2479 32.6796 89.4137 32.7033C89.5717 32.7191 89.6902 32.8613 89.6665 33.0193L89.3268 36.0283L90.6853 37.4025C90.7563 37.4736 90.7879 37.5763 90.7642 37.671C90.7406 37.7658 90.6695 37.8448 90.5747 37.8764L88.2291 38.6504C88.158 38.682 88.0869 38.6741 88.0158 38.6425Z" fill="#39393B"/>
<path d="M83.0875 35.6256C82.9928 36.2811 81.5633 36.6049 79.9047 36.3601C78.2462 36.1153 76.9747 35.3808 77.0773 34.7253C77.1721 34.0698 78.6016 33.7459 80.2601 33.9908C81.9187 34.2435 83.1823 34.978 83.0875 35.6256Z" fill="#D46A43"/>
<g opacity="0.8">
<g opacity="0.8">
<g opacity="0.8">
<g opacity="0.8">
<g opacity="0.8">
<g opacity="0.8">
<g opacity="0.8">
<g opacity="0.8">
<g opacity="0.8">
<g opacity="0.8">
<g opacity="0.8">
<path opacity="0.8" d="M95.4634 36.4154C95.337 37.2447 95.2186 38.0265 95.0922 38.7689C93.5758 38.4846 92.4622 37.7975 92.557 37.1894C92.6439 36.5654 93.9233 36.2416 95.4634 36.4154Z" fill="#D46A43"/>
</g>
</g>
</g>
</g>
</g>
</g>
</g>
</g>
</g>
</g>
</g>
<path d="M84.7066 33.2878C84.5723 34.1881 84.059 34.8515 83.5535 34.7805C83.0481 34.7094 82.7558 33.9196 82.8822 33.0193C83.0165 32.1189 83.5298 31.4555 84.0353 31.5266C84.5407 31.5977 84.8408 32.3874 84.7066 33.2878Z" fill="#39393B"/>
<path d="M93.5915 34.6068C93.4573 35.5071 92.9439 36.1705 92.4385 36.0994C91.933 36.0283 91.6408 35.2386 91.7672 34.3382C91.9014 33.4379 92.4148 32.7745 92.9202 32.8455C93.4257 32.9245 93.7179 33.7143 93.5915 34.6068Z" fill="#39393B"/>
<path d="M73.2865 39.5824C73.2312 39.6772 71.6437 42.236 69.8193 42.7889C69.8114 42.781 69.8114 42.781 69.8114 42.781C69.7641 42.1334 69.7325 41.4937 69.7167 40.8697C69.7799 40.8618 71.5332 40.8223 73.2865 39.5824Z" fill="#39393B"/>
<path d="M72.5678 33.0983C72.5678 33.0983 69.693 27.7436 66.5023 31.1396C63.8723 33.9354 66.7155 42.8599 71.5569 40.4748L72.5678 33.0983Z" fill="#EA9B7A"/>
<path d="M71.1856 39.0136C70.996 38.9821 70.8618 38.8241 70.8697 38.6267C71.0118 34.9147 68.145 33.193 68.0265 33.1219C67.8527 33.0192 67.7896 32.7902 67.8922 32.6086C67.9949 32.4269 68.2239 32.3716 68.4056 32.4743C68.5398 32.5533 71.7858 34.4882 71.62 38.6582C71.6121 38.8636 71.4383 39.0215 71.233 39.0136C71.2172 39.0136 71.2014 39.0136 71.1856 39.0136Z" fill="#39393B"/>
<path d="M68.0739 36.2652C67.9634 36.2494 67.8686 36.1862 67.8054 36.0835C67.7027 35.9098 67.758 35.6807 67.9397 35.5701C68.1055 35.4754 69.5824 34.6224 70.6486 35.0726C70.8382 35.1516 70.925 35.3727 70.846 35.5622C70.7671 35.7518 70.5459 35.8387 70.3564 35.7597C69.7404 35.4991 68.6505 36.0124 68.3188 36.2099C68.2398 36.2573 68.1529 36.273 68.0739 36.2652Z" fill="#39393B"/>
<path d="M81.4685 38.0027C78.6569 36.9286 77.2432 33.7695 78.3173 30.9579C79.3914 28.1463 82.5505 26.7326 85.3621 27.8066C88.1737 28.8807 89.5874 32.0399 88.5133 34.8515C87.4392 37.6631 84.2801 39.0768 81.4685 38.0027ZM85.0778 28.549C82.6769 27.6329 79.9759 28.8413 79.0597 31.2422C78.1436 33.6431 79.3519 36.3441 81.7529 37.2603C84.1538 38.1764 86.8548 36.9681 87.771 34.5671C88.6871 32.1662 87.4787 29.4652 85.0778 28.549Z" fill="white"/>
<path d="M78.4911 31.6844C78.4437 31.6844 78.3963 31.6687 78.3489 31.645C75.3951 30.2944 72.623 31.3211 72.5914 31.3369C72.3861 31.4159 72.1571 31.3133 72.0781 31.1079C71.9991 30.9026 72.1018 30.6735 72.3071 30.5946C72.4335 30.5472 75.4267 29.4336 78.6806 30.9263C78.8781 31.021 78.9649 31.258 78.8781 31.4554C78.7991 31.6055 78.649 31.6923 78.4911 31.6844Z" fill="white"/>
<path d="M93.5442 39.3691C90.7326 38.295 89.3189 35.1359 90.393 32.3243C91.467 29.5127 94.6262 28.099 97.4378 29.1731C100.249 30.2472 101.663 33.4063 100.589 36.2179C99.5228 39.0295 96.3558 40.4432 93.5442 39.3691ZM97.1613 29.9155C94.7604 28.9994 92.0594 30.2077 91.1432 32.6086C90.2271 35.0096 91.4355 37.7106 93.8364 38.6267C96.2373 39.5429 98.9383 38.3345 99.8545 35.9336C100.771 33.5327 99.5623 30.8316 97.1613 29.9155Z" fill="white"/>
<path d="M88.2606 32.5376C88.1975 32.506 88.1501 32.4586 88.1106 32.3954C87.9921 32.2059 88.0474 31.961 88.2369 31.8426C88.2922 31.811 89.6191 30.9975 91.0012 32.0558C91.1749 32.1901 91.2065 32.4428 91.0722 32.6166C90.938 32.7903 90.6852 32.8219 90.5115 32.6876C89.5638 31.961 88.6634 32.5139 88.6555 32.5139C88.5292 32.6008 88.3791 32.6008 88.2606 32.5376Z" fill="white"/>
<path d="M91.1828 14.2068C94.4998 15.6994 97.1061 18.4637 98.2671 21.9071C98.9937 24.0632 99.6018 26.9143 96.5691 26.5431C88.2922 25.5401 83.8615 16.9473 83.8615 16.9473C83.8615 16.9473 82.2504 24.8609 75.7505 23.8973C69.2507 22.9259 69.456 18.0293 73.1522 15.2572C76.1612 12.9905 83.83 10.8897 91.1828 14.2068Z" fill="#39393B"/>
<path d="M76.0033 22.9813C76.0033 22.9813 72.3071 26.9539 73.6339 31.2266C74.9608 35.4993 75.0476 38.9269 73.6655 41.2252C73.6655 41.2252 73.3101 36.7234 71.6595 33.3116C70.309 30.5079 69.0453 28.3755 70.0247 25.1453C70.696 22.9339 72.315 20.8015 76.0033 22.9813Z" fill="#39393B"/>
<path d="M69.9931 42.3702C67.1262 43.0652 64.9069 42.6624 63.2642 41.6278C63.0036 41.462 62.7588 41.2803 62.5218 41.0908C59.0784 38.2081 58.8257 32.2295 60.9344 29.2994C61.6767 28.2648 62.5376 27.5698 63.4459 27.1275C63.7223 26.9853 63.9987 26.8748 64.2751 26.7879C67.837 25.619 71.699 27.7593 71.699 27.7593C75.7427 38.8636 69.9931 42.3702 69.9931 42.3702Z" fill="#FF993A"/>
<path d="M80.0785 47.2273C71.699 45.5135 68.1371 39.4796 67.9712 39.1874C67.837 38.9584 67.916 38.6582 68.1529 38.524C68.3819 38.3897 68.682 38.4687 68.8163 38.7056C68.8716 38.8004 73.2233 46.1137 83.3798 46.6666C83.6483 46.6824 83.8537 46.9114 83.8379 47.1799C83.8221 47.4485 83.593 47.6538 83.3245 47.638C82.1714 47.5748 81.0894 47.4327 80.0785 47.2273Z" fill="white"/>
<path d="M86.0494 47.5117C85.8756 48.3488 85.0543 48.8938 84.2171 48.72C83.3799 48.5463 82.835 47.7249 83.0087 46.8878C83.1825 46.0506 84.0039 45.5056 84.841 45.6794C85.6782 45.8531 86.2231 46.6666 86.0494 47.5117Z" fill="#243434"/>
<path d="M63.2643 41.6279C63.0037 41.462 62.7588 41.2804 62.5219 41.0908C65.1756 35.0885 64.2752 29.8444 63.438 27.1276C63.7145 26.9854 63.9909 26.8748 64.2673 26.788C65.1677 29.6628 66.1391 35.2623 63.2643 41.6279Z" fill="#FF7E07"/>
<path d="M97.2799 19.6563C96.577 18.3373 95.7951 17.4607 95.4081 17.0263C95.0843 16.0865 94.7368 15.2019 94.2155 14.3805C92.4622 11.6005 89.6901 9.89461 85.9624 9.31807C81.9424 8.69415 78.4516 9.49182 75.5926 11.6795C74.7001 12.3587 73.9104 13.1564 73.1996 14.0093C72.2202 15.2019 71.4068 16.5208 70.7434 17.8398C68.4372 22.4521 67.8844 27.1907 67.8765 27.2539L66.7787 27.1354C66.8261 26.6853 68.066 16.0391 74.9134 10.795C78.0172 8.41773 81.7923 7.54897 86.1282 8.22028C90.1877 8.84421 93.2204 10.7239 95.1475 13.7882C96.2769 15.5573 96.9324 17.587 97.2799 19.6563Z" fill="white"/>
<path d="M55.6111 141.195L51.7885 133.929C50.8329 132.121 52.1676 129.949 54.2132 129.964L114.26 130.612L112.491 139.916L55.6111 141.195Z" fill="#39393B"/>
<path d="M111.448 139.149H57.712C56.4167 139.149 55.4769 138.099 55.6269 136.804L59.2915 103.602C59.4337 102.306 60.6025 101.256 61.8978 101.256H115.634C116.929 101.256 117.869 102.306 117.719 103.602L114.055 136.804C113.912 138.099 112.744 139.149 111.448 139.149Z" fill="#39393B"/>
<path d="M56.9142 140.579C56.8984 140.579 56.8747 140.579 56.8589 140.579C56.6141 140.547 56.4324 140.318 56.464 140.074L60.9263 104.518C60.9579 104.273 61.1869 104.091 61.4317 104.123C61.6766 104.155 61.8582 104.384 61.8266 104.628L57.3644 140.184C57.3328 140.413 57.1353 140.579 56.9142 140.579Z" fill="#564C54"/>
<path d="M83.0558 120.795C82.8505 123.465 84.817 125.763 87.4391 125.929C90.069 126.094 92.3673 124.073 92.5726 121.403C92.7779 118.734 90.8114 116.436 88.1894 116.27C85.5594 116.104 83.2611 118.126 83.0558 120.795Z" fill="#585859"/>
<path d="M111.709 142.04H57.2301C56.0296 142.04 55.1135 140.982 55.2714 139.797L55.7927 135.998H114.26L113.668 140.326C113.533 141.313 112.696 142.04 111.709 142.04Z" fill="#39393B"/>
<path d="M126.968 69.6581C126.968 82.9137 137.716 93.6742 150.984 93.6742C164.24 93.6742 175 82.9264 175 69.6581C175 56.4026 164.252 45.6421 150.984 45.6421C137.716 45.6421 126.968 56.4026 126.968 69.6581Z" fill="#1476B7"/>
<path d="M138.457 65.0435C138.457 65.2302 138.412 65.4052 138.322 65.5685C138.235 65.7318 138.097 65.8635 137.907 65.9635C137.72 66.0635 137.484 66.1135 137.197 66.1135H136.612V67.4535H135.912V63.9635H137.197C137.467 63.9635 137.697 64.0102 137.887 64.1035C138.077 64.1968 138.219 64.3252 138.312 64.4885C138.409 64.6518 138.457 64.8368 138.457 65.0435ZM137.167 65.5485C137.36 65.5485 137.504 65.5052 137.597 65.4185C137.69 65.3285 137.737 65.2035 137.737 65.0435C137.737 64.7035 137.547 64.5335 137.167 64.5335H136.612V65.5485H137.167ZM140.014 67.4985C139.787 67.4985 139.584 67.4585 139.404 67.3785C139.224 67.2952 139.081 67.1835 138.974 67.0435C138.871 66.9035 138.814 66.7485 138.804 66.5785H139.509C139.522 66.6852 139.574 66.7735 139.664 66.8435C139.757 66.9135 139.872 66.9485 140.009 66.9485C140.142 66.9485 140.246 66.9218 140.319 66.8685C140.396 66.8152 140.434 66.7468 140.434 66.6635C140.434 66.5735 140.387 66.5068 140.294 66.4635C140.204 66.4168 140.059 66.3668 139.859 66.3135C139.652 66.2635 139.482 66.2118 139.349 66.1585C139.219 66.1052 139.106 66.0235 139.009 65.9135C138.916 65.8035 138.869 65.6552 138.869 65.4685C138.869 65.3152 138.912 65.1752 138.999 65.0485C139.089 64.9218 139.216 64.8218 139.379 64.7485C139.546 64.6752 139.741 64.6385 139.964 64.6385C140.294 64.6385 140.557 64.7218 140.754 64.8885C140.951 65.0518 141.059 65.2735 141.079 65.5535H140.409C140.399 65.4435 140.352 65.3568 140.269 65.2935C140.189 65.2268 140.081 65.1935 139.944 65.1935C139.817 65.1935 139.719 65.2168 139.649 65.2635C139.582 65.3102 139.549 65.3752 139.549 65.4585C139.549 65.5518 139.596 65.6235 139.689 65.6735C139.782 65.7202 139.927 65.7685 140.124 65.8185C140.324 65.8685 140.489 65.9202 140.619 65.9735C140.749 66.0268 140.861 66.1102 140.954 66.2235C141.051 66.3335 141.101 66.4802 141.104 66.6635C141.104 66.8235 141.059 66.9668 140.969 67.0935C140.882 67.2202 140.756 67.3202 140.589 67.3935C140.426 67.4635 140.234 67.4985 140.014 67.4985ZM144.329 64.6835L142.614 68.7635H141.869L142.469 67.3835L141.359 64.6835H142.144L142.859 66.6185L143.584 64.6835H144.329ZM144.526 66.0685C144.526 65.7818 144.584 65.5318 144.701 65.3185C144.818 65.1018 144.979 64.9352 145.186 64.8185C145.393 64.6985 145.629 64.6385 145.896 64.6385C146.239 64.6385 146.523 64.7252 146.746 64.8985C146.973 65.0685 147.124 65.3085 147.201 65.6185H146.446C146.406 65.4985 146.338 65.4052 146.241 65.3385C146.148 65.2685 146.031 65.2335 145.891 65.2335C145.691 65.2335 145.533 65.3068 145.416 65.4535C145.299 65.5968 145.241 65.8018 145.241 66.0685C145.241 66.3318 145.299 66.5368 145.416 66.6835C145.533 66.8268 145.691 66.8985 145.891 66.8985C146.174 66.8985 146.359 66.7718 146.446 66.5185H147.201C147.124 66.8185 146.973 67.0568 146.746 67.2335C146.519 67.4102 146.236 67.4985 145.896 67.4985C145.629 67.4985 145.393 67.4402 145.186 67.3235C144.979 67.2035 144.818 67.0368 144.701 66.8235C144.584 66.6068 144.526 66.3552 144.526 66.0685ZM149.274 64.6435C149.484 64.6435 149.67 64.6902 149.834 64.7835C149.997 64.8735 150.124 65.0085 150.214 65.1885C150.307 65.3652 150.354 65.5785 150.354 65.8285V67.4535H149.654V65.9235C149.654 65.7035 149.599 65.5352 149.489 65.4185C149.379 65.2985 149.229 65.2385 149.039 65.2385C148.845 65.2385 148.692 65.2985 148.579 65.4185C148.469 65.5352 148.414 65.7035 148.414 65.9235V67.4535H147.714V63.7535H148.414V65.0285C148.504 64.9085 148.624 64.8152 148.774 64.7485C148.924 64.6785 149.09 64.6435 149.274 64.6435ZM154.459 64.6435C154.799 64.6435 155.073 64.7485 155.279 64.9585C155.489 65.1652 155.594 65.4552 155.594 65.8285V67.4535H154.894V65.9235C154.894 65.7068 154.839 65.5418 154.729 65.4285C154.619 65.3118 154.469 65.2535 154.279 65.2535C154.089 65.2535 153.938 65.3118 153.824 65.4285C153.714 65.5418 153.659 65.7068 153.659 65.9235V67.4535H152.959V65.9235C152.959 65.7068 152.904 65.5418 152.794 65.4285C152.684 65.3118 152.534 65.2535 152.344 65.2535C152.151 65.2535 151.998 65.3118 151.884 65.4285C151.774 65.5418 151.719 65.7068 151.719 65.9235V67.4535H151.019V64.6835H151.719V65.0185C151.809 64.9018 151.924 64.8102 152.064 64.7435C152.208 64.6768 152.364 64.6435 152.534 64.6435C152.751 64.6435 152.944 64.6902 153.114 64.7835C153.284 64.8735 153.416 65.0035 153.509 65.1735C153.599 65.0135 153.729 64.8852 153.899 64.7885C154.073 64.6918 154.259 64.6435 154.459 64.6435ZM158.834 66.0085C158.834 66.1085 158.827 66.1985 158.814 66.2785H156.789C156.805 66.4785 156.875 66.6352 156.999 66.7485C157.122 66.8618 157.274 66.9185 157.454 66.9185C157.714 66.9185 157.899 66.8068 158.009 66.5835H158.764C158.684 66.8502 158.53 67.0702 158.304 67.2435C158.077 67.4135 157.799 67.4985 157.469 67.4985C157.202 67.4985 156.962 67.4402 156.749 67.3235C156.539 67.2035 156.374 67.0352 156.254 66.8185C156.137 66.6018 156.079 66.3518 156.079 66.0685C156.079 65.7818 156.137 65.5302 156.254 65.3135C156.37 65.0968 156.534 64.9302 156.744 64.8135C156.954 64.6968 157.195 64.6385 157.469 64.6385C157.732 64.6385 157.967 64.6952 158.174 64.8085C158.384 64.9218 158.545 65.0835 158.659 65.2935C158.775 65.5002 158.834 65.7385 158.834 66.0085ZM158.109 65.8085C158.105 65.6285 158.04 65.4852 157.914 65.3785C157.787 65.2685 157.632 65.2135 157.449 65.2135C157.275 65.2135 157.129 65.2668 157.009 65.3735C156.892 65.4768 156.82 65.6218 156.794 65.8085H158.109ZM160.16 65.2585V66.5985C160.16 66.6918 160.181 66.7602 160.225 66.8035C160.271 66.8435 160.348 66.8635 160.455 66.8635H160.78V67.4535H160.34C159.75 67.4535 159.455 67.1668 159.455 66.5935V65.2585H159.125V64.6835H159.455V63.9985H160.16V64.6835H160.78V65.2585H160.16ZM161.983 65.1135C162.073 64.9668 162.19 64.8518 162.333 64.7685C162.48 64.6852 162.646 64.6435 162.833 64.6435V65.3785H162.648C162.428 65.3785 162.261 65.4302 162.148 65.5335C162.038 65.6368 161.983 65.8168 161.983 66.0735V67.4535H161.283V64.6835H161.983V65.1135ZM163.66 64.3535C163.536 64.3535 163.433 64.3152 163.35 64.2385C163.27 64.1585 163.23 64.0602 163.23 63.9435C163.23 63.8268 163.27 63.7302 163.35 63.6535C163.433 63.5735 163.536 63.5335 163.66 63.5335C163.783 63.5335 163.885 63.5735 163.965 63.6535C164.048 63.7302 164.09 63.8268 164.09 63.9435C164.09 64.0602 164.048 64.1585 163.965 64.2385C163.885 64.3152 163.783 64.3535 163.66 64.3535ZM164.005 64.6835V67.4535H163.305V64.6835H164.005ZM164.516 66.0685C164.516 65.7818 164.575 65.5318 164.691 65.3185C164.808 65.1018 164.97 64.9352 165.176 64.8185C165.383 64.6985 165.62 64.6385 165.886 64.6385C166.23 64.6385 166.513 64.7252 166.736 64.8985C166.963 65.0685 167.115 65.3085 167.191 65.6185H166.436C166.396 65.4985 166.328 65.4052 166.231 65.3385C166.138 65.2685 166.021 65.2335 165.881 65.2335C165.681 65.2335 165.523 65.3068 165.406 65.4535C165.29 65.5968 165.231 65.8018 165.231 66.0685C165.231 66.3318 165.29 66.5368 165.406 66.6835C165.523 66.8268 165.681 66.8985 165.881 66.8985C166.165 66.8985 166.35 66.7718 166.436 66.5185H167.191C167.115 66.8185 166.963 67.0568 166.736 67.2335C166.51 67.4102 166.226 67.4985 165.886 67.4985C165.62 67.4985 165.383 67.4402 165.176 67.3235C164.97 67.2035 164.808 67.0368 164.691 66.8235C164.575 66.6068 164.516 66.3552 164.516 66.0685ZM148.866 71.9635V72.5285H147.936V75.4535H147.236V72.5285H146.306V71.9635H148.866ZM151.951 74.0085C151.951 74.1085 151.945 74.1985 151.931 74.2785H149.906C149.923 74.4785 149.993 74.6352 150.116 74.7485C150.24 74.8618 150.391 74.9185 150.571 74.9185C150.831 74.9185 151.016 74.8068 151.126 74.5835H151.881C151.801 74.8502 151.648 75.0702 151.421 75.2435C151.195 75.4135 150.916 75.4985 150.586 75.4985C150.32 75.4985 150.08 75.4402 149.866 75.3235C149.656 75.2035 149.491 75.0352 149.371 74.8185C149.255 74.6018 149.196 74.3518 149.196 74.0685C149.196 73.7818 149.255 73.5302 149.371 73.3135C149.488 73.0968 149.651 72.9302 149.861 72.8135C150.071 72.6968 150.313 72.6385 150.586 72.6385C150.85 72.6385 151.085 72.6952 151.291 72.8085C151.501 72.9218 151.663 73.0835 151.776 73.2935C151.893 73.5002 151.951 73.7385 151.951 74.0085ZM151.226 73.8085C151.223 73.6285 151.158 73.4852 151.031 73.3785C150.905 73.2685 150.75 73.2135 150.566 73.2135C150.393 73.2135 150.246 73.2668 150.126 73.3735C150.01 73.4768 149.938 73.6218 149.911 73.8085H151.226ZM153.522 75.4985C153.296 75.4985 153.092 75.4585 152.912 75.3785C152.732 75.2952 152.589 75.1835 152.482 75.0435C152.379 74.9035 152.322 74.7485 152.312 74.5785H153.017C153.031 74.6852 153.082 74.7735 153.172 74.8435C153.266 74.9135 153.381 74.9485 153.517 74.9485C153.651 74.9485 153.754 74.9218 153.827 74.8685C153.904 74.8152 153.942 74.7468 153.942 74.6635C153.942 74.5735 153.896 74.5068 153.802 74.4635C153.712 74.4168 153.567 74.3668 153.367 74.3135C153.161 74.2635 152.991 74.2118 152.857 74.1585C152.727 74.1052 152.614 74.0235 152.517 73.9135C152.424 73.8035 152.377 73.6552 152.377 73.4685C152.377 73.3152 152.421 73.1752 152.507 73.0485C152.597 72.9218 152.724 72.8218 152.887 72.7485C153.054 72.6752 153.249 72.6385 153.472 72.6385C153.802 72.6385 154.066 72.7218 154.262 72.8885C154.459 73.0518 154.567 73.2735 154.587 73.5535H153.917C153.907 73.4435 153.861 73.3568 153.777 73.2935C153.697 73.2268 153.589 73.1935 153.452 73.1935C153.326 73.1935 153.227 73.2168 153.157 73.2635C153.091 73.3102 153.057 73.3752 153.057 73.4585C153.057 73.5518 153.104 73.6235 153.197 73.6735C153.291 73.7202 153.436 73.7685 153.632 73.8185C153.832 73.8685 153.997 73.9202 154.127 73.9735C154.257 74.0268 154.369 74.1102 154.462 74.2235C154.559 74.3335 154.609 74.4802 154.612 74.6635C154.612 74.8235 154.567 74.9668 154.477 75.0935C154.391 75.2202 154.264 75.3202 154.097 75.3935C153.934 75.4635 153.742 75.4985 153.522 75.4985ZM156.002 73.2585V74.5985C156.002 74.6918 156.024 74.7602 156.067 74.8035C156.114 74.8435 156.19 74.8635 156.297 74.8635H156.622V75.4535H156.182C155.592 75.4535 155.297 75.1668 155.297 74.5935V73.2585H154.967V72.6835H155.297V71.9985H156.002V72.6835H156.622V73.2585H156.002Z" fill="white"/>
<path d="M138.701 89.2982L125.791 92.0236L131.382 80.9048L138.701 89.2982Z" fill="#1476B7"/>
</svg>
