<svg width="20" height="24" viewBox="0 0 20 24" fill="none" xmlns="http://www.w3.org/2000/svg">
<path d="M16.2299 23.6571H3.02591C2.22357 23.6566 1.45426 23.3376 0.886913 22.7702C0.319571 22.2029 0.000582887 21.4336 0 20.6312V3.02591C0.000582887 2.22357 0.319571 1.45426 0.886913 0.886913C1.45426 0.319571 2.22357 0.000582887 3.02591 0H16.2299C17.0322 0.000582887 17.8016 0.319571 18.3689 0.886913C18.9362 1.45426 19.2552 2.22357 19.2558 3.02591V20.6312C19.2552 21.4336 18.9362 22.2029 18.3689 22.7702C17.8016 23.3376 17.0322 23.6566 16.2299 23.6571ZM3.02591 1.6505C2.66131 1.65108 2.31181 1.79618 2.05399 2.05399C1.79618 2.31181 1.65108 2.66131 1.6505 3.02591V20.6312C1.65108 20.9958 1.79618 21.3453 2.05399 21.6032C2.31181 21.861 2.66131 22.0061 3.02591 22.0066H16.2299C16.5945 22.0061 16.944 21.861 17.2018 21.6032C17.4596 21.3453 17.6047 20.9958 17.6053 20.6312V3.02591C17.6047 2.66131 17.4596 2.31181 17.2018 2.05399C16.944 1.79618 16.5945 1.65108 16.2299 1.6505H3.02591Z" fill="#BDBDBD"/>
<path d="M14.0293 9.35273H5.22661C4.71609 9.35215 4.22665 9.14909 3.86566 8.7881C3.50467 8.42711 3.30161 7.93767 3.30103 7.42715V5.22648C3.30161 4.71597 3.50467 4.22653 3.86566 3.86554C4.22665 3.50455 4.71609 3.30149 5.22661 3.3009H14.0293C14.5398 3.30149 15.0292 3.50455 15.3902 3.86554C15.7512 4.22653 15.9543 4.71597 15.9548 5.22648V7.42715C15.9543 7.93767 15.7512 8.42711 15.3902 8.7881C15.0292 9.14909 14.5398 9.35215 14.0293 9.35273ZM5.22661 4.9514C5.15365 4.9514 5.08368 4.98038 5.03209 5.03197C4.98051 5.08356 4.95152 5.15353 4.95152 5.22648V7.42715C4.95152 7.50011 4.98051 7.57007 5.03209 7.62166C5.08368 7.67325 5.15365 7.70223 5.22661 7.70223H14.0293C14.1022 7.70223 14.1722 7.67325 14.2238 7.62166C14.2754 7.57007 14.3043 7.50011 14.3043 7.42715V5.22648C14.3043 5.15353 14.2754 5.08356 14.2238 5.03197C14.1722 4.98038 14.1022 4.9514 14.0293 4.9514H5.22661Z" fill="#BDBDBD"/>
<path d="M4.67638 12.9289C5.28408 12.9289 5.77671 12.4363 5.77671 11.8286C5.77671 11.2209 5.28408 10.7283 4.67638 10.7283C4.06869 10.7283 3.57605 11.2209 3.57605 11.8286C3.57605 12.4363 4.06869 12.9289 4.67638 12.9289Z" fill="#BDBDBD"/>
<path d="M7.97741 12.9289C8.5851 12.9289 9.07774 12.4363 9.07774 11.8286C9.07774 11.2209 8.5851 10.7283 7.97741 10.7283C7.36971 10.7283 6.87708 11.2209 6.87708 11.8286C6.87708 12.4363 7.36971 12.9289 7.97741 12.9289Z" fill="#BDBDBD"/>
<path d="M11.2784 12.9289C11.8861 12.9289 12.3788 12.4363 12.3788 11.8286C12.3788 11.2209 11.8861 10.7283 11.2784 10.7283C10.6707 10.7283 10.1781 11.2209 10.1781 11.8286C10.1781 12.4363 10.6707 12.9289 11.2784 12.9289Z" fill="#BDBDBD"/>
<path d="M14.5794 12.9289C15.1871 12.9289 15.6797 12.4363 15.6797 11.8286C15.6797 11.2209 15.1871 10.7283 14.5794 10.7283C13.9717 10.7283 13.4791 11.2209 13.4791 11.8286C13.4791 12.4363 13.9717 12.9289 14.5794 12.9289Z" fill="#BDBDBD"/>
<path d="M4.67638 16.23C5.28408 16.23 5.77671 15.7373 5.77671 15.1296C5.77671 14.5219 5.28408 14.0293 4.67638 14.0293C4.06869 14.0293 3.57605 14.5219 3.57605 15.1296C3.57605 15.7373 4.06869 16.23 4.67638 16.23Z" fill="#BDBDBD"/>
<path d="M7.97741 16.23C8.5851 16.23 9.07774 15.7373 9.07774 15.1296C9.07774 14.5219 8.5851 14.0293 7.97741 14.0293C7.36971 14.0293 6.87708 14.5219 6.87708 15.1296C6.87708 15.7373 7.36971 16.23 7.97741 16.23Z" fill="#BDBDBD"/>
<path d="M11.2784 16.23C11.8861 16.23 12.3788 15.7373 12.3788 15.1296C12.3788 14.5219 11.8861 14.0293 11.2784 14.0293C10.6707 14.0293 10.1781 14.5219 10.1781 15.1296C10.1781 15.7373 10.6707 16.23 11.2784 16.23Z" fill="#BDBDBD"/>
<path d="M14.5794 16.23C15.1871 16.23 15.6797 15.7373 15.6797 15.1296C15.6797 14.5219 15.1871 14.0293 14.5794 14.0293C13.9717 14.0293 13.4791 14.5219 13.4791 15.1296C13.4791 15.7373 13.9717 16.23 14.5794 16.23Z" fill="#BDBDBD"/>
<path d="M4.67638 19.531C5.28408 19.531 5.77671 19.0384 5.77671 18.4307C5.77671 17.823 5.28408 17.3303 4.67638 17.3303C4.06869 17.3303 3.57605 17.823 3.57605 18.4307C3.57605 19.0384 4.06869 19.531 4.67638 19.531Z" fill="#BDBDBD"/>
<path d="M7.97741 19.531C8.5851 19.531 9.07774 19.0384 9.07774 18.4307C9.07774 17.823 8.5851 17.3303 7.97741 17.3303C7.36971 17.3303 6.87708 17.823 6.87708 18.4307C6.87708 19.0384 7.36971 19.531 7.97741 19.531Z" fill="#BDBDBD"/>
<path d="M15.1296 19.2557H10.7283C10.5094 19.2557 10.2995 19.1688 10.1447 19.014C9.98996 18.8592 9.90302 18.6493 9.90302 18.4305C9.90302 18.2116 9.98996 18.0017 10.1447 17.8469C10.2995 17.6922 10.5094 17.6052 10.7283 17.6052H15.1296C15.3485 17.6052 15.5584 17.6922 15.7131 17.8469C15.8679 18.0017 15.9548 18.2116 15.9548 18.4305C15.9548 18.6493 15.8679 18.8592 15.7131 19.014C15.5584 19.1688 15.3485 19.2557 15.1296 19.2557Z" fill="#BDBDBD"/>
</svg>
