<svg width="19" height="19" viewBox="0 0 19 19" fill="none" xmlns="http://www.w3.org/2000/svg">
<path d="M9.20728 0.100403C9.40006 0.10046 9.58459 0.177004 9.72095 0.313293C9.85726 0.449601 9.93469 0.634209 9.93481 0.826965C9.93481 1.01989 9.85736 1.2052 9.72095 1.34161C9.5846 1.47789 9.40005 1.55445 9.20728 1.5545C4.9919 1.5545 1.5686 4.9778 1.5686 9.19318C1.56872 13.4085 4.99197 16.8309 9.20728 16.8309C13.4225 16.8308 16.8449 13.4084 16.845 9.19318C16.8462 8.1421 16.6298 7.10175 16.2092 6.13849C16.1319 5.96183 16.1283 5.76147 16.1985 5.58185C16.2687 5.40227 16.4076 5.25787 16.5842 5.18048C16.7609 5.1032 16.9613 5.0986 17.1409 5.16876C17.2755 5.22139 17.3903 5.31282 17.4719 5.4295L17.5422 5.5545L17.7141 5.97833C18.0924 6.97838 18.3 8.06161 18.3 9.19318C18.2999 14.2115 14.2256 18.2858 9.20728 18.2859C4.18885 18.2859 0.11462 14.2116 0.114502 9.19318C0.114502 4.17468 4.18878 0.100403 9.20728 0.100403Z" fill="#9D9C9D" stroke="#9D9C9D" stroke-width="0.2"/>
<path d="M0.96167 8.46954C1.0558 8.48723 1.14522 8.52356 1.22534 8.57599H1.22632L3.96265 10.2859C4.24614 10.4633 4.57354 10.5564 4.90698 10.5565H5.54272C6.00967 10.5563 6.47106 10.6582 6.89526 10.8533C7.31945 11.0485 7.69706 11.3326 8.00073 11.6873L8.87964 12.7137C9.22805 13.1198 9.47135 13.6069 9.58569 14.1297C9.69994 14.6523 9.68287 15.1954 9.53589 15.7098L9.07007 17.3397L9.06909 17.3416C9.01315 17.5236 8.88782 17.6766 8.72046 17.7674C8.55314 17.8581 8.3566 17.8802 8.17358 17.8279C7.9908 17.7756 7.83603 17.6533 7.74194 17.4881C7.64782 17.3226 7.622 17.1263 7.67065 16.9422V16.9402H7.67163L8.13745 15.3104C8.21823 15.0271 8.2268 14.728 8.16382 14.4402C8.1008 14.1525 7.96787 13.8845 7.77612 13.6609L6.89624 12.6346C6.55718 12.2393 6.06309 12.0115 5.54272 12.0115H4.90698C4.30098 12.0115 3.70651 11.8404 3.19214 11.5193L0.45874 9.81036V9.81134C0.375097 9.76216 0.301875 9.69676 0.243896 9.61896C0.185885 9.54103 0.144 9.45159 0.12085 9.35724C0.0977553 9.26297 0.0937913 9.16499 0.109131 9.06915C0.124488 8.97324 0.15926 8.88104 0.210693 8.79865C0.262102 8.71641 0.329633 8.64549 0.408936 8.58966C0.488292 8.53381 0.577787 8.4941 0.672607 8.47345C0.767536 8.45281 0.866183 8.45165 0.96167 8.46954ZM13.3894 0.100403C15.0341 0.100403 16.3689 1.43522 16.3689 3.0799C16.3688 3.60274 16.1335 4.22545 15.782 4.82208C15.4285 5.42372 14.9589 6.01778 14.5789 6.45978C14.3887 6.6809 14.2202 6.86522 14.0994 6.99396C14.0389 7.05835 13.9894 7.10978 13.9558 7.14435C13.9393 7.16136 13.9265 7.1745 13.9177 7.18341C13.9133 7.18791 13.9103 7.19183 13.908 7.19415C13.9069 7.19519 13.9056 7.19551 13.905 7.19611L13.9041 7.19708C13.8366 7.26466 13.7559 7.31871 13.6677 7.35529C13.5796 7.39177 13.4848 7.41095 13.3894 7.41095C13.294 7.4109 13.1992 7.39182 13.1111 7.35529C13.0672 7.33705 13.0254 7.3142 12.9861 7.2879L12.8757 7.19708L12.8748 7.19611C12.8742 7.19553 12.8729 7.1952 12.8718 7.19415C12.8695 7.19184 12.8665 7.18789 12.8621 7.18341C12.8532 7.17443 12.8397 7.16158 12.823 7.14435C12.7894 7.10978 12.7409 7.05835 12.6804 6.99396C12.5596 6.86522 12.3911 6.68097 12.2009 6.45978C11.8209 6.01777 11.3504 5.42377 10.9968 4.82208C10.6454 4.22555 10.4101 3.60265 10.4099 3.0799V3.07892C10.4103 2.28898 10.7244 1.53105 11.283 0.972473C11.8416 0.413904 12.5994 0.100721 13.3894 0.100403ZM13.3894 1.5545C12.548 1.5547 11.865 2.23846 11.865 3.0799C11.8651 3.27783 11.9397 3.50726 12.0632 3.75665C12.1863 4.00496 12.3532 4.26437 12.5291 4.51935C12.8129 4.93042 13.1309 5.3156 13.3894 5.61115C13.6958 5.26258 13.9842 4.89836 14.2507 4.51837C14.4264 4.26365 14.5936 4.00471 14.7166 3.75665C14.8401 3.5073 14.9147 3.2778 14.9148 3.0799C14.9148 2.23834 14.231 1.5545 13.3894 1.5545Z" fill="#9D9C9D" stroke="#9D9C9D" stroke-width="0.2"/>
<path d="M4.13623 1.77014C4.23181 1.76365 4.3277 1.77657 4.41846 1.80725C4.50939 1.83801 4.59341 1.88647 4.66553 1.94983C4.73739 2.01297 4.7962 2.08957 4.83838 2.17542L6.17334 4.84534C6.23313 4.96546 6.31835 5.07112 6.42236 5.15588C6.52633 5.24057 6.64723 5.30225 6.77686 5.33655L8.24756 5.7262C8.66517 5.83657 9.04564 6.05751 9.34814 6.36584C9.65057 6.67416 9.86396 7.05857 9.96631 7.47815L10.5962 10.0602C10.6523 10.2904 10.7926 10.4911 10.9897 10.6227L11.3794 10.8824H11.3804C11.4916 10.9571 11.6173 11.0077 11.7495 11.0299C11.8817 11.052 12.0174 11.0457 12.147 11.0114C12.2766 10.9769 12.3976 10.9146 12.5015 10.8297C12.6052 10.7449 12.6899 10.6392 12.7495 10.5192V10.5182L13.2319 9.5553C13.3868 9.24599 13.6067 8.97397 13.8765 8.75745C14.1464 8.5408 14.4606 8.38458 14.7964 8.30042L17.1313 7.71741H17.1323C17.3184 7.67374 17.5141 7.70484 17.6772 7.80432C17.8403 7.90381 17.958 8.06335 18.0044 8.24866C18.0507 8.4339 18.0222 8.63006 17.9253 8.79456C17.8282 8.95914 17.6695 9.07947 17.4849 9.12854H17.4839L15.1489 9.71252C15.0166 9.74555 14.893 9.80696 14.7866 9.89221C14.6802 9.97747 14.5938 10.0848 14.5327 10.2067L14.0513 11.1696C13.8995 11.4742 13.6842 11.7435 13.4204 11.9586C13.1566 12.1737 12.85 12.3303 12.521 12.4176C12.192 12.505 11.848 12.5213 11.5122 12.4655C11.1763 12.4095 10.8558 12.2818 10.5728 12.0924L10.1831 11.8336C9.68239 11.4997 9.32565 10.9896 9.18311 10.4049L8.55225 7.8219C8.4705 7.48544 8.21147 7.22095 7.87646 7.13245L6.40576 6.7428C6.07621 6.65578 5.76883 6.49986 5.50439 6.28479C5.23995 6.0697 5.02391 5.80068 4.87158 5.49573L3.53662 2.82581L3.5376 2.82483C3.49433 2.73952 3.46773 2.64677 3.46045 2.55139C3.45317 2.45572 3.46459 2.35932 3.49463 2.26819C3.52469 2.17709 3.5725 2.0927 3.63525 2.02014C3.69805 1.94756 3.77497 1.88821 3.86084 1.84534C3.94667 1.80252 4.04053 1.7767 4.13623 1.77014Z" fill="#9D9C9D" stroke="#9D9C9D" stroke-width="0.2"/>
</svg>
