<svg width="19" height="22" viewBox="0 0 19 22" fill="none" xmlns="http://www.w3.org/2000/svg">
<path d="M16.8265 0.0501709C17.5563 0.0502505 18.1497 0.643661 18.1498 1.37341V20.5619C18.1498 21.2917 17.5563 21.886 16.8265 21.8861H1.37341C0.643612 21.886 0.0501709 21.2917 0.0501709 20.5619V9.19861C0.050392 8.93676 0.262878 8.72498 0.52478 8.72498C0.786556 8.72513 0.999169 8.93685 0.99939 9.19861V20.5619C0.99939 20.7683 1.16701 20.9368 1.37341 20.9369H16.8265C17.0329 20.9368 17.2006 20.7683 17.2006 20.5619V1.37341C17.2005 1.16706 17.0329 0.999469 16.8265 0.99939H8.23669C7.97479 0.999342 7.76223 0.786663 7.76208 0.52478C7.76208 0.262771 7.9747 0.0502189 8.23669 0.0501709H16.8265ZM0.52478 7.14001C0.649553 7.14009 0.771512 7.19042 0.859741 7.27869C0.948005 7.3669 0.99926 7.48888 0.99939 7.61365C0.99939 7.70723 0.97074 7.79989 0.919312 7.87732L0.859741 7.94958C0.771524 8.03783 0.649552 8.08818 0.52478 8.08826C0.431004 8.08826 0.33865 8.05981 0.261108 8.00818L0.188843 7.94958C0.100507 7.86129 0.0501709 7.73852 0.0501709 7.61365C0.0503003 7.48895 0.100644 7.3669 0.188843 7.27869C0.277202 7.19037 0.399843 7.14001 0.52478 7.14001Z" fill="#BDBDBD" stroke="#BDBDBD" stroke-width="0.1"/>
<path d="M5.17902 16.9465C5.30463 16.9468 5.42492 16.9966 5.51398 17.0852C5.6029 17.1737 5.65363 17.2963 5.65363 17.4211C5.65343 17.5467 5.60364 17.6672 5.51495 17.7561C5.42662 17.8445 5.30395 17.8958 5.17902 17.8958C5.05409 17.8958 4.93141 17.8445 4.84308 17.7561C4.75459 17.6671 4.70483 17.5466 4.70441 17.4211C4.70441 17.2963 4.75488 17.1735 4.84308 17.0852C4.9314 16.9969 5.05409 16.9465 5.17902 16.9465ZM13.0208 16.9465C13.2828 16.9466 13.4954 17.1591 13.4954 17.4211C13.4952 17.683 13.2828 17.8957 13.0208 17.8958H6.99249C6.73056 17.8958 6.51806 17.683 6.51788 17.4211C6.51788 17.1591 6.73045 16.9465 6.99249 16.9465H13.0208ZM5.17902 14.5686C5.30393 14.5686 5.42662 14.6199 5.51495 14.7083H5.51398C5.60286 14.7967 5.65358 14.9185 5.65363 15.0432C5.65363 15.1679 5.60281 15.2898 5.51398 15.3782C5.42565 15.4666 5.30395 15.5178 5.17902 15.5178C5.05409 15.5178 4.93141 15.4675 4.84308 15.3792C4.75441 15.2901 4.70476 15.1689 4.70441 15.0432C4.70445 14.9185 4.75504 14.7965 4.84308 14.7083C4.9314 14.6199 5.05409 14.5686 5.17902 14.5686ZM13.0208 14.5686C13.2828 14.5686 13.4953 14.7813 13.4954 15.0432C13.4954 15.3052 13.2829 15.5178 13.0208 15.5178H6.99249C6.73045 15.5178 6.51788 15.3053 6.51788 15.0432C6.51802 14.7813 6.73054 14.5686 6.99249 14.5686H13.0208ZM9.09991 1.74829C12.2409 1.74829 14.7962 4.3036 14.7962 7.44458C14.7961 10.5855 12.2408 13.1409 9.09991 13.1409C7.74451 13.1409 6.43091 12.6568 5.40167 11.7776C4.38409 10.9084 3.70299 9.70604 3.48273 8.39282C3.43943 8.13448 3.61314 7.88946 3.8714 7.84595C4.12955 7.80273 4.37484 7.97731 4.41827 8.2356C4.55924 9.07613 4.91468 9.83104 5.4212 10.4514C5.73295 9.93329 6.15046 9.485 6.6546 9.13501C6.93623 8.93953 7.24101 8.77939 7.56085 8.65649C7.19623 8.27413 6.97003 7.75869 6.97003 7.1897V6.77563C6.97011 5.60103 7.92534 4.64578 9.09991 4.64575C10.2745 4.64575 11.2297 5.60101 11.2298 6.77563V7.1897C11.2298 7.75871 11.0036 8.27413 10.639 8.65649C10.9589 8.77938 11.2636 8.9395 11.5452 9.13501C12.0471 9.48334 12.4625 9.92948 12.7737 10.4446C13.4435 9.62605 13.8469 8.58207 13.847 7.44458C13.847 4.827 11.7175 2.69751 9.09991 2.69751C8.85669 2.69749 8.61378 2.71545 8.37335 2.7522C8.11447 2.79167 7.87206 2.61383 7.83234 2.35474C7.79289 2.09585 7.97092 1.85444 8.2298 1.8147C8.51592 1.77086 8.80861 1.74829 9.09991 1.74829ZM9.09991 9.31958C7.82456 9.3196 6.68742 10.0268 6.11945 11.1458C6.93768 11.8038 7.97662 12.1916 9.09991 12.1917C10.2261 12.1917 11.2607 11.7957 12.0755 11.1379C11.5061 10.0238 10.3722 9.31958 9.09991 9.31958ZM9.09991 5.59497C8.44877 5.595 7.9193 6.12445 7.91925 6.77563V7.1897C7.91928 7.84086 8.44875 8.37033 9.09991 8.37036C9.7511 8.37036 10.2815 7.84088 10.2816 7.1897V6.77563C10.2815 6.12443 9.75109 5.59497 9.09991 5.59497ZM4.45734 2.51099C4.64268 2.32573 4.94383 2.32574 5.12921 2.51099C5.31431 2.69618 5.31413 2.99654 5.12921 3.18188L3.44659 4.86548H3.44562C3.35302 4.95769 3.23183 5.00412 3.11066 5.00415C3.04835 5.00423 2.98658 4.99185 2.92902 4.96802C2.87142 4.94416 2.81875 4.90864 2.77472 4.8645L2.00226 4.09204C1.81716 3.90673 1.81705 3.60642 2.00226 3.42114C2.18754 3.23595 2.48776 3.23608 2.67316 3.42114L3.10968 3.85767L4.45734 2.51099Z" fill="#BDBDBD" stroke="#BDBDBD" stroke-width="0.1"/>
<path d="M3.58142 0.0501709C5.5284 0.0503408 7.11267 1.63441 7.11267 3.58142C7.1125 5.52829 5.52829 7.1125 3.58142 7.11267C1.63441 7.11267 0.0503408 5.5284 0.0501709 3.58142C0.0501709 1.6343 1.6343 0.0501709 3.58142 0.0501709ZM3.58142 0.99939C2.1577 0.99939 0.99939 2.1577 0.99939 3.58142C0.99956 5.005 2.1578 6.16345 3.58142 6.16345C5.00489 6.16328 6.16328 5.00489 6.16345 3.58142C6.16345 2.1578 5.005 0.99956 3.58142 0.99939Z" fill="#BDBDBD" stroke="#BDBDBD" stroke-width="0.1"/>
</svg>
