<svg width="160" height="103" viewBox="0 0 160 103" fill="none" xmlns="http://www.w3.org/2000/svg">
<path d="M89.1483 32.7342L96.6326 38.2749L41.325 101.222H54.9155L104.883 44.3765L112.063 49.6877L113.72 35.5865L115.376 21.4852L89.1483 32.7342Z" fill="#1476B7"/>
<path d="M2.23576 101.222H15.8409L29.7137 85.4381L36.8974 90.7529L38.5541 76.6517L40.2107 62.5504L13.979 73.7994L21.467 79.3364L2.23576 101.222Z" fill="#1476B7"/>
<path d="M105.539 101.222H119.141L136.884 81.0412L144.064 86.3524L145.72 72.2512L147.377 58.1499L121.149 69.3988L128.633 74.9395L105.539 101.222Z" fill="#1476B7"/>
<path d="M121.299 14.5384L130.975 21.6965L97.219 60.2518L64.7198 49.1923L12.7768 101.222H31.4363L68.2787 64.3245L101.364 75.5807L141.637 29.5831L150.921 36.4534L153.062 18.2249L155.202 0L121.299 14.5384Z" fill="white"/>
<path d="M96.0132 60.2518H97.219L64.7198 49.1923L64.412 49.5019L96.0132 60.2518Z" fill="#D4D4FC"/>
<path d="M67.0729 64.3245L30.2305 101.222H31.4363L68.2787 64.3245H67.0729Z" fill="#D4D4FC"/>
<path d="M140.432 29.5831L100.437 75.2674L101.364 75.5807L141.637 29.5831H140.432Z" fill="#D4D4FC"/>
<path d="M153.934 0.542776L151.856 18.2249L149.811 35.6302L150.921 36.4534L153.062 18.2249L155.202 0L153.934 0.542776Z" fill="#D4D4FC"/>
<path d="M116.549 38.7011C116.549 38.5298 116.535 38.3586 116.513 38.1947L100.969 55.9497L100.793 66.7141H101.265L101.214 74.1454L102.281 74.5097L117.202 57.4687L116.549 38.7011Z" fill="#CCCCCE"/>
</svg>
