<svg width="15" height="19" viewBox="0 0 15 19" fill="none" xmlns="http://www.w3.org/2000/svg">
<path d="M13.6 0.0501709C14.1238 0.0501709 14.5502 0.476552 14.5502 1.00037V14.4994C14.5502 14.7285 14.429 14.9269 14.2504 15.0424V16.3568C14.429 16.4722 14.5501 16.6706 14.5502 16.8998V17.5004C14.55 17.8587 14.2582 18.1498 13.8998 18.1498H2.5863C2.24161 18.1484 1.90056 18.0787 1.58337 17.9437C1.26607 17.8087 0.97871 17.6112 0.738647 17.3636C0.306734 16.9177 0.0698815 16.3485 0.0560303 15.7504H0.0501709V2.50037C0.0501709 1.14945 1.14945 0.0501709 2.50037 0.0501709H13.6ZM2.49939 13.9496C2.26958 13.949 2.0418 13.9945 1.82947 14.0824C1.67006 14.1484 1.52172 14.2377 1.38904 14.347L1.26208 14.4623C0.947285 14.776 0.763886 15.1987 0.750366 15.6429C0.736173 16.0964 0.910399 16.5343 1.24158 16.8763C1.41626 17.0567 1.6249 17.2007 1.85583 17.2992C2.0869 17.3977 2.33612 17.4485 2.58728 17.4496H13.85V16.9496H2.54919C1.85738 16.9494 1.28524 16.4315 1.25134 15.765V15.6371C1.25738 15.5105 1.28245 15.3853 1.32654 15.266C1.38545 15.1067 1.4767 14.961 1.59412 14.8383L1.68591 14.7504C1.78179 14.6677 1.89039 14.6002 2.0072 14.5502C2.163 14.4835 2.33089 14.4488 2.50037 14.4496H13.85V13.9496H2.49939ZM2.50037 15.1498C2.3478 15.1498 2.20548 15.2109 2.10095 15.3207C2.04935 15.3748 2.0096 15.439 1.98376 15.5092C1.95791 15.5794 1.94633 15.6542 1.95056 15.7289C1.96492 16.0118 2.23015 16.2502 2.54919 16.2504H13.5502V15.1498H2.50037ZM2.14978 0.788452C1.3524 0.951562 0.750366 1.65584 0.750366 2.50037V13.9857C0.756117 13.9797 0.76204 13.9731 0.767944 13.9672C1.14155 13.5928 1.62682 13.3515 2.14978 13.2777V0.788452ZM2.84998 13.2504H13.85V1.00037C13.85 0.934154 13.8235 0.870474 13.7767 0.823608C13.7299 0.776725 13.6663 0.750366 13.6 0.750366H2.84998V13.2504Z" fill="#BDBDBD" stroke="#BDBDBD" stroke-width="0.1"/>
<path d="M9.70001 11.4496C9.79265 11.4496 9.88148 11.4867 9.94708 11.5521C10.0127 11.6178 10.0496 11.7073 10.0496 11.8002C10.0496 11.8929 10.0127 11.9816 9.94708 12.0472C9.88145 12.1128 9.79279 12.1498 9.70001 12.1498H6.70001C6.60723 12.1498 6.51857 12.1128 6.45294 12.0472C6.38735 11.9816 6.35045 11.8929 6.3504 11.8002C6.3504 11.7073 6.3873 11.6178 6.45294 11.5521C6.51854 11.4867 6.60737 11.4496 6.70001 11.4496H9.70001ZM10.9002 9.94958C10.9928 9.94964 11.0817 9.98672 11.1473 10.0521C11.2129 10.1178 11.2498 10.2073 11.2498 10.3002C11.2498 10.3929 11.2129 10.4816 11.1473 10.5472C11.0817 10.6128 10.993 10.6497 10.9002 10.6498H5.49982C5.40706 10.6497 5.31834 10.6128 5.25275 10.5472C5.18715 10.4816 5.15026 10.3929 5.15021 10.3002C5.15021 10.2073 5.18711 10.1178 5.25275 10.0521C5.31831 9.98672 5.4072 9.94964 5.49982 9.94958H10.9002ZM7.89825 3.94958C8.36544 3.95423 8.77355 4.15824 9.04474 4.50916C9.18179 4.68525 9.27719 4.89039 9.32306 5.10876C9.36891 5.32723 9.36409 5.55348 9.30939 5.7699V5.77185L8.7088 7.81482C8.79211 7.79874 8.87438 7.77778 8.95294 7.74548L8.95392 7.74451C9.01631 7.71997 9.08319 7.70832 9.15021 7.71033C9.18388 7.71134 9.21721 7.71625 9.24982 7.724L9.34454 7.75623L9.43048 7.80798C9.45705 7.82783 9.48154 7.85049 9.50372 7.87537C9.54818 7.92526 9.58199 7.98391 9.60333 8.04724L9.73517 8.44275C9.77189 8.5522 9.76924 8.67109 9.72736 8.77869C9.68542 8.88633 9.60683 8.97583 9.50568 9.03162C9.30672 9.14135 8.81487 9.38001 8.18927 9.43787L7.9129 9.45056C7.44534 9.44591 7.03664 9.24233 6.76544 8.89099C6.62848 8.71495 6.53394 8.50966 6.4881 8.29138C6.44231 8.07297 6.44705 7.84659 6.50177 7.63025V7.6283L7.10138 5.58435C7.01834 5.60042 6.93653 5.62248 6.85822 5.65466L6.85724 5.65564C6.73149 5.70491 6.589 5.70061 6.46661 5.64392C6.34493 5.58691 6.25066 5.48101 6.20782 5.35291L6.07599 4.95837L6.05548 4.87439C6.04266 4.78959 6.05231 4.70229 6.0838 4.62146C6.12575 4.51379 6.20429 4.42431 6.30548 4.36853C6.53291 4.24309 7.14304 3.94958 7.89825 3.94958ZM7.73322 4.65759C7.33218 4.68811 7.00131 4.81014 6.79572 4.90564L6.80548 4.93298C6.85929 4.91614 6.91382 4.90058 6.96857 4.88708C7.06835 4.86246 7.17282 4.86135 7.27325 4.88318C7.37365 4.90506 7.46813 4.94922 7.54865 5.01306H7.54767C7.65874 5.09966 7.74077 5.21825 7.78204 5.35291C7.82331 5.48755 7.82257 5.63203 7.77911 5.76599L7.77814 5.76501L7.17657 7.81091C7.14979 7.9231 7.14907 8.041 7.17365 8.15369C7.19822 8.26618 7.24825 8.37156 7.31915 8.46228L7.32013 8.46326C7.38714 8.55122 7.4733 8.62254 7.57208 8.67224C7.67095 8.72197 7.77978 8.74904 7.89044 8.75037L8.07794 8.74353C8.47867 8.71305 8.8088 8.58899 9.01447 8.49353L9.0047 8.46619C8.95044 8.48315 8.89699 8.49987 8.84357 8.51306C8.63997 8.56364 8.42841 8.51672 8.26349 8.38708C8.15169 8.29971 8.0691 8.18016 8.02814 8.04431C7.98718 7.9084 7.99004 7.76295 8.03497 7.6283L8.63361 5.58826C8.68126 5.39591 8.64909 5.18661 8.54181 5.01013L8.49103 4.93689C8.424 4.84898 8.33782 4.7776 8.23907 4.72791C8.14028 4.67824 8.03128 4.65117 7.92072 4.64978L7.73322 4.65759ZM8.65021 1.55017C9.25667 1.55028 9.74971 2.04332 9.74982 2.64978C9.74982 3.25633 9.25673 3.75026 8.65021 3.75037C8.04359 3.75037 7.54962 3.25639 7.54962 2.64978C7.54973 2.04326 8.04366 1.55017 8.65021 1.55017ZM8.65021 2.25037C8.42979 2.25037 8.24992 2.42938 8.24982 2.64978C8.24982 2.87027 8.42972 3.05017 8.65021 3.05017C8.8706 3.05007 9.04962 2.8702 9.04962 2.64978C9.04952 2.42945 8.87054 2.25047 8.65021 2.25037Z" fill="#BDBDBD" stroke="#BDBDBD" stroke-width="0.1"/>
</svg>
