<svg width="136" height="116" viewBox="0 0 136 116" fill="none" xmlns="http://www.w3.org/2000/svg">
<path opacity="0.1" fill-rule="evenodd" clip-rule="evenodd" d="M135.691 34.0137V94C135.691 105.046 126.737 114 115.691 114H0C5.38468 99 27.877 69.0001 74.7692 69.0001C121.643 69.0001 134.913 45.6849 135.691 34.0137Z" fill="#006838"/>
<path d="M78.2028 0L78.2358 44.2047C78.2413 44.5154 77.4396 44.5292 77.4258 44.2102L77.3956 0.082492L78.2028 0Z" fill="#455A64"/>
<path d="M78.2085 0.386719C80.6988 3.36193 84.2323 2.03381 87.1454 1.86057C90.3029 1.67084 92.2248 2.69099 93.1803 4.07961C92.2687 3.83763 89.7126 4.06861 88.9054 4.73679C88.9054 4.73679 92.1232 6.84309 92.126 10.2913C91.1897 8.83114 89.5616 7.7285 86.4096 8.37744C83.642 8.94663 80.1387 10.2225 78.2167 8.08872L78.2085 0.386719Z" fill="#C735EF"/>
<path opacity="0.1" d="M81.2836 8.09422C83.826 8.86689 90.7586 5.48197 92.126 10.2913C91.1897 8.83114 89.5616 7.7285 86.4096 8.37744C83.642 8.94663 80.1387 10.2225 78.2167 8.08872L78.2085 0.386719C78.2195 3.41692 78.7384 7.32154 81.2836 8.09422Z" fill="black"/>
<path d="M83.365 3.31439L82.9284 4.64526L81.5419 4.83224C81.4595 4.84324 81.4321 4.95048 81.498 4.99997L82.6292 5.82764L82.3793 7.20801C82.3656 7.2905 82.4589 7.35099 82.5248 7.3015L83.6615 6.48208L84.8943 7.14751C84.9684 7.18876 85.0535 7.11726 85.0288 7.03752L84.6005 5.7039L85.6136 4.736C85.674 4.67825 85.6329 4.57376 85.5505 4.57376L84.1502 4.56826L83.5435 3.30339C83.5023 3.22914 83.3924 3.23464 83.365 3.31439Z" fill="white"/>
<path d="M65.4276 93.8814C57.663 98.4019 45.6675 104.996 42.8093 108.001C40.8352 110.077 38.5272 112.776 37.6925 114C53.9163 117.058 72.8682 115.151 88.2326 110.547C112.029 93.8869 99.4758 82.3462 92.3839 77.284C86.9559 73.4096 82.8155 70.8744 80.2539 68.5811C77.2117 65.8561 77.4561 63.4748 82.0824 60.3264C88.0816 56.2458 90.8327 53.1056 87.4199 48.4943C85.8219 46.333 83.3811 44.6089 80.663 43.2506C78.1809 42.7281 75.6522 42.2992 73.0961 41.9609C74.9768 42.8711 76.8411 44.004 78.7355 45.5273C83.782 49.5804 80.5257 52.2504 75.1306 55.4759C71.7617 57.4914 68.9173 59.2622 67.6241 60.4831C63.2366 64.627 65.7214 68.9523 70.5729 73.1181C72.2477 74.5563 74.7407 76.2996 75.5232 79.7313C76.421 83.6469 74.8258 88.4094 65.4276 93.8814Z" fill="white"/>
<path d="M64.1511 6.69927C63.8024 6.53979 63.3851 6.52604 63.0858 6.50129C62.7399 6.47379 62.63 6.40505 62.5641 6.33081C61.724 5.12917 60.3375 5.08243 59.5083 5.42614C59.3051 4.59848 58.3057 3.8808 57.2047 4.12277C57.2432 3.04763 55.8704 1.89274 54.6403 1.62877C53.4597 1.37579 52.4301 1.48303 51.7547 2.2612C51.0326 0.850592 48.2046 0.451881 46.6726 1.19981C45.7912 1.62877 45.0444 2.06872 44.6793 2.87714C44.4377 3.41059 44.3526 3.76531 44.3471 4.48299C43.7513 3.95504 42.5569 3.8148 41.758 4.12277C40.8986 4.45549 40.8327 5.10443 40.7915 5.76436C39.9486 5.55263 39.3858 5.69012 39.2265 5.73686C38.6856 5.89635 38.3726 6.32256 38.4468 6.66627C38.0184 6.64153 36.9971 6.98799 37.1151 7.4417C37.2469 7.9504 38.4111 7.89815 38.8476 7.88166C39.2073 7.86791 39.674 7.77167 40.0667 7.68917C40.1847 7.74692 40.5005 7.81016 40.7009 7.81016C41.4422 7.80466 41.758 7.48569 41.876 7.21072C42.2384 7.97515 43.5261 8.55534 44.4377 8.78907C46.1537 9.22902 48.5808 8.95955 49.6351 7.67817C49.7449 7.90915 49.9316 8.12363 50.1458 8.30236C50.5659 8.64883 51.1314 8.89081 51.7327 8.9458C52.4384 9.0118 54.3273 9.10254 54.86 7.98065C55.2361 8.72582 56.9192 9.06679 58.1986 8.88531C58.6764 8.81656 59.2145 8.65158 59.6318 8.45085C59.9668 8.29137 60.159 8.13463 60.4555 7.9559C60.7081 7.80466 60.8207 7.80741 61.1584 7.9064C62.037 8.17038 63.0556 8.28037 63.9534 7.90365C64.6728 7.60393 64.8238 7.00449 64.1511 6.69927Z" fill="#F0F0F0"/>
<path d="M114.558 19.6441C114.288 19.5203 113.967 19.5093 113.734 19.4928C113.467 19.4708 113.382 19.4186 113.333 19.3608C112.685 18.4314 111.614 18.3957 110.974 18.6624C110.818 18.0245 110.046 17.469 109.195 17.656C109.226 16.8256 108.166 15.9347 107.216 15.7312C106.304 15.536 105.508 15.6185 104.989 16.2179C104.432 15.129 102.249 14.821 101.066 15.3985C100.385 15.7312 99.8081 16.0694 99.5281 16.6936C99.3414 17.1061 99.2755 17.3783 99.2727 17.9337C98.8115 17.5268 97.889 17.4168 97.2739 17.656C96.6095 17.9117 96.5601 18.4149 96.5271 18.9236C95.8764 18.7587 95.4426 18.8659 95.3191 18.9016C94.9017 19.0254 94.6601 19.3553 94.7178 19.6193C94.3883 19.6001 93.6003 19.8695 93.6909 20.2188C93.7925 20.612 94.6931 20.5707 95.028 20.5597C95.3053 20.5487 95.665 20.4745 95.9698 20.4112C96.0604 20.458 96.3047 20.5047 96.4585 20.5047C97.0323 20.502 97.2739 20.2545 97.3645 20.0428C97.6446 20.6312 98.6385 21.0822 99.3414 21.2609C100.665 21.5991 102.54 21.3929 103.355 20.403C103.441 20.5817 103.583 20.7467 103.751 20.8842C104.075 21.1509 104.511 21.3379 104.975 21.3819C105.519 21.4341 106.98 21.5029 107.389 20.6367C107.68 21.2114 108.978 21.4754 109.967 21.3352C110.338 21.2829 110.752 21.1537 111.073 20.9997C111.334 20.8759 111.48 20.755 111.71 20.6175C111.905 20.4992 111.993 20.502 112.251 20.579C112.929 20.7825 113.717 20.8677 114.409 20.5762C114.961 20.3425 115.076 19.8805 114.558 19.6441Z" fill="#F5F5F5"/>
<path opacity="0.15" d="M25.8579 101.072C35.3381 101.072 43.0234 96.6275 43.0234 91.1453C43.0234 85.663 35.3381 81.2188 25.8579 81.2188C16.3776 81.2188 8.69238 85.663 8.69238 91.1453C8.69238 96.6275 16.3776 101.072 25.8579 101.072Z" fill="#C735EF"/>
<path opacity="0.15" d="M95.6622 61.624L83.631 68.5753L87.5544 70.8439C87.5133 70.8659 87.4721 70.8851 87.4336 70.9071C86.3793 71.5176 86.3793 72.5047 87.4336 73.1124C88.4879 73.7228 90.1957 73.7228 91.25 73.1124C91.2885 73.0904 91.3242 73.0657 91.3599 73.0437L95.6622 75.5322L107.693 68.5753L95.6622 61.624Z" fill="black"/>
<path opacity="0.15" d="M74.0267 81.2386L61.6001 88.4237C61.0647 88.7344 60.1257 88.6959 59.5052 88.3357L41.7631 78.0764C41.1426 77.719 41.0767 77.1773 41.6121 76.8666L54.0387 69.6815C54.5741 69.3708 55.5131 69.4093 56.1336 69.7695L73.8757 80.0288C74.4962 80.3862 74.5649 80.9279 74.0267 81.2386Z" fill="black"/>
<path opacity="0.15" d="M71.66 111.964C71.2454 111.964 70.8473 111.868 70.5398 111.689L69.6969 111.202C69.3207 110.985 69.1066 110.666 69.1066 110.325C69.1066 109.984 69.3207 109.665 69.6969 109.448C69.6969 109.448 80.7946 103.014 80.7973 103.014C79.8089 101.914 79.3669 100.676 79.5234 99.4087C79.7211 97.7946 80.9017 96.285 82.8456 95.1576C84.9514 93.9395 87.7465 93.2686 90.7145 93.2686C93.6825 93.2686 96.4747 93.9395 98.5834 95.1576C100.747 96.4088 101.936 98.0888 101.936 99.8927C101.936 101.696 100.744 103.379 98.5834 104.628C96.4775 105.846 93.6825 106.517 90.7172 106.517C87.859 106.517 85.1574 105.893 83.0789 104.757L72.9147 111.618C72.577 111.843 72.1322 111.964 71.66 111.964Z" fill="black"/>
<path opacity="0.15" d="M57.1414 89.4047C56.9656 89.8804 56.4604 90.1747 55.6175 90.2874L41.0302 81.766L39.4679 80.1794C39.3773 80.0887 39.4707 79.9374 39.5915 79.9787L42.4689 80.9328L57.1414 89.4047Z" fill="black"/>
<path opacity="0.15" d="M63.047 43.7924L72.5166 49.2616C72.8872 49.4761 73.5325 49.4486 73.9608 49.2011L75.7317 48.1755C76.16 47.928 76.2039 47.554 75.836 47.3423L66.3664 41.8731C65.9958 41.6586 65.3506 41.6861 64.9222 41.9336L63.1513 42.9592C62.723 43.2039 62.6763 43.5779 63.047 43.7924Z" fill="black"/>
<path d="M74.4769 40.1822L74.5016 47.2271C74.5016 47.568 74.2627 47.766 73.9689 47.942L73.2304 48.3737C73.0272 48.4919 72.9119 48.5332 72.6538 48.4892C72.5412 48.4699 72.349 48.3792 72.2584 48.3297C72.2529 48.327 72.2474 48.3242 72.242 48.3215L72.2008 48.2995L64.6229 43.9521C64.0683 43.6332 63.7278 43.0447 63.7251 42.4068L63.7031 35.9917C63.7031 35.8459 63.8047 35.6672 63.931 35.5929L65.1912 34.8588C65.3175 34.7845 65.5235 34.7845 65.6498 34.856L74.2462 39.7863C74.3121 39.822 74.367 39.8853 74.411 39.9568C74.4494 40.0283 74.4769 40.1108 74.4769 40.1822Z" fill="#37474F"/>
<path d="M74.4767 40.1817L74.5015 47.2265C74.5015 47.5675 74.2626 47.7655 73.9688 47.9415L73.2302 48.3732C73.0271 48.4914 72.9118 48.5326 72.6537 48.4887C72.5411 48.4694 72.3489 48.3787 72.2583 48.3292V48.3264C72.5548 48.4639 72.7855 48.3099 72.7827 47.9607L72.7607 41.3229C72.7607 41.2129 72.7223 41.0891 72.6592 40.9791L74.4109 39.959C74.4493 40.0277 74.4767 40.1102 74.4767 40.1817Z" fill="#263238"/>
<path d="M72.7582 41.32C72.7582 41.1 72.6017 40.8278 72.4096 40.7178L64.2853 36.057C63.9641 35.8727 63.7032 36.024 63.7032 36.3952L63.7225 42.4034C63.7252 43.0413 64.0657 43.6325 64.6203 43.9487L72.1981 48.296C72.5194 48.4803 72.7802 48.329 72.7802 47.9578L72.7582 41.32Z" fill="#455A64"/>
<path d="M64.7824 35.0938L73.3926 40.0818C73.6397 40.2247 73.7935 40.4915 73.7935 40.7747L73.8182 48.0257L73.6864 48.1027L73.6617 40.7747C73.6617 40.5355 73.5327 40.3127 73.3267 40.1945L64.6506 35.168L64.7824 35.0938Z" fill="#BA68C8"/>
<path opacity="0.2" d="M73.6862 40.376C73.7548 40.497 73.7933 40.6344 73.796 40.7774L73.8207 48.0285L73.6889 48.1055L73.6642 40.7774C73.6642 40.6592 73.6313 40.5437 73.5736 40.442L73.6862 40.376Z" fill="black"/>
<path opacity="0.2" d="M73.5737 40.4428C73.516 40.341 73.4309 40.2558 73.3293 40.1953L64.6532 35.1688L64.7822 35.0918L73.3925 40.0798C73.516 40.1513 73.6148 40.253 73.6862 40.374" fill="black"/>
<path d="M67.838 35.9857L67.8407 37.0774L67.4152 37.3248L67.4097 35.8757C67.4097 35.8015 67.4618 35.7712 67.525 35.807L67.838 35.9857Z" fill="#BA68C8"/>
<path opacity="0.4" d="M67.838 35.9857L67.8407 37.0774L67.4152 37.3248L67.4097 35.8757C67.4097 35.8015 67.4618 35.7712 67.525 35.807L67.838 35.9857Z" fill="black"/>
<path d="M70.8363 37.0533L70.8418 38.8186L70.4354 39.0551L70.1609 38.8983L70.1554 37.4492C70.1554 37.375 70.1032 37.2842 70.0373 37.2457L67.9589 36.0524L67.5278 35.8049C67.4619 35.7691 67.4125 35.7966 67.4125 35.8736L67.418 37.3227L67.1434 37.166L67.1379 35.4007C67.1379 35.3924 67.1379 35.3842 67.1407 35.3787C67.1489 35.3099 67.1983 35.2329 67.256 35.1999L67.429 35.0982C67.4921 35.0597 67.5965 35.0597 67.6624 35.0982L70.7237 36.8525C70.7841 36.8883 70.8363 36.979 70.8363 37.0533Z" fill="#BA68C8"/>
<path opacity="0.2" d="M70.4299 37.2895L70.4354 39.0548L70.1609 38.8981L70.1554 37.449C70.1554 37.3747 70.1032 37.284 70.0373 37.2455L67.9589 36.0521L67.5278 35.8047C67.4619 35.7689 67.4125 35.7964 67.4125 35.8734L67.418 37.3225L67.1434 37.1658L67.1379 35.4004C67.1379 35.3922 67.1379 35.3839 67.1407 35.3784C67.1517 35.3207 67.1983 35.3015 67.256 35.3345L70.3173 37.0888C70.3777 37.1245 70.4299 37.2153 70.4299 37.2895Z" fill="black"/>
<path d="M88.007 62.7141V68.6645C88.0097 69.5225 88.7593 70.3776 90.2501 71.0321C93.2401 72.3437 98.0888 72.3437 101.079 71.0321C102.575 70.3749 103.319 69.517 103.319 68.659V62.7141C103.336 61.8452 102.592 60.9735 101.079 60.3109C98.0888 58.9992 93.2401 58.9992 90.2501 60.3109C88.7346 60.9735 87.9905 61.8452 88.007 62.7141Z" fill="#37474F"/>
<path d="M88.007 62.7141C87.9905 61.8452 88.7345 60.9736 90.2474 60.3109C93.2373 58.9992 98.0861 58.9992 101.076 60.3109C102.589 60.9736 103.333 61.8452 103.316 62.7141V66.5115C103.316 64.8672 102.773 65.0019 101.005 66.0056C98.3167 67.5289 96.3756 69.187 93.4185 70.0587C90.975 70.7791 88.8608 69.077 88.0015 68.1778L88.007 62.7141Z" fill="#263238"/>
<path d="M88.0071 65.8629V66.5366C88.0098 67.3918 88.7594 68.2497 90.2502 68.9041C93.2402 70.2157 98.0889 70.2157 101.079 68.9041C102.586 68.2442 103.33 67.3753 103.319 66.5119V65.8574C103.319 66.7153 102.572 67.576 101.079 68.2304C98.0889 69.5421 93.2402 69.5421 90.2502 68.2304C88.7566 67.576 88.0098 66.7208 88.0071 65.8629Z" fill="#BA68C8"/>
<path d="M107.693 60.6767L95.6618 53.7227L83.6306 60.6767V61.6254L95.6618 68.5795L107.693 61.6254V60.6767Z" fill="#37474F"/>
<path opacity="0.2" d="M95.6617 68.5795V67.6336L107.693 60.6768V61.6254L95.6617 68.5795Z" fill="white"/>
<path opacity="0.2" d="M95.6617 67.6336L107.52 60.9572L107.693 61.6254V60.6768L95.6617 67.6336Z" fill="white"/>
<path d="M95.6618 53.7227L83.6306 60.6767L95.6618 67.6335L107.693 60.6767L95.6618 53.7227Z" fill="#455A64"/>
<path d="M89.2128 66.0922C89.21 66.0125 89.1743 64.1619 89.3555 63.6367C89.5367 63.1115 90.2204 62.5753 91.6481 61.8521C93.2351 61.0465 94.6902 60.7055 94.8522 60.667L94.9126 60.931C94.7561 60.9667 93.3284 61.3022 91.7717 62.0914C90.4318 62.7733 89.7646 63.2765 89.6109 63.7247C89.4736 64.1234 89.4736 65.5643 89.4846 66.0867L89.2128 66.0922Z" fill="#BA68C8"/>
<path opacity="0.8" d="M89.2128 66.0922C89.21 66.0125 89.1743 64.1619 89.3555 63.6367C89.5367 63.1115 90.2204 62.5753 91.6481 61.8521C93.2351 61.0465 94.6902 60.7055 94.8522 60.667L94.9126 60.931C94.7561 60.9667 93.3284 61.3022 91.7717 62.0914C90.4318 62.7733 89.7646 63.2765 89.6109 63.7247C89.4736 64.1234 89.4736 65.5643 89.4846 66.0867L89.2128 66.0922Z" fill="white"/>
<path d="M90.7751 71.7498C90.7751 70.364 90.5445 67.8837 89.8224 67.166H88.8669C88.1421 67.8864 87.9142 70.3667 87.9142 71.7498C87.9142 71.9616 88.0542 72.1733 88.3343 72.3355C88.6143 72.4978 88.9795 72.5775 89.3474 72.5775C89.7153 72.5775 90.0805 72.4978 90.3605 72.3355C90.6351 72.1733 90.7751 71.9616 90.7751 71.7498Z" fill="#BA68C8"/>
<path opacity="0.5" d="M90.7751 71.7498C90.7751 70.364 90.5445 67.8837 89.8224 67.166H88.8669C88.1421 67.8864 87.9142 70.3667 87.9142 71.7498C87.9142 71.9616 88.0542 72.1733 88.3343 72.3355C88.6143 72.4978 88.9795 72.5775 89.3474 72.5775C89.7153 72.5775 90.0805 72.4978 90.3605 72.3355C90.6351 72.1733 90.7751 71.9616 90.7751 71.7498Z" fill="white"/>
<path opacity="0.6" d="M88.8645 67.166C88.8096 67.221 88.7574 67.2843 88.7107 67.3585C88.8919 67.551 89.172 67.6005 89.452 67.6252C89.7101 67.6472 90.0204 67.8727 90.1439 69.0083C90.2675 70.144 90.5091 71.5958 90.0588 72.0358C89.6085 72.4757 88.6064 72.4702 88.0792 72.143C88.1451 72.2118 88.2275 72.2778 88.3291 72.3383C88.6091 72.5005 88.9743 72.5802 89.3422 72.5802C89.7101 72.5802 90.0753 72.5005 90.3553 72.3383C90.6354 72.176 90.7754 71.9643 90.7754 71.7526C90.7754 70.3667 90.5448 67.8864 89.8227 67.1688H88.8645V67.166Z" fill="#BA68C8"/>
<path d="M90.0614 66.661C90.0614 67.057 89.7401 67.3787 89.3448 67.3787C88.9494 67.3787 88.6282 67.057 88.6282 66.661C88.6282 66.2651 88.9494 65.9434 89.3448 65.9434C89.7401 65.9434 90.0614 66.2651 90.0614 66.661Z" fill="#BA68C8"/>
<path opacity="0.5" d="M90.0614 66.661C90.0614 67.057 89.7401 67.3787 89.3448 67.3787C88.9494 67.3787 88.6282 67.057 88.6282 66.661C88.6282 66.2651 88.9494 65.9434 89.3448 65.9434C89.7401 65.9434 90.0614 66.2651 90.0614 66.661Z" fill="white"/>
<path opacity="0.4" d="M89.7593 66.0791C89.9378 66.2688 89.9652 66.7638 89.5836 67.014C89.2047 67.2615 88.8093 67.069 88.6583 66.8765C88.7489 67.168 89.018 67.3797 89.3392 67.3797C89.7346 67.3797 90.0558 67.058 90.0558 66.662C90.0613 66.4201 89.9405 66.2111 89.7593 66.0791Z" fill="#BA68C8"/>
<path d="M94.6954 60.3265C94.6954 60.1835 94.7888 60.0405 94.9782 59.9305C95.3544 59.7133 95.9667 59.7133 96.3455 59.9305C96.535 60.0405 96.6283 60.1835 96.6283 60.3265C96.6283 60.3787 96.6283 60.5904 96.6283 60.6427C96.6283 60.7857 96.535 60.9287 96.3455 61.0386C95.9667 61.2559 95.3571 61.2559 94.9782 61.0386C94.7888 60.9287 94.6954 60.7857 94.6954 60.6427C94.6954 60.5877 94.6954 60.3787 94.6954 60.3265Z" fill="#263238"/>
<path d="M96.3456 60.7197C96.7245 60.5024 96.7245 60.1477 96.3456 59.9305C95.9667 59.7133 95.3572 59.7133 94.9783 59.9305C94.5994 60.1477 94.5994 60.5024 94.9783 60.7224C95.3572 60.9397 95.9694 60.9396 96.3456 60.7197Z" fill="#37474F"/>
<path d="M71.597 80.7832L60.6942 86.9481L43.9515 77.3268L54.8516 71.1592L71.597 80.7832Z" fill="#BA68C8"/>
<path opacity="0.6" d="M71.597 80.7832L60.6942 86.9481L43.9515 77.3268L54.8516 71.1592L71.597 80.7832Z" fill="black"/>
<path d="M60.5758 86.496L71.1107 80.5016C70.8499 79.7591 70.8691 79.5309 71.1656 78.541L60.6939 84.4749C60.6939 84.4777 60.5017 84.4639 60.5758 86.496Z" fill="#F5F5F5"/>
<path d="M61.2046 83.6639C60.6719 83.9691 60.2408 84.7115 60.2408 85.3247V86.6226C60.2408 87.233 60.6719 87.4805 61.2046 87.1753L71.5939 81.2634V80.7822L61.3363 86.5813C61.0179 86.7656 60.7598 86.6171 60.7598 86.2486L60.768 85.0937C60.768 84.728 61.0261 84.2826 61.3473 84.0983L71.5939 78.2964V77.752L61.2046 83.6639Z" fill="#BA68C8"/>
<path opacity="0.5" d="M61.2046 83.6639C60.6719 83.9691 60.2408 84.7115 60.2408 85.3247V86.6226C60.2408 87.233 60.6719 87.4805 61.2046 87.1753L71.5939 81.2634V80.7822L61.3363 86.5813C61.0179 86.7656 60.7598 86.6171 60.7598 86.2486L60.768 85.0937C60.768 84.728 61.0261 84.2826 61.3473 84.0983L71.5939 78.2964V77.752L61.2046 83.6639Z" fill="black"/>
<path d="M71.5942 77.7551L54.8515 68.1338L44.4621 74.043C43.9295 74.3482 43.4984 75.0934 43.4984 75.7038V77.0017C43.4984 77.3069 43.6055 77.5214 43.7812 77.6204L60.5239 87.2417C60.3482 87.1399 60.2411 86.9255 60.2411 86.623L60.2384 85.3251C60.2384 84.7147 60.6694 83.9695 61.2021 83.6643L71.5942 77.7551Z" fill="#BA68C8"/>
<path opacity="0.35" d="M71.5942 77.7551L54.8515 68.1338L44.4621 74.043C43.9295 74.3482 43.4984 75.0934 43.4984 75.7038V77.0017C43.4984 77.3069 43.6055 77.5214 43.7812 77.6204L60.5239 87.2417C60.3482 87.1399 60.2411 86.9255 60.2411 86.623L60.2384 85.3251C60.2384 84.7147 60.6694 83.9695 61.2021 83.6643L71.5942 77.7551Z" fill="black"/>
<path d="M60.524 84.3801C60.351 84.6798 60.2412 85.018 60.2412 85.3233L60.2439 86.6211C60.2439 86.9263 60.351 87.1408 60.5267 87.2398L43.784 77.6185C43.6083 77.5168 43.5012 77.3023 43.5012 76.9998V75.7019C43.5012 75.3967 43.6083 75.0585 43.784 74.7588L60.524 84.3801Z" fill="#BA68C8"/>
<path opacity="0.45" d="M60.524 84.3801C60.351 84.6798 60.2412 85.018 60.2412 85.3233L60.2439 86.6211C60.2439 86.9263 60.351 87.1408 60.5267 87.2398L43.784 77.6185C43.6083 77.5168 43.5012 77.3023 43.5012 76.9998V75.7019C43.5012 75.3967 43.6083 75.0585 43.784 74.7588L60.524 84.3801Z" fill="black"/>
<path d="M46.0434 76.0449C45.7304 77.4033 45.7359 77.9312 46.0434 78.9266L46.8396 79.3886C46.5321 78.3932 46.5266 77.8625 46.8396 76.5069L46.0434 76.0449Z" fill="#BA68C8"/>
<path d="M57.0257 82.3643C56.7127 83.7226 56.7182 84.2341 57.0257 85.2295L57.8219 85.6914C57.5144 84.696 57.5089 84.1818 57.8219 82.8262L57.0257 82.3643Z" fill="#BA68C8"/>
<path d="M73.5543 77.8741L62.6515 84.039L45.9088 74.4177L56.8116 68.25L73.5543 77.8741Z" fill="#BA68C8"/>
<path opacity="0.4" d="M73.5543 77.8741L62.6515 84.039L45.9088 74.4177L56.8116 68.25L73.5543 77.8741Z" fill="black"/>
<path d="M62.5339 83.5886L73.0688 77.5942C72.808 76.849 72.8272 76.5163 73.1237 75.5264L62.652 81.4603C62.652 81.4603 62.4625 81.5538 62.5339 83.5886Z" fill="#F5F5F5"/>
<path d="M63.1624 80.65C62.6298 80.9552 62.1987 81.6977 62.1987 82.3109V83.7132C62.1987 84.3237 62.6298 84.5711 63.1624 84.2659L73.5518 78.354V77.8728L63.2942 83.672C62.9757 83.8562 62.7176 83.7077 62.7176 83.3393L62.7259 82.0771C62.7259 81.7114 62.984 81.2632 63.3052 81.0817L73.5518 75.2798V74.7354L63.1624 80.65Z" fill="#BA68C8"/>
<path opacity="0.25" d="M63.1624 80.65C62.6298 80.9552 62.1987 81.6977 62.1987 82.3109V83.7132C62.1987 84.3237 62.6298 84.5711 63.1624 84.2659L73.5518 78.354V77.8728L63.2942 83.672C62.9757 83.8562 62.7176 83.7077 62.7176 83.3393L62.7259 82.0771C62.7259 81.7114 62.984 81.2632 63.3052 81.0817L73.5518 75.2798V74.7354L63.1624 80.65Z" fill="black"/>
<path d="M73.555 74.7405L56.8123 65.1191L46.4229 71.0283C45.8903 71.3335 45.4592 72.0787 45.4592 72.6892V74.0943C45.4592 74.3995 45.5663 74.614 45.742 74.713L62.4847 84.3343C62.309 84.2325 62.2019 84.018 62.2019 83.7156L62.1992 82.3105C62.1992 81.7 62.6302 80.9548 63.1629 80.6496L73.555 74.7405Z" fill="#BA68C8"/>
<path d="M62.4815 81.3655C62.3085 81.6652 62.1987 82.0034 62.1987 82.3086L62.2014 83.7137C62.2014 84.0189 62.3085 84.2334 62.4842 84.3324L45.7415 74.7111C45.5658 74.6094 45.4587 74.3949 45.4587 74.0924V72.6873C45.4587 72.3821 45.5658 72.0439 45.7415 71.7441L62.4815 81.3655Z" fill="#BA68C8"/>
<path opacity="0.15" d="M62.4815 81.3655C62.3085 81.6652 62.1987 82.0034 62.1987 82.3086L62.2014 83.7137C62.2014 84.0189 62.3085 84.2334 62.4842 84.3324L45.7415 74.7111C45.5658 74.6094 45.4587 74.3949 45.4587 74.0924V72.6873C45.4587 72.3821 45.5658 72.0439 45.7415 71.7441L62.4815 81.3655Z" fill="black"/>
<path d="M48.0014 73.0264C47.6884 74.3847 47.6939 75.0199 48.0014 76.0153L48.7976 76.4773C48.4901 75.4819 48.4846 74.8439 48.7976 73.4883L48.0014 73.0264Z" fill="#BA68C8"/>
<path d="M58.9838 79.3564C58.6708 80.7148 58.6763 81.328 58.9838 82.3234L59.78 82.7854C59.4725 81.79 59.467 81.1713 59.78 79.8129L58.9838 79.3564Z" fill="#BA68C8"/>
<g opacity="0.4">
<path d="M48.0014 73.0264C47.6884 74.3847 47.6939 75.0199 48.0014 76.0153L48.7976 76.4773C48.4901 75.4819 48.4846 74.8439 48.7976 73.4883L48.0014 73.0264Z" fill="white"/>
<path d="M58.9838 79.3564C58.6708 80.7148 58.6763 81.328 58.9838 82.3234L59.78 82.7854C59.4725 81.79 59.467 81.1713 59.78 79.8129L58.9838 79.3564Z" fill="white"/>
</g>
<path d="M72.0827 72.7973L71.616 72.5471L72.0415 72.4453C72.1266 72.5443 72.1321 72.6653 72.0827 72.7973Z" fill="#BA68C8"/>
<path opacity="0.5" d="M72.0827 72.7973L71.616 72.5471L72.0415 72.4453C72.1266 72.5443 72.1321 72.6653 72.0827 72.7973Z" fill="black"/>
<path d="M59.7362 79.0235C59.997 79.1747 60.4226 79.1747 60.6834 79.0235L71.3226 72.8696L55.3954 63.8092L55.022 63.5947L44.3828 69.5974C44.1219 69.7486 44.1219 69.9961 44.3828 70.1446L59.7362 79.0235Z" fill="#37474F"/>
<path d="M63.731 67.5488L67.4404 69.6881L69.8428 68.2995L72.6378 69.9163C72.6378 69.9163 72.6378 71.5387 72.6378 71.7834C72.6378 72.0281 72.3632 72.3774 72.2644 72.3196C72.2644 72.3196 72.0447 72.3636 71.729 72.5093C71.4132 72.6551 70.9575 73.0813 70.9575 73.0813L62.4324 68.3023L63.731 67.5488Z" fill="black"/>
<path d="M71.1057 70.1422V72.1687C71.1167 72.1605 71.1277 72.155 71.1387 72.1495C71.2512 72.0835 71.4215 72.0065 71.5917 72.0065C71.7098 72.0065 71.8113 72.0147 71.891 72.078V69.6885L71.1057 70.1422Z" fill="#37474F"/>
<path d="M70.5842 72.8642C70.5897 72.7432 70.6391 72.625 70.7188 72.5177C70.7572 72.4655 70.8011 72.4132 70.8506 72.3665C70.8643 72.3527 70.8808 72.339 70.8945 72.3225C70.9137 72.306 70.9329 72.2895 70.9521 72.273C70.9686 72.262 70.9851 72.2483 71.0016 72.2373C71.0373 72.2125 71.0729 72.1878 71.1059 72.1658V70.1475L70.587 70.4499V70.4389L70.5842 72.8642Z" fill="#E0E0E0"/>
<path d="M60.2111 76.4413V78.7538C60.3264 78.7538 60.4417 78.7291 60.5268 78.6796L61.6937 78.0059L70.5839 72.8639L70.5867 70.4414L60.2111 76.4413Z" fill="#EBEBEB"/>
<path d="M44.6517 67.7539V69.5C44.6517 69.7007 44.7945 69.9482 44.9675 70.0472L58.7312 78.0049L59.8981 78.6786C59.9832 78.7308 60.0985 78.7528 60.2138 78.7528V76.7015L44.6517 67.7539Z" fill="#F5F5F5"/>
<path d="M55.3951 60.8039L71.3224 70.0155C71.3224 70.0155 71.3224 70.1117 71.3224 70.23C71.3224 70.3482 71.4871 70.3922 71.693 70.2739C71.899 70.1557 72.0664 70.0072 72.0664 69.8037L72.0857 69.6003L55.8564 60.2182L55.7905 60.1797C55.774 60.2099 55.7631 60.2457 55.7631 60.2787V60.3777C55.7658 60.4932 55.6011 60.6829 55.3951 60.8039Z" fill="#37474F"/>
<path d="M60.6832 76.1671L71.0891 70.1506C71.2208 70.0819 71.3417 70.0269 71.3938 70.0517L71.3252 70.0132L55.3979 60.8016C55.3979 60.8016 55.3046 60.7466 55.2112 60.6943C55.1096 60.6338 54.8845 60.6668 54.7088 60.7686L44.3853 66.7382C44.1245 66.8895 44.1245 67.1369 44.3853 67.2854L59.7387 76.1643C59.9968 76.3183 60.4224 76.3183 60.6832 76.1671Z" fill="#455A64"/>
<path d="M55.7932 60.1771L55.8591 60.2156L72.0884 69.5977C72.0884 69.5977 72.0993 69.573 72.1241 69.5537C72.1378 69.5455 72.157 69.5345 72.179 69.5235L72.297 69.4547C72.341 69.43 72.3904 69.3997 72.4398 69.3695C72.5084 69.331 72.5688 69.3392 72.6238 69.386C72.632 69.3887 72.6375 69.3942 72.643 69.4025C72.6622 69.4217 72.6787 69.4437 72.6924 69.4712C72.7089 69.4987 72.7226 69.529 72.7336 69.562C72.7473 69.595 72.7583 69.6307 72.7665 69.6692C72.7748 69.7105 72.783 69.749 72.7912 69.7929C72.7967 69.8177 72.7995 69.8424 72.7995 69.8672C72.8022 69.8864 72.8022 69.9057 72.805 69.9277C72.8077 69.9744 72.8105 70.0212 72.8105 70.0707V69.6142C72.8105 69.3612 72.5963 69.034 72.3355 68.8828L56.9821 60.0039C56.7185 59.8527 56.3423 59.8279 56.1364 59.9434L55.9442 60.0562L55.936 60.0589C55.9223 60.0672 55.8893 60.0864 55.8536 60.1056C55.8536 60.1056 55.8509 60.1056 55.8509 60.1084C55.8289 60.1249 55.8069 60.1469 55.7932 60.1771Z" fill="#455A64"/>
<path d="M60.6829 79.0245L61.3254 78.6506L70.9597 73.0796C70.9625 72.9586 71.0119 72.8404 71.0915 72.7331C71.2013 72.5792 71.3661 72.4472 71.5116 72.3619C71.6242 72.2959 71.7944 72.2189 71.9646 72.2189C72.0827 72.2189 72.1843 72.2547 72.2639 72.3179C72.327 72.2327 72.4396 71.911 72.4396 71.5205H72.8048C72.8048 72.0237 72.64 72.5297 72.4341 72.6479L72.2502 72.7551C72.1458 72.8156 72.0635 72.8184 72.0635 72.7634V72.6644C72.0635 72.5544 71.8987 72.5599 71.6901 72.6782C71.4869 72.7964 71.3194 72.9806 71.3194 73.0906V73.1896C71.3194 73.2473 71.1766 73.3711 71.0037 73.4728L61.6878 78.8595L60.6802 79.4425C60.6802 79.4425 60.6774 79.4425 60.6774 79.4452C60.5457 79.5195 60.3754 79.558 60.2052 79.558V79.1373C60.3809 79.1373 60.5539 79.1015 60.6829 79.0245Z" fill="#263238"/>
<path d="M60.6804 76.1698L60.6831 76.1671L61.3256 75.7931L68.725 71.5173L71.0862 70.1507C71.2537 70.0517 71.391 70.0159 71.3992 70.0682C71.4019 70.0709 71.402 70.0709 71.402 70.0737V70.1809C71.402 70.2991 71.5667 70.2991 71.7726 70.1809C71.973 70.0654 72.0609 69.9224 72.0636 69.8069V69.6887C72.0636 69.6282 72.0883 69.565 72.1186 69.5485C72.1323 69.5402 72.1542 69.5292 72.1735 69.5182C72.2064 69.499 72.2476 69.477 72.2915 69.4495C72.3355 69.4247 72.3849 69.3945 72.4343 69.3642C72.5029 69.3257 72.5633 69.334 72.6183 69.3807C72.6265 69.3835 72.632 69.389 72.6375 69.3972C72.6512 69.411 72.6622 69.4247 72.6704 69.4412C72.6787 69.4495 72.6814 69.455 72.6869 69.466C72.7034 69.4935 72.7171 69.5237 72.7281 69.5567C72.7418 69.5897 72.7528 69.6255 72.761 69.664C72.7693 69.7052 72.7775 69.7437 72.7857 69.7877C72.7912 69.8124 72.794 69.8372 72.794 69.8619C72.7967 69.8812 72.7967 69.9004 72.7995 69.9224C72.8022 69.9692 72.805 70.0159 72.805 70.0654V71.5173H72.4398V70.0654C72.4398 70.0269 72.437 69.9884 72.437 69.9527L72.4288 69.8619C72.4288 69.8592 72.4288 69.8564 72.4261 69.8537C72.3931 70.1452 72.1158 70.4036 71.8742 70.5411C71.7671 70.6044 71.5996 70.6786 71.4294 70.6786C71.3031 70.6786 71.1878 70.6319 71.1027 70.5576L71.0697 70.5769C71.0478 70.5906 71.0285 70.6016 71.0066 70.6154L61.6908 76.0021L60.6831 76.585C60.6831 76.585 60.6804 76.585 60.6804 76.5878C60.6776 76.5905 60.6776 76.5905 60.6721 76.5905C60.5431 76.662 60.3756 76.6978 60.2081 76.6978V76.2771C60.3976 76.2826 60.5486 76.2386 60.6804 76.1698Z" fill="#263238"/>
<path d="M44.1874 67.0098V67.4387C44.1874 67.5377 44.2505 67.634 44.3741 67.7082L44.3823 67.7109L58.7281 76.0041L59.7357 76.5871V76.5898C59.7357 76.5898 59.7385 76.5871 59.7385 76.5898C59.8703 76.6641 60.0405 76.7026 60.2107 76.7026V76.2819C60.0405 76.2819 59.8675 76.2461 59.7357 76.1691L59.096 75.7979H59.0933L44.3823 67.2902C44.245 67.2077 44.1901 67.1115 44.1874 67.0098Z" fill="#37474F"/>
<path d="M44.1874 69.8633V70.2922C44.1874 70.3912 44.2505 70.4875 44.3741 70.5617L44.3823 70.5645L58.7281 78.8576L59.7357 79.4406V79.4433C59.7357 79.4433 59.7385 79.4406 59.7385 79.4433C59.8703 79.5176 60.0405 79.5561 60.2107 79.5561V79.1354C60.0405 79.1354 59.8675 79.0996 59.7357 79.0226L59.096 78.6514H59.0933L44.3823 70.1438C44.245 70.0613 44.1901 69.9678 44.1874 69.8633Z" fill="#37474F"/>
<path d="M42.3563 79.8601L39.7947 79.3569C39.7205 79.3432 39.6684 79.4312 39.7206 79.4889L41.4585 81.4604L42.3563 79.8601Z" fill="#FFA8A7"/>
<path d="M39.7207 79.4889C39.6713 79.4312 39.7207 79.3432 39.7948 79.3569L40.2945 79.4559C40.1545 79.5439 40.0749 79.7006 40.0886 79.8656L40.0914 79.9096L39.7207 79.4889Z" fill="#263238"/>
<path d="M53.575 88.4177L53.3664 88.2967L53.1138 88.1537L41.4614 81.4609C41.3653 81.1832 41.412 80.8779 41.5328 80.6112C41.714 80.2042 42.0682 79.8825 42.3592 79.8633L54.0061 86.5534L54.4893 86.8311C54.1653 86.6661 53.2538 88.25 53.575 88.4177Z" fill="#455A64"/>
<path d="M52.7759 87.9609L52.3092 87.6915C52.1719 87.6172 52.2488 87.279 52.4108 86.927C52.6249 86.4596 53.045 86.0086 53.229 86.1049L53.5749 86.3029L53.6957 86.3771C53.5118 86.2809 53.0917 86.7318 52.8775 87.1993C52.7238 87.5347 52.6441 87.8647 52.7622 87.9527C52.765 87.9554 52.7704 87.9582 52.7759 87.9609Z" fill="#EBEBEB"/>
<path d="M52.6579 87.8914C52.3367 87.7209 53.2564 86.1343 53.5777 86.3048L54.0472 86.5743C53.7259 86.4038 52.8062 87.9904 53.1274 88.1581L52.6579 87.8914Z" fill="#BA68C8"/>
<path d="M53.575 88.417L53.111 88.153C52.7953 87.988 53.6684 86.4509 54.0033 86.5527C54.0088 86.5527 54.0171 86.5554 54.0225 86.5609L54.4866 86.8304C54.1653 86.6654 53.2538 88.2493 53.575 88.417Z" fill="#EBEBEB"/>
<path opacity="0.15" d="M39.7069 79.4004L39.792 79.3564L41.6507 80.3738L53.8275 87.3692C53.8467 87.3417 53.8604 87.3389 53.8714 87.3582C53.5996 87.7844 53.3909 88.3206 53.5722 88.4168L53.3635 88.2958L53.1109 88.1528L41.4586 81.46L39.7206 79.4884C39.6959 79.4609 39.6959 79.4279 39.7069 79.4004Z" fill="black"/>
<path d="M55.538 89.5419L53.5749 88.4172C53.4377 88.3457 53.5145 88.0103 53.671 87.6611C53.8824 87.1936 54.3025 86.7371 54.4865 86.8306C54.4865 86.8306 54.4865 86.8306 54.4892 86.8306L56.4578 87.9608C56.8477 88.1863 56.488 89.0387 56.0542 89.4181C55.8922 89.5584 55.711 89.6216 55.538 89.5419Z" fill="#F28F8F"/>
<path opacity="0.1" d="M55.4198 88.9319C55.5324 88.4892 55.892 88.0548 56.2215 87.9613C56.3423 87.9283 56.4439 87.9448 56.5153 87.9998C56.8118 88.2747 56.4659 89.0557 56.054 89.4159C55.8948 89.5561 55.7163 89.6194 55.5488 89.5451C55.4006 89.4599 55.3429 89.2316 55.4198 88.9319Z" fill="black"/>
<path d="M97.4823 93.1964C93.7346 91.0296 87.6531 91.0296 83.9053 93.1964C82.8153 93.8261 82.0438 94.5712 81.5853 95.3604C81.2558 95.9296 81.0911 96.5263 81.0911 97.1202V99.65C81.0911 101.072 82.0273 102.493 83.9026 103.577C87.6531 105.746 93.7318 105.743 97.4796 103.577C99.3548 102.493 100.291 101.072 100.291 99.6527V97.1175C100.291 95.6986 99.3548 94.2798 97.4823 93.1964ZM96.9414 96.6638C97.831 97.178 98.4707 97.7664 98.8386 98.3879C98.4625 99.0148 97.809 99.6115 96.9414 100.112C95.2886 101.066 93.0701 101.594 90.6924 101.594C88.3147 101.594 86.0963 101.069 84.4434 100.112C83.5539 99.5978 82.9141 99.0093 82.5462 98.3879C82.9224 97.7609 83.5758 97.167 84.4434 96.6638C86.0963 95.7096 88.3147 95.1817 90.6924 95.1817C93.0701 95.1817 95.2886 95.7069 96.9414 96.6638Z" fill="#BA68C8"/>
<path opacity="0.1" d="M92.8836 105.058V101.437C92.178 101.539 91.445 101.591 90.6927 101.591C90.5471 101.591 90.3989 101.588 90.2561 101.585V105.199C91.1347 105.221 92.0188 105.174 92.8836 105.058ZM95.2806 100.862C94.877 101.003 94.4569 101.124 94.0203 101.225V104.86C94.4514 104.77 94.8715 104.66 95.2806 104.53V100.862Z" fill="white"/>
<path opacity="0.25" d="M81.0938 97.1309V99.6524C81.0938 101.074 82.03 102.496 83.9053 103.579C83.9766 103.62 84.0508 103.659 84.1249 103.7V101.17C84.0508 101.129 83.9794 101.09 83.908 101.046C82.0355 99.9658 81.0965 98.547 81.0938 97.1309Z" fill="black"/>
<path d="M96.9412 94.1315C95.2883 93.1774 93.0699 92.6494 90.6922 92.6494C88.3145 92.6494 86.0961 93.1746 84.4432 94.1315C83.5564 94.6457 82.8919 95.2562 82.5185 95.9024C82.0463 96.7245 82.0683 97.5824 82.546 98.3881C82.9221 97.7612 83.5756 97.1672 84.4432 96.664C86.0961 95.7099 88.3145 95.1819 90.6922 95.1819C93.0699 95.1819 95.2883 95.7071 96.9412 96.664C97.8308 97.1782 98.4705 97.7667 98.8384 98.3881C98.8494 98.3716 98.8576 98.3579 98.8659 98.3414C99.706 96.8868 98.9839 95.3139 96.9412 94.1315Z" fill="#BA68C8"/>
<path opacity="0.25" d="M96.9412 94.1315C95.2883 93.1774 93.0699 92.6494 90.6922 92.6494C88.3145 92.6494 86.0961 93.1746 84.4432 94.1315C83.5564 94.6457 82.8919 95.2562 82.5185 95.9024C82.0463 96.7245 82.0683 97.5824 82.546 98.3881C82.9221 97.7612 83.5756 97.1672 84.4432 96.664C86.0961 95.7099 88.3145 95.1819 90.6922 95.1819C93.0699 95.1819 95.2883 95.7071 96.9412 96.664C97.8308 97.1782 98.4705 97.7667 98.8384 98.3881C98.8494 98.3716 98.8576 98.3579 98.8659 98.3414C99.706 96.8868 98.9839 95.3139 96.9412 94.1315Z" fill="black"/>
<path opacity="0.3" d="M96.9388 95.3083C95.2859 94.3541 93.0675 93.8262 90.6898 93.8262C88.3121 93.8262 86.0937 94.3514 84.4408 95.3083C83.554 95.8225 82.8895 96.4329 82.5161 97.0791C82.3981 97.2853 82.3102 97.4916 82.2526 97.7006C82.3157 97.9315 82.4118 98.1598 82.5463 98.3852C82.9143 99.0067 83.554 99.5951 84.4436 100.109C86.0964 101.063 88.3149 101.591 90.6926 101.591C93.0702 101.591 95.2887 101.066 96.9415 100.109C97.8064 99.6089 98.4626 99.0122 98.8388 98.3852C98.8497 98.3687 98.858 98.355 98.8662 98.3385C98.9843 98.1323 99.0721 97.9233 99.127 97.7143C98.8964 96.8454 98.1496 96.0095 96.9388 95.3083Z" fill="white"/>
<path d="M97.4796 93.1964C93.7291 91.0296 87.6531 91.0296 83.9026 93.1964C80.1521 95.3632 80.1521 98.8801 83.9026 101.047C87.6531 103.214 93.7291 103.214 97.4796 101.047C101.23 98.8773 101.23 95.3632 97.4796 93.1964ZM90.6925 92.6492C93.0702 92.6492 95.2913 93.1744 96.9415 94.1313C98.9842 95.3137 99.7035 96.8865 98.8661 98.3411C98.8579 98.3549 98.8497 98.3714 98.8387 98.3879C98.4625 99.0148 97.8091 99.6115 96.9415 100.112C95.2886 101.066 93.0702 101.594 90.6925 101.594C88.3148 101.594 86.0963 101.069 84.4435 100.112C83.5539 99.5978 82.9142 99.0093 82.5463 98.3879C82.0685 97.5822 82.0438 96.7243 82.5188 95.9021C82.8895 95.2559 83.5566 94.6455 84.4435 94.1313C86.0936 93.1771 88.3148 92.6492 90.6925 92.6492Z" fill="#BA68C8"/>
<g opacity="0.3">
<path d="M97.4796 93.1964C93.7291 91.0296 87.6531 91.0296 83.9026 93.1964C80.1521 95.3632 80.1521 98.8801 83.9026 101.047C87.6531 103.214 93.7291 103.214 97.4796 101.047C101.23 98.8773 101.23 95.3632 97.4796 93.1964ZM90.6925 92.6492C93.0702 92.6492 95.2913 93.1744 96.9415 94.1313C98.9842 95.3137 99.7035 96.8865 98.8661 98.3411C98.8579 98.3549 98.8497 98.3714 98.8387 98.3879C98.4625 99.0148 97.8091 99.6115 96.9415 100.112C95.2886 101.066 93.0702 101.594 90.6925 101.594C88.3148 101.594 86.0963 101.069 84.4435 100.112C83.5539 99.5978 82.9142 99.0093 82.5463 98.3879C82.0685 97.5822 82.0438 96.7243 82.5188 95.9021C82.8895 95.2559 83.5566 94.6455 84.4435 94.1313C86.0936 93.1771 88.3148 92.6492 90.6925 92.6492Z" fill="white"/>
</g>
<g opacity="0.3">
<path d="M89.984 102.659C88.6167 102.582 87.2549 102.351 85.9535 101.922C85.3055 101.702 84.6713 101.438 84.0755 101.103C83.477 100.773 82.9169 100.371 82.4309 99.8927C81.9504 99.4142 81.5358 98.8505 81.3134 98.2043C81.0855 97.5637 81.0608 96.8515 81.2558 96.1998C81.4425 95.5426 81.8241 94.9542 82.2936 94.4592C82.7576 93.956 83.3177 93.5463 83.9025 93.1943C83.3095 93.5353 82.7411 93.934 82.2634 94.4317C81.7857 94.9239 81.3958 95.5179 81.2009 96.1833C81.0004 96.846 81.0196 97.5719 81.2475 98.2263C81.4699 98.8863 81.8873 99.461 82.3732 99.9477C82.8702 100.429 83.4385 100.828 84.0426 101.158C84.6438 101.49 85.2836 101.754 85.9343 101.969C86.5877 102.18 87.2577 102.34 87.9331 102.455C88.614 102.568 89.2976 102.634 89.984 102.659Z" fill="white"/>
</g>
<g opacity="0.3">
<path d="M98.8662 98.3424C99.0364 98.0509 99.16 97.7265 99.2067 97.3883C99.2533 97.05 99.2149 96.7008 99.1106 96.3736C99.0062 96.0464 98.8278 95.7467 98.6218 95.4745C98.4187 95.1995 98.1688 94.9602 97.9107 94.7375C97.3836 94.3031 96.7933 93.9483 96.1728 93.6651C95.5523 93.3764 94.9043 93.1592 94.2453 92.9887C93.5864 92.8155 92.911 92.7027 92.2328 92.634C91.5547 92.5652 90.871 92.5405 90.1901 92.5625C88.8283 92.6037 87.4665 92.8127 86.1678 93.2472C85.5198 93.4699 84.8911 93.7476 84.3008 94.0996C83.7132 94.4543 83.1614 94.8805 82.7275 95.4277C82.5106 95.6999 82.3322 96.0051 82.2169 96.3379C82.1043 96.6706 82.0576 97.0308 82.1016 97.3828C82.1208 97.5587 82.162 97.732 82.2196 97.897C82.2773 98.0619 82.3487 98.2242 82.4365 98.3754C82.6095 98.6779 82.8319 98.9501 83.0762 99.1921C83.5704 99.676 84.1525 100.053 84.7565 100.363C85.3661 100.671 86.0058 100.916 86.662 101.098C87.3182 101.279 87.9854 101.411 88.6608 101.488C89.3335 101.571 90.0144 101.604 90.6925 101.593C89.339 101.562 87.9854 101.392 86.6922 100.996C86.0442 100.803 85.4182 100.553 84.8197 100.24C84.2266 99.9263 83.6611 99.5468 83.1916 99.0739C82.9582 98.8374 82.7495 98.5734 82.5903 98.2847C82.431 97.9987 82.3157 97.6852 82.28 97.3608C82.2416 97.0363 82.2855 96.7091 82.3898 96.4011C82.4997 96.0931 82.6671 95.8072 82.8758 95.5487C83.2904 95.0317 83.8258 94.6165 84.3996 94.2756C84.9762 93.9346 85.594 93.6651 86.2282 93.4506C87.4994 93.0189 88.8447 92.8045 90.1873 92.7577C91.5327 92.7137 92.8863 92.8347 94.1959 93.1482C94.8494 93.3049 95.4946 93.5139 96.1069 93.7889C96.7219 94.0583 97.3094 94.3993 97.8339 94.8173C98.0947 95.029 98.3418 95.2572 98.5477 95.5239C98.7536 95.7852 98.9376 96.0739 99.0447 96.3929C99.1545 96.7091 99.1984 97.05 99.1627 97.3855C99.1408 97.7182 99.0282 98.0454 98.8662 98.3424Z" fill="white"/>
</g>
<path d="M83.9406 102.364C83.9433 101.929 83.6385 101.399 83.2651 101.179C83.0784 101.069 82.9082 101.058 82.7847 101.129H82.7819L79.5064 103.002H79.5037C79.3801 103.073 79.306 103.224 79.3032 103.442C79.3005 103.876 79.6053 104.407 79.9787 104.627C80.1654 104.737 80.3356 104.748 80.4619 104.676L83.7346 102.807C83.8609 102.735 83.9406 102.584 83.9406 102.364Z" fill="#37474F"/>
<path d="M83.7375 102.807C83.8611 102.735 83.9407 102.584 83.9407 102.364C83.9407 102.199 83.8995 102.023 83.8254 101.853L79.6027 104.272C79.7097 104.421 79.8415 104.547 79.9816 104.627C80.1683 104.737 80.3385 104.748 80.4648 104.677L83.7375 102.807Z" fill="#263238"/>
<path d="M80.5334 104.618C80.5362 104.052 80.1408 103.362 79.6521 103.076C79.4132 102.936 79.1963 102.922 79.0343 103.007L79.0261 103.013L70.5175 107.478L72.1374 110.346L80.2698 105.193C80.4318 105.1 80.5334 104.902 80.5334 104.618Z" fill="#BA68C8"/>
<path opacity="0.1" d="M72.1402 110.342L80.2727 105.189C80.4347 105.099 80.5363 104.898 80.5363 104.615C80.5363 104.309 80.4209 103.971 80.2425 103.68L71.3055 108.863L72.1402 110.342Z" fill="black"/>
<path d="M71.3194 110.258C70.6796 109.884 70.1607 108.98 70.1635 108.234C70.1662 107.492 70.6879 107.192 71.3303 107.566C71.9701 107.94 72.489 108.845 72.4862 109.59C72.4835 110.333 71.9618 110.632 71.3194 110.258Z" fill="#BA68C8"/>
<g opacity="0.2">
<path d="M71.3194 110.258C70.6796 109.884 70.1607 108.98 70.1635 108.234C70.1662 107.492 70.6879 107.192 71.3303 107.566C71.9701 107.94 72.489 108.845 72.4862 109.59C72.4835 110.333 71.9618 110.632 71.3194 110.258Z" fill="black"/>
</g>
<path d="M14.9996 89.9966C14.9996 89.9966 14.9831 90.2688 14.9941 90.4833C15.0024 90.6263 15.0875 90.8435 15.3868 91.1185C15.9084 91.5969 17.1137 91.9159 18.0692 91.7619C18.9066 91.6244 19.2251 91.421 19.6644 91.0057C20.1614 90.5328 20.565 90.0021 20.7681 89.8289C21.0729 89.5704 21.655 89.2569 22.4182 89.0067C23.2227 88.7427 24.7657 88.212 25.4192 87.0104C26.0754 85.8088 25.8008 84.8711 25.8008 84.8711L14.9996 89.9966Z" fill="#263238"/>
<path d="M20.5757 84.1396C18.8515 84.6153 17.1932 87.5823 15.2328 86.6226C15.1257 87.7803 14.7468 88.5502 14.9994 89.9965C15.76 91.1679 17.8082 91.4979 18.9805 90.8352C19.5791 90.42 19.7905 89.9828 20.3753 89.5373C20.8366 89.1854 21.3527 88.9901 21.9293 88.7922C22.4592 88.6107 23.3625 88.2312 23.8018 87.9892C25.7677 86.8206 26.2784 84.8655 25.3833 83.8591C24.6667 83.0535 23.3049 83.3889 20.5757 84.1396Z" fill="#37474F"/>
<path d="M21.413 83.9111L21.6601 83.8451C22.5113 83.8341 23.3487 84.2108 23.9417 84.8598C24.576 85.5527 24.7078 86.9551 24.705 87.307L24.6446 87.3648C24.6446 87.3648 24.6913 87.659 25.1114 87.0843C25.5314 86.5069 25.9158 85.7974 25.8939 84.9038C25.8719 84.0101 25.3667 83.3612 24.2959 83.3364C23.4887 83.3199 21.3774 83.7324 21.413 83.9111Z" fill="#FAFAFA"/>
<path d="M24.4605 94.8262C24.4331 94.8262 24.4743 95.4366 24.5072 95.5026C24.5923 95.6703 24.8092 95.7583 24.9657 95.8051C25.8827 96.0965 26.8492 96.1213 27.7607 96.4045C28.3593 96.5915 28.9496 96.8115 29.5234 97.081C30.111 97.3559 30.6491 97.6556 31.2724 97.8289C32.6177 98.2056 34.2157 98.2193 35.2151 97.8206C37.0848 97.0782 36.986 96.4485 36.9805 95.7418C36.975 95.0351 24.4605 94.8262 24.4605 94.8262Z" fill="#263238"/>
<path d="M24.8695 90.1162C24.5235 91.5543 24.1364 93.7129 24.4631 94.8265C24.8338 95.2555 26.1077 95.5414 27.2197 95.7449C28.263 95.9346 29.2103 96.2674 30.1465 96.8531C32.2854 97.9199 35.9068 97.7192 36.9172 96.1189C37.6118 93.8174 33.4385 93.6496 31.0279 91.843C30.4238 91.3921 30.3277 90.9714 30.152 90.2674C30.1493 90.2674 26.2917 90.5012 24.8695 90.1162Z" fill="#37474F"/>
<path d="M31.4864 97.3206C31.2832 96.8587 31.0965 95.4673 31.9449 94.4994C32.7961 93.5287 33.9822 93.3308 34.4929 93.4517C35.0941 93.5975 36.2089 94.1447 36.6591 94.6671C37.1094 95.1896 37.3098 96.0337 36.5164 96.6607C35.7256 97.2876 34.1689 97.9421 31.4864 97.3206Z" fill="#FAFAFA"/>
<path d="M15.3175 71.9668C15.485 68.9421 16.575 66.4398 16.5476 64.7707C16.4981 61.559 16.6574 59.4307 16.4103 56.7635C16.1467 53.923 16.0533 51.5693 16.1769 49.5592C16.3004 47.5491 16.6382 45.8801 16.9017 43.3531C16.9017 43.3531 31.8543 42.3659 32.1618 48.2668C32.4666 54.1678 32.0739 69.206 31.8872 71.7963C31.7747 74.425 30.4733 88.9436 30.4376 90.7969C27.8594 92.752 24.6361 91.1296 24.6361 91.1296C24.2682 84.544 23.0711 80.4057 24.1968 74.5928L23.5434 66.0053C23.5434 66.0053 21.1602 81.7091 20.2569 86.6531C18.9554 88.5119 15.7788 87.8025 15.205 86.6503C15.2928 80.5762 15.1144 75.6377 15.3175 71.9668Z" fill="#455A64"/>
<path d="M23.5432 66.0087L22.909 56.1509C22.909 56.1509 20.3775 55.6367 18.549 53.2334C19.0239 55.1362 20.8223 56.4643 22.1018 56.9538L22.7168 63.9958L22.434 73.2322L23.5432 66.0087Z" fill="#37474F"/>
<path d="M26.0744 26.1381L25.7971 29.9877L20.369 30.0262L20.6655 25.8604L26.0744 26.1381Z" fill="#FFA8A7"/>
<path d="M27.4471 18.8447C27.8755 19.3259 29.2126 20.775 29.2785 21.0665L28.3065 21.7512L27.4471 18.8447Z" fill="#F28F8F"/>
<path d="M24.3255 15.1906C25.9152 14.9156 27.0217 15.9853 27.7026 19.3647C27.73 19.4967 27.9387 19.6947 28.1227 20.1951C28.9024 22.3427 28.6745 24.449 28.3423 25.0264C27.4637 25.8321 26.4506 26.294 24.9515 26.261C23.8093 26.2363 20.8852 25.9558 19.3175 24.5122C17.4725 22.8129 16.4264 20.1429 17.5658 18.6498C19.1692 16.549 23.4524 15.3418 24.3255 15.1906Z" fill="#FFA8A7"/>
<path d="M28.3425 25.0254C28.1586 25.3444 26.9779 26.2133 26.0609 26.3315L26.1048 25.6551C26.1048 25.6578 27.3047 25.6798 28.3425 25.0254Z" fill="#F28F8F"/>
<path d="M25.0201 21.1464C24.9268 21.4132 24.6632 21.4544 24.4902 21.2702C24.2843 21.0474 24.1168 20.8055 23.8642 20.6295C23.5704 20.4287 23.208 20.3078 22.8538 20.3573C21.5167 20.5442 21.9588 22.2958 22.6562 22.8705C23.7983 23.8109 24.3172 22.9035 24.3172 22.9035C24.3172 22.9035 25.1986 24.5671 24.136 25.6395C24.136 25.6395 22.2416 26.6074 20.6821 26.2279C19.4575 25.0648 18.6448 24.3334 17.8074 23.3215C15.8251 20.9182 15.6631 18.4297 16.7888 17.6433C16.6652 16.7524 17.0634 15.3802 18.848 14.4893C20.5475 13.6397 21.7199 13.6369 22.9856 13.6287C24.2513 13.6177 25.8411 14.0961 26.9503 13.043C27.288 13.7277 27.266 14.5773 26.8954 15.2455C27.2578 15.053 27.7602 15.2015 27.9579 15.5617C28.1583 15.9192 28.0211 16.4251 27.6696 16.6341C27.9359 16.7469 28.076 17.0768 28.0018 17.3545C27.9277 17.635 27.6614 17.8413 27.3758 17.8825C27.0738 17.9237 26.8816 17.9072 26.5796 17.8825C26.2776 18.9384 25.1354 19.3729 24.4435 19.3729C24.4628 19.3674 24.5616 19.5076 24.5753 19.5268C24.6193 19.5818 24.6577 19.6396 24.6961 19.6973C24.7703 19.8156 24.8334 19.942 24.8856 20.0713C24.9872 20.3325 25.0393 20.613 25.0366 20.8935C25.0311 20.9787 25.0503 21.0612 25.0201 21.1464Z" fill="#263238"/>
<path d="M19.5236 27.8448C17.5962 27.7541 15.6853 28.326 14.5157 31.0098C13.4092 33.5505 11.8524 37.2187 11.2813 39.0637C11.0013 39.9629 10.4934 40.7713 12.1682 42.3579C14.4608 44.5275 17.3079 46.0261 17.3079 46.0261L19.444 42.4872L16.5859 39.7759L17.5194 37.4661L19.5236 27.8448Z" fill="#455A64"/>
<path d="M16.5887 39.7783C16.3114 40.2348 15.6772 40.87 15.0265 41.0982C15.7678 41.2769 16.5887 40.485 16.8358 40.0148L16.5887 39.7783Z" fill="#263238"/>
<path d="M18.137 28.4188C16.7917 29.1722 15.7703 31.691 15.8692 33.7918C15.9323 35.1226 16.3991 38.5543 16.7972 41.59C16.9235 42.5469 16.5418 44.161 16.3661 46.0996C16.2343 47.5377 16.0366 49.9712 16.0366 49.9712C16.0366 49.9712 17.8872 51.83 22.8128 52.4102C29.7619 53.2296 32.3455 51.2223 32.3455 51.2223C32.3455 51.2223 32.1231 45.2829 31.9721 41.2023C31.747 35.1474 31.7333 33.3766 30.7888 31.317C30.4758 30.7066 30.149 29.351 29.1194 29.0842C28.304 28.8725 26.4233 28.4215 25.6792 28.3061C24.4574 28.6223 21.2917 28.647 20.5065 27.9788L20.5202 27.8029C19.1584 27.7864 18.9662 27.9541 18.137 28.4188Z" fill="#37474F"/>
<path d="M49.3301 24.089C50.0247 23.2174 50.3954 22.8544 50.766 22.6344C51.1394 22.4144 52.3969 21.4548 52.9021 21.177C53.2233 21.0011 53.5061 21.5125 53.1657 22.002C52.9049 22.3814 52.1278 22.9919 51.8011 23.3026C51.4716 23.6133 50.9582 24.7297 50.9582 24.7297L49.3301 24.089Z" fill="#F28F8F"/>
<path d="M41.939 35.6988C41.2114 36.1112 40.4894 36.0012 38.0128 35.872C36.2419 35.7785 33.7983 35.707 29.6415 35.3193C28.0875 33.763 27.7113 31.0407 29.2598 29.3689C30.877 28.9949 35.7752 30.9637 41.0055 30.8455C41.0055 30.8455 46.1618 28.4862 46.7274 28.0628C47.2957 27.6421 48.339 25.434 48.7316 24.7906C49.267 23.9134 49.6459 23.9134 50.0248 23.8722C51.2631 23.7374 51.5514 23.7704 51.8452 23.8639C52.1389 23.9574 52.1993 24.2681 52.1993 24.2681C52.5261 24.2242 52.9956 24.0894 53.1933 24.5954C53.3223 24.9281 53.3223 25.0078 53.3223 25.0078C53.3223 25.0078 53.4404 24.9886 53.5584 25.0711C53.9016 25.3075 53.7286 26.4817 53.509 26.8144C53.3552 27.0481 53.0752 27.1471 52.6826 27.1939C52.3504 27.2351 52.4135 26.8694 52.4135 26.8694L51.9715 27.0151C51.1835 27.9583 51.4937 29.3359 50.2912 29.9738C50.0386 30.1086 49.4785 30.2461 48.8058 30.6888C45.868 33.037 42.8835 35.1681 41.939 35.6988Z" fill="#FFA8A7"/>
<path d="M52.1991 24.2679L50.7109 24.3531L52.1194 24.0781C52.1579 24.1414 52.1853 24.2046 52.1991 24.2679Z" fill="#F28F8F"/>
<path d="M53.3221 25.0071L51.639 25.2243L53.2754 24.8174C53.2974 24.8751 53.3111 24.9384 53.3221 25.0071Z" fill="#F28F8F"/>
<path d="M53.2975 25.7812C53.27 25.8775 53.2041 25.9627 53.1272 26.0287C53.0531 26.0975 52.9652 26.1497 52.8746 26.1965L52.8911 26.1745C52.8692 26.2707 52.8444 26.3669 52.8197 26.4632L52.7758 26.4274C52.8664 26.3862 52.9653 26.3862 53.0504 26.4219C53.1355 26.4577 53.2014 26.5237 53.248 26.5979C53.1876 26.5347 53.1135 26.4879 53.0366 26.4632C52.9598 26.4412 52.8719 26.4467 52.806 26.4797L52.7456 26.5099L52.7593 26.4467C52.7813 26.3504 52.8033 26.2542 52.8307 26.158L52.8335 26.1442L52.8472 26.1387C52.9351 26.1002 53.0174 26.048 53.097 25.993C53.1767 25.938 53.2508 25.872 53.2975 25.7812Z" fill="#F28F8F"/>
<path d="M52.9184 26.1045C52.7647 26.1815 52.3391 26.2997 52.3391 26.2997C52.3391 26.2997 52.3583 26.4207 52.2183 26.6654C52.1442 26.7974 51.9712 27.0119 51.9712 27.0119L52.4132 26.8662C52.4132 26.8662 52.4709 26.6379 52.8525 26.4537L52.9184 26.1045Z" fill="#F28F8F"/>
<path d="M28.966 29.0439C29.8226 29.0824 30.7946 29.1237 32.1399 29.4922C33.1036 29.7561 36.6262 30.4188 37.6339 30.5151C38.6415 30.6113 41.0137 30.7323 41.0137 30.7323L44.13 29.3849C44.13 29.3849 44.6818 29.5719 45.2392 30.7323C45.7993 31.8927 45.4314 33.4243 45.4314 33.4243C45.4314 33.4243 42.6748 35.3271 42.0763 35.7148C41.4777 36.1025 41.1345 36.1932 40.2147 36.1245C39.295 36.0558 33.1393 35.6763 32.4392 35.756C31.7391 35.8358 31.5441 36.0833 31.1515 36.3115C30.7589 36.5397 29.7101 36.1493 29.0374 35.1291C28.3647 34.1144 26.9782 30.537 28.966 29.0439Z" fill="#455A64"/>
<path d="M20.5999 26.77L20.5752 27.1055C20.5752 27.1055 21.1051 27.7984 22.9941 27.9442C24.8831 28.0899 25.4377 27.7379 26.0362 27.8369C26.6347 27.9359 27.593 28.7113 27.593 28.7113C27.593 28.7113 26.3794 30.2457 22.9035 29.8882C19.4248 29.5308 19.4907 27.8507 19.4907 27.8507C20.2375 27.0285 20.383 26.7453 20.5999 26.77Z" fill="#263238"/>
</svg>
