<svg className="border border-r-2" width="20" height="20"  viewBox="0 0 20 20" fill="none" xmlns="http://www.w3.org/2000/svg">
<path fill-rule="evenodd" clip-rule="evenodd" d="M10 1.53846C5.32692 1.53846 1.53846 5.32692 1.53846 10C1.53846 14.6731 5.32692 18.4615 10 18.4615C14.6731 18.4615 18.4615 14.6731 18.4615 10C18.4615 5.32692 14.6731 1.53846 10 1.53846ZM0 10C0 4.47692 4.47692 0 10 0C15.5231 0 20 4.47692 20 10C20 15.5231 15.5231 20 10 20C4.47692 20 0 15.5231 0 10Z" fill="#9D9C9D"/>
<path fill-rule="evenodd" clip-rule="evenodd" d="M9.99948 6.15388C9.18343 6.15388 8.4008 6.47805 7.82377 7.05509C7.24673 7.63212 6.92256 8.41475 6.92256 9.2308C6.92256 10.0469 7.24673 10.8295 7.82377 11.4065C8.4008 11.9835 9.18343 12.3077 9.99948 12.3077C10.8155 12.3077 11.5982 11.9835 12.1752 11.4065C12.7522 10.8295 13.0764 10.0469 13.0764 9.2308C13.0764 8.41475 12.7522 7.63212 12.1752 7.05509C11.5982 6.47805 10.8155 6.15388 9.99948 6.15388ZM5.38409 9.2308C5.38409 8.00673 5.87036 6.83279 6.73591 5.96723C7.60146 5.10168 8.7754 4.61542 9.99948 4.61542C11.2236 4.61542 12.3975 5.10168 13.263 5.96723C14.1286 6.83279 14.6149 8.00673 14.6149 9.2308C14.6149 10.4549 14.1286 11.6288 13.263 12.4944C12.3975 13.3599 11.2236 13.8462 9.99948 13.8462C8.7754 13.8462 7.60146 13.3599 6.73591 12.4944C5.87036 11.6288 5.38409 10.4549 5.38409 9.2308Z" fill="#9D9C9D"/>
<path fill-rule="evenodd" clip-rule="evenodd" d="M9.99977 13.8462C8.86342 13.8462 7.74927 14.1608 6.78079 14.7552C5.81231 15.3497 5.02733 16.2006 4.51285 17.2139C4.46709 17.304 4.40403 17.3842 4.32727 17.4499C4.25051 17.5156 4.16155 17.5656 4.06548 17.597C3.96941 17.6283 3.8681 17.6405 3.76734 17.6327C3.66658 17.6249 3.56834 17.5973 3.47823 17.5515C3.38813 17.5058 3.30792 17.4427 3.24218 17.366C3.17644 17.2892 3.12647 17.2002 3.09511 17.1042C3.06375 17.0081 3.05163 16.9068 3.05942 16.806C3.06722 16.7053 3.09478 16.607 3.14054 16.5169C3.78356 15.2502 4.76482 14.1862 5.97554 13.443C7.18626 12.6998 8.57914 12.3064 9.99977 12.3064C11.4204 12.3064 12.8133 12.6998 14.024 13.443C15.2347 14.1862 16.216 15.2502 16.859 16.5169C16.9514 16.6989 16.9678 16.9101 16.9044 17.1042C16.8411 17.2982 16.7033 17.4591 16.5213 17.5515C16.3393 17.644 16.1281 17.6603 15.9341 17.597C15.74 17.5336 15.5791 17.3958 15.4867 17.2139C14.9723 16.2005 14.1874 15.3494 13.2189 14.7548C12.2504 14.1602 11.1362 13.8462 9.99977 13.8462Z" fill="#9D9C9D"/>
</svg>
