<svg width="20" height="20" viewBox="0 0 20 20" fill="none" xmlns="http://www.w3.org/2000/svg">
<path d="M11.4953 4.55597C11.0107 4.42316 10.5076 4.35581 9.99999 4.35581C6.88776 4.35581 4.35581 6.88776 4.35581 9.99999C4.35581 13.1122 6.88776 15.6442 9.99999 15.6442C13.1122 15.6442 15.6442 13.1122 15.6442 9.99999C15.6442 9.49237 15.5768 8.98928 15.444 8.50471C15.3528 8.17182 15.5487 7.828 15.8815 7.73675C16.2142 7.64554 16.5583 7.8414 16.6495 8.17429C16.8122 8.7692 16.8945 9.38323 16.8942 9.99999C16.8942 13.8014 13.8014 16.8942 9.99999 16.8942C6.19855 16.8942 3.10582 13.8014 3.10582 9.99999C3.10582 6.19855 6.19855 3.10582 9.99999 3.10582C10.6192 3.10582 11.2335 3.18812 11.8257 3.35046C12.1033 3.42656 12.2856 3.67835 12.2856 3.95296C12.2856 4.00887 12.278 4.06452 12.2632 4.11843C12.172 4.45132 11.8282 4.64734 11.4953 4.55597ZM18.8132 6.73593C18.4822 6.83394 18.2933 7.18163 18.3913 7.51265C18.6293 8.31655 18.75 9.15339 18.75 9.99999C18.75 14.8247 14.8247 18.75 9.99999 18.75C5.17523 18.75 1.25 14.8247 1.25 9.99999C1.25 5.17523 5.17523 1.25 9.99999 1.25C10.8466 1.25 11.6835 1.37066 12.4872 1.60863C12.8182 1.70668 13.1659 1.51769 13.2639 1.18676C13.2814 1.12758 13.2898 1.06793 13.2898 1.00922C13.2899 0.739491 13.1139 0.490546 12.8421 0.410039C11.923 0.137929 10.9668 0 9.99999 0C7.3289 0 4.81765 1.04019 2.9289 2.9289C1.04019 4.81769 0 7.3289 0 9.99999C0 12.6711 1.04019 15.1823 2.9289 17.0711C4.81761 18.9598 7.3289 20 9.99999 20C12.6711 20 15.1823 18.9598 17.0711 17.0711C18.9598 15.1823 20 12.6711 20 9.99999C20 9.03323 19.862 8.07698 19.5899 7.1578C19.4919 6.82683 19.1441 6.63808 18.8132 6.73593ZM9.99999 7.49999C10.0919 7.49999 10.1847 7.50507 10.2759 7.51507C10.6192 7.55284 10.9277 7.30507 10.9653 6.96198C11.003 6.61886 10.7553 6.31019 10.4122 6.27257C10.2753 6.25755 10.1377 6.25001 9.99999 6.24999C7.93222 6.24999 6.24999 7.93222 6.24999 9.99999C6.24999 12.0678 7.93222 13.75 9.99999 13.75C12.0678 13.75 13.75 12.0678 13.75 9.99999C13.75 9.65479 13.4702 9.37499 13.125 9.37499C12.7798 9.37499 12.5 9.65479 12.5 9.99999C12.5 11.3785 11.3785 12.5 9.99999 12.5C8.62147 12.5 7.49999 11.3785 7.49999 9.99999C7.49999 8.62147 8.62147 7.49999 9.99999 7.49999ZM13.1912 5.92503L13.5025 2.80211C13.5168 2.65847 13.5804 2.52421 13.6824 2.42215L15.9216 0.183047C16.0061 0.0985981 16.113 0.0401192 16.2296 0.0145325C16.3463 -0.0110542 16.4679 -0.00267711 16.5799 0.038672C16.692 0.0800211 16.7898 0.152611 16.8619 0.247848C16.934 0.343085 16.9773 0.456981 16.9867 0.576054L17.1642 2.83582L19.4239 3.01332C19.543 3.02267 19.6569 3.06594 19.7522 3.13802C19.8474 3.2101 19.92 3.30797 19.9614 3.42003C20.0027 3.53209 20.0111 3.65365 19.9855 3.77033C19.9599 3.887 19.9014 3.99389 19.8169 4.07835L17.5778 6.31745C17.4757 6.41953 17.3415 6.48312 17.1979 6.49741L14.075 6.8089L10.4419 10.4419C10.384 10.5001 10.3151 10.5461 10.2392 10.5776C10.1634 10.609 10.0821 10.6251 9.99999 10.625C9.9179 10.6251 9.83659 10.609 9.76075 10.5776C9.68491 10.5461 9.61603 10.5 9.55807 10.4419C9.31397 10.1978 9.31397 9.8021 9.55807 9.55803L13.1912 5.92503ZM14.4886 5.51148L16.8517 5.27577L17.9742 4.15331L16.534 4.04019C16.3856 4.02852 16.2463 3.96428 16.141 3.85903C16.0358 3.75379 15.9715 3.61444 15.9599 3.46605L15.8467 2.02578L14.7242 3.14828L14.4886 5.51148Z" fill="#BDBDBD"/>
</svg>
