<svg width="136" height="131" viewBox="0 0 136 131" fill="none" xmlns="http://www.w3.org/2000/svg">
<path opacity="0.4" fill-rule="evenodd" clip-rule="evenodd" d="M0.307617 131H116C127.037 131 135.986 122.059 136 111.025C136 111.017 136 111.008 136 111L136 51C135.231 62.6667 121.969 86 75.0769 86C28.1845 86 5.69223 116 0.307617 131Z" fill="white"/>
<path d="M43.1353 89.1119H24.6266C24.1688 89.1119 23.7979 88.7409 23.7979 88.2831V86.5362C23.7979 86.0783 24.1688 85.7074 24.6266 85.7074H43.1353C43.5931 85.7074 43.964 86.0783 43.964 86.5362V88.2831C43.9632 88.7409 43.5923 89.1119 43.1353 89.1119Z" stroke="#DEE5F8" stroke-width="5" stroke-miterlimit="10"/>
<path d="M54.1616 89.0768H46.6283C46.0552 89.0768 45.5907 88.6123 45.5907 88.0392V86.7091C45.5907 86.136 46.0552 85.6715 46.6283 85.6715H54.1616C54.7347 85.6715 55.1992 86.136 55.1992 86.7091V88.0392C55.1992 88.6123 54.7347 89.0768 54.1616 89.0768Z" stroke="#DEE5F8" stroke-width="3.75" stroke-miterlimit="10"/>
<path d="M49.5608 43.096H42.0275C41.4544 43.096 40.9899 42.6315 40.9899 42.0584V40.7283C40.9899 40.1552 41.4544 39.6907 42.0275 39.6907H49.5608C50.1339 39.6907 50.5984 40.1552 50.5984 40.7283V42.0584C50.5976 42.6315 50.1331 43.096 49.5608 43.096Z" stroke="#DEE5F8" stroke-width="5" stroke-miterlimit="10"/>
<path d="M60.9255 43.096H53.3922C52.8191 43.096 52.3546 42.6315 52.3546 42.0584V40.7283C52.3546 40.1552 52.8191 39.6907 53.3922 39.6907H60.9255C61.4986 39.6907 61.9631 40.1552 61.9631 40.7283V42.0584C61.9631 42.6315 61.4986 43.096 60.9255 43.096Z" stroke="#DEE5F8" stroke-width="5" stroke-miterlimit="10"/>
<path d="M89.7879 73.722H82.2546C81.6815 73.722 81.2169 73.2574 81.2169 72.6843V71.3543C81.2169 70.7812 81.6815 70.3167 82.2546 70.3167H89.7879C90.361 70.3167 90.8255 70.7812 90.8255 71.3543V72.6843C90.8255 73.2574 90.361 73.722 89.7879 73.722Z" stroke="#DEE5F8" stroke-width="5" stroke-miterlimit="10"/>
<path d="M125.857 27.9033V28.8841C126.187 28.8841 126.557 28.9735 126.805 29.6369C127.077 30.3654 127.09 31.5141 126.841 32.8734C126.561 34.4031 125.959 36.1685 125.1 37.9772C123.33 41.7067 120.577 45.4311 117.247 48.6301L116.754 37.7333L119.661 33.708H122.112C123.045 33.708 123.803 32.9495 123.803 32.0171V29.7221C123.817 29.6995 123.878 29.621 124.066 29.5116C124.958 28.9936 125.533 28.885 125.858 28.885L125.857 27.9033ZM125.856 27.9033C125.229 27.9033 124.466 28.1431 123.571 28.6627C123.161 28.9008 122.82 29.2367 122.82 29.7104V32.0163C122.82 32.4081 122.502 32.7264 122.11 32.7264H119.157L115.756 37.4358L116.36 50.7672C127.784 40.8537 130.47 27.9033 125.856 27.9033Z" fill="#FBC343"/>
<path d="M90.7008 27.9033V28.8841C91.0267 28.8841 91.6014 28.9928 92.4929 29.5107C92.68 29.6193 92.741 29.6987 92.756 29.7213V32.0163C92.756 32.9486 93.5146 33.7072 94.447 33.7072H96.8974L99.8048 37.7324L99.311 48.6293C95.9817 45.4303 93.2297 41.7058 91.4586 37.9764C90.5997 36.1676 89.9974 34.4023 89.7175 32.8726C89.4685 31.5141 89.4811 30.3646 89.7534 29.6361C90.0007 28.9727 90.3717 28.8833 90.7017 28.8833V27.9033M90.7008 27.9033C86.0875 27.9033 88.7726 40.8537 100.196 50.7663L100.8 37.435L97.3986 32.7256H94.4462C94.0543 32.7256 93.736 32.4072 93.736 32.0154V29.7096C93.736 29.2359 93.3952 28.9 92.985 28.6619C92.091 28.1431 91.3283 27.9033 90.7008 27.9033Z" fill="#FBC343"/>
<path d="M117.893 74.423H98.6644V84.4016H117.893V74.423Z" fill="#6F3428"/>
<path d="M114.95 74.4231H101.608V71.1673C101.608 69.7128 102.787 68.5348 104.24 68.5348H112.317C113.771 68.5348 114.949 69.7136 114.949 71.1673V74.4231H114.95Z" fill="#FBC343"/>
<path d="M112.432 68.5339H104.126V66.5071C104.126 65.6014 104.859 64.8679 105.765 64.8679H110.793C111.698 64.8679 112.432 65.6014 112.432 66.5071V68.5339Z" fill="#FBC343"/>
<path d="M110.595 63.8429L110.854 64.868H105.704L105.96 63.8429C106.303 62.4811 106.303 61.1084 105.96 59.7466L105.704 58.7207H110.854L110.595 59.7466C110.483 60.1953 110.408 60.6448 110.37 61.0959C110.291 62.0132 110.366 62.9306 110.595 63.8429Z" fill="#FBC343"/>
<path opacity="0.3" d="M110.854 58.7214L110.595 59.7474C110.483 60.196 110.408 60.6455 110.37 61.0966C110.088 59.2202 105.704 58.7223 105.704 58.7223H110.854V58.7214Z" fill="#6F3428"/>
<path d="M112.432 55.0564V57.0824C112.432 57.2495 112.407 57.4099 112.361 57.5628C112.156 58.2328 111.531 58.7215 110.792 58.7215H105.764C104.86 58.7215 104.125 57.9888 104.125 57.0824V55.0564H112.432Z" fill="#FBC343"/>
<path opacity="0.3" d="M112.432 55.0564V57.0824C112.432 57.2495 112.407 57.4099 112.361 57.5628C110.143 55.5243 104.509 55.4641 104.125 55.4616V55.0564H112.432Z" fill="#6F3428"/>
<path d="M121.178 30.5734L118.797 40.9706L116.155 52.5099C115.76 54.2376 114.223 55.4616 112.452 55.4616H104.103C102.339 55.4616 100.807 54.246 100.404 52.5274C100.402 52.5208 100.402 52.5174 100.4 52.5107L95.377 30.5742C95.2742 30.1273 95.5583 29.6803 96.0094 29.5926C104.188 27.976 112.368 27.976 120.545 29.5926C120.997 29.6795 121.281 30.1256 121.178 30.5734Z" fill="#FBC343"/>
<path opacity="0.6" d="M102.806 36.8368C102.989 38.3348 102.689 39.6039 102.137 39.6715C101.585 39.7392 100.99 38.5788 100.807 37.0808C100.624 35.5828 100.924 34.3138 101.476 34.2461C102.028 34.1784 102.623 35.3389 102.806 36.8368Z" fill="white"/>
<path opacity="0.1" d="M118.798 40.9697L116.156 52.509C115.761 54.2367 114.224 55.4607 112.453 55.4607H104.104C102.34 55.4607 100.808 54.2451 100.405 52.5266C109.581 51.9476 115.683 46.1312 118.798 40.9697Z" fill="#6F3428"/>
<g opacity="0.3">
<path d="M105.704 64.8679C106.126 64.7618 106.554 64.6992 106.985 64.654C107.415 64.6073 107.847 64.588 108.279 64.5805C109.142 64.578 110.016 64.6365 110.854 64.8679C110.419 64.8796 109.992 64.8788 109.564 64.8813L108.281 64.8938C107.426 64.898 106.571 64.9114 105.704 64.8679Z" fill="#6F3428"/>
</g>
<g opacity="0.3">
<path d="M104.125 68.534C105.504 68.3468 106.89 68.275 108.277 68.2524C108.971 68.2457 109.666 68.2533 110.36 68.2909C111.053 68.3259 111.75 68.3903 112.431 68.5348C111.737 68.5114 111.046 68.5298 110.355 68.5356L108.281 68.5657C106.899 68.5783 105.515 68.5933 104.125 68.534Z" fill="#6F3428"/>
</g>
<path d="M104.545 13.9989L105.405 20.1879C105.455 20.5463 104.974 20.7117 104.793 20.3985L101.668 14.9872C101.477 14.6555 101.636 14.232 101.999 14.1075L103.743 13.5085C104.106 13.384 104.493 13.6196 104.545 13.9989Z" fill="#FBC343"/>
<path d="M113.184 10.2936L109.802 20.9181C109.606 21.5338 108.705 21.4293 108.655 20.7852L107.793 9.66867C107.74 8.98694 108.323 8.42886 109.002 8.50739L112.271 8.88585C112.952 8.96522 113.391 9.64194 113.184 10.2936Z" fill="#FBC343"/>
<path d="M117.132 16.8027L113.098 20.65C112.864 20.873 112.494 20.6107 112.627 20.3166L114.918 15.2345C115.059 14.9229 115.449 14.8185 115.728 15.0157L117.07 15.9672C117.349 16.1636 117.38 16.5663 117.132 16.8027Z" fill="#FBC343"/>
<path d="M120.515 84.6774V93.5466L23.2131 130.604H0.359306V122.074H23.0084L23.0335 117.375L23.0611 112.663H45.8121V103.254H68.4613V94.0805H91.1129V84.6691L120.515 84.6774Z" fill="white"/>
<path d="M68.2165 103.498H45.8781C45.6283 103.498 45.4236 103.293 45.4236 103.043C45.4236 102.793 45.6283 102.589 45.8781 102.589H68.2165C68.4663 102.589 68.671 102.793 68.671 103.043C68.671 103.293 68.4663 103.498 68.2165 103.498Z" fill="#ACBFEE"/>
<path d="M90.9133 94.4464H68.5749C68.3251 94.4464 68.1204 94.2418 68.1204 93.992C68.1204 93.7422 68.3251 93.5375 68.5749 93.5375H90.9133C91.1631 93.5375 91.3678 93.7422 91.3678 93.992C91.3678 94.2418 91.1631 94.4464 90.9133 94.4464Z" fill="#ACBFEE"/>
<path d="M120.529 84.9147H91.0713C90.8215 84.9147 90.6168 84.71 90.6168 84.4602C90.6168 84.2104 90.8215 84.0057 91.0713 84.0057H120.529C120.779 84.0057 120.984 84.2104 120.984 84.4602C120.984 84.71 120.779 84.9147 120.529 84.9147Z" fill="#ACBFEE"/>
<path d="M45.5481 112.854H23.2098C22.96 112.854 22.7553 112.649 22.7553 112.399C22.7553 112.15 22.96 111.945 23.2098 111.945H45.5481C45.7979 111.945 46.0026 112.15 46.0026 112.399C46.0026 112.649 45.7979 112.854 45.5481 112.854Z" fill="#ACBFEE"/>
<path d="M22.7928 122.264H0.454487C0.204686 122.264 0 122.059 0 121.809C0 121.559 0.204686 121.355 0.454487 121.355H22.7928C23.0426 121.355 23.2473 121.559 23.2473 121.809C23.2473 122.059 23.0426 122.264 22.7928 122.264Z" fill="#ACBFEE"/>
<path d="M47.7362 72.2568L47.6117 70.8524L49.8508 70.6544C61.4778 69.6259 71.2576 61.7685 74.7673 50.6361L77.6321 41.5497L78.9763 41.9733L76.1116 51.0597C72.4297 62.7368 62.1704 70.9785 49.9752 72.0579L47.7362 72.2568Z" fill="#DEE5F8"/>
<path d="M78.3405 50.1699L77.7281 43.4812L73.1824 48.7496L72.1147 47.8289L78.8293 40.0483L79.7441 50.0412L78.3405 50.1699Z" fill="#DEE5F8"/>
<path d="M26.2141 23.4997C26.2141 23.7403 26.1239 23.9717 25.9534 24.1889H0.413631C0.315883 23.9717 0.264084 23.7403 0.264084 23.4997C0.264084 22.2181 1.75286 21.1796 3.59002 21.1796C4.17234 21.1796 4.71956 21.2849 5.19493 21.4687C5.44557 19.6491 7.93939 18.2196 10.9788 18.2196C14.1476 18.2196 16.7225 19.7719 16.7843 21.6993C17.7785 21.3759 19.0484 21.1796 20.4311 21.1796C23.625 21.1796 26.2141 22.2181 26.2141 23.4997Z" fill="#DEE5F8"/>
<path d="M70.7287 6.32033C70.7287 6.60772 70.6201 6.88509 70.4171 7.14492H39.8495C39.7325 6.88509 39.6707 6.60772 39.6707 6.32033C39.6707 4.78644 41.4527 3.54328 43.6508 3.54328C44.3484 3.54328 45.0026 3.6686 45.5724 3.88916C45.8723 1.71113 48.8574 0.00012207 52.4949 0.00012207C56.2879 0.00012207 59.369 1.85733 59.4434 4.16486C60.6331 3.77721 62.1528 3.54328 63.8078 3.54328C67.63 3.54328 70.7287 4.78644 70.7287 6.32033Z" fill="#DEE5F8"/>
</svg>
