<svg width="20" height="16" viewBox="0 0 20 16" fill="none" xmlns="http://www.w3.org/2000/svg">
<path d="M18.6435 2.10986L17.2913 2.1098V0.710012C17.2913 0.554943 17.2356 0.405023 17.1344 0.287534C17.0332 0.170045 16.8932 0.0927948 16.7398 0.0698418C16.6845 0.0615279 15.3671 -0.129822 13.7808 0.158826C12.0123 0.4806 10.602 1.27412 9.64542 2.47373C8.6888 1.27412 7.27842 0.4806 5.51003 0.158826C3.92364 -0.129757 2.60628 0.0615279 2.551 0.0698418C2.39765 0.0928202 2.25764 0.170077 2.15644 0.287561C2.05524 0.405045 1.99957 0.55495 1.99956 0.710012V2.1098H0.647315C0.289882 2.1098 8.96497e-10 2.39968 8.96497e-10 2.75718V14.9555C-5.43546e-06 15.0589 0.0247138 15.1607 0.072092 15.2525C0.11947 15.3443 0.188131 15.4234 0.272338 15.4832C0.356545 15.5431 0.453851 15.5819 0.556125 15.5964C0.6584 15.611 0.762672 15.6009 0.860228 15.5669C0.908813 15.5501 5.75964 13.8946 9.37677 15.5445C9.46111 15.583 9.55274 15.6029 9.64545 15.6029C9.73816 15.6029 9.82978 15.583 9.91412 15.5445C13.5211 13.8992 18.3823 15.5502 18.4307 15.5669C18.5282 15.6008 18.6325 15.611 18.7348 15.5964C18.837 15.5819 18.9343 15.5431 19.0186 15.4833C19.1028 15.4234 19.1714 15.3443 19.2188 15.2525C19.2662 15.1607 19.2909 15.0589 19.2909 14.9556V2.75724C19.2908 2.39975 19.001 2.10986 18.6435 2.10986ZM1.29469 14.0894V3.40449H1.99956V12.0254C1.99965 12.1183 2.01975 12.2102 2.05851 12.2947C2.09727 12.3792 2.15376 12.4543 2.22416 12.515C2.29456 12.5758 2.37723 12.6208 2.46655 12.6467C2.55587 12.6727 2.64973 12.6792 2.74177 12.6657C2.77749 12.6605 5.58966 12.2744 7.64424 13.684C5.11337 13.2513 2.58036 13.7519 1.29469 14.0894ZM8.9981 13.1002C8.09319 12.2826 6.9145 11.7298 5.51003 11.4742C4.83414 11.3512 4.20709 11.3154 3.70566 11.3154C3.55679 11.3154 3.41896 11.3185 3.29432 11.3235V1.30446H3.29425C4.53841 1.24834 7.56499 1.38136 8.9981 3.81077V13.1002ZM10.2927 3.81083C11.7207 1.39182 14.752 1.25275 15.9966 1.30608V11.3235C15.4521 11.3016 14.6573 11.3147 13.7808 11.4742C12.3763 11.7298 11.1976 12.2826 10.2927 13.1002V3.81083ZM11.6445 13.6844C13.6993 12.2739 16.513 12.6604 16.548 12.6656C16.6401 12.6794 16.7341 12.6732 16.8236 12.6473C16.9131 12.6215 16.9959 12.5767 17.0665 12.5159C17.137 12.4551 17.1936 12.3798 17.2324 12.2952C17.2712 12.2105 17.2913 12.1185 17.2913 12.0254V3.40456H17.9961V14.0894C16.7101 13.7517 14.176 13.2509 11.6445 13.6844Z" fill="#BDBDBD"/>
</svg>
