<svg width="28" height="24" viewBox="0 0 28 24" fill="none" xmlns="http://www.w3.org/2000/svg">
<path d="M17.6516 11.9988C17.6514 10.2157 17.0671 8.48378 15.9913 7.07804C14.9156 5.67229 13.4101 4.67333 11.7139 4.23978C10.0178 3.80623 8.22826 3.96295 6.62945 4.68505C5.03064 5.40715 3.71424 6.65323 2.88928 8.22543C2.06431 9.79764 1.77808 11.6058 2.07603 13.3629C2.37399 15.1199 3.23904 16.7251 4.53384 17.9235C5.82863 19.1219 7.47894 19.8448 9.22269 19.9775C10.9665 20.1102 12.7037 19.645 14.1586 18.6558L15.2471 20.3198C13.4286 21.5564 11.257 22.1381 9.07728 21.9723C6.89755 21.8066 4.8346 20.903 3.21602 19.405C1.59744 17.9071 0.516024 15.9007 0.143492 13.7044C-0.22904 11.508 0.12867 9.24777 1.15982 7.28247C2.19097 5.31716 3.83644 3.75949 5.83495 2.8568C7.83345 1.95411 10.0704 1.75815 12.1906 2.30004C14.3108 2.84194 16.1927 4.09062 17.5374 5.8478C18.8822 7.60498 19.6127 9.76992 19.6129 11.9988V13.4988C19.6143 14.2487 19.3794 14.9792 18.9429 15.5827C18.5065 16.1862 17.8915 16.6308 17.1885 16.851C16.4856 17.0712 15.7319 17.0553 15.0385 16.8058C14.345 16.5562 13.7485 16.0862 13.3368 15.4648C12.6819 16.1585 11.8446 16.6446 10.9254 16.8648C10.0061 17.0849 9.04412 17.0297 8.15491 16.7058C7.2657 16.3819 6.48712 15.8031 5.91271 15.0388C5.33831 14.2746 4.99251 13.3575 4.91688 12.3978C4.84124 11.438 5.03897 10.4763 5.48632 9.62837C5.93367 8.78042 6.61161 8.08222 7.43868 7.61766C8.26575 7.1531 9.20677 6.94194 10.1487 7.00956C11.0906 7.07718 11.9933 7.4207 12.7484 7.99884H14.7097V13.4988C14.7097 13.8967 14.8647 14.2782 15.1405 14.5595C15.4164 14.8408 15.7905 14.9988 16.1807 14.9988C16.5708 14.9988 16.9449 14.8408 17.2208 14.5595C17.4966 14.2782 17.6516 13.8967 17.6516 13.4988V11.9988ZM9.80647 8.99884C9.22461 8.99884 8.65581 9.17479 8.17201 9.50444C7.68822 9.83408 7.31114 10.3026 7.08847 10.8508C6.8658 11.399 6.80754 12.0022 6.92106 12.5841C7.03457 13.1661 7.31477 13.7006 7.7262 14.1202C8.13764 14.5397 8.66184 14.8254 9.23252 14.9412C9.8032 15.057 10.3947 14.9975 10.9323 14.7705C11.4699 14.5434 11.9293 14.1589 12.2526 13.6656C12.5759 13.1722 12.7484 12.5922 12.7484 11.9988C12.7484 11.2032 12.4384 10.4401 11.8867 9.87752C11.335 9.31491 10.5867 8.99884 9.80647 8.99884Z" fill="#9D9C9D"/>
</svg>
