<svg width="8" height="10" viewBox="0 0 8 10" fill="none" xmlns="http://www.w3.org/2000/svg">
<path fill-rule="evenodd" clip-rule="evenodd" d="M0.146552 7.84285C0.041552 7.73785 -0.010948 7.59185 0.00205199 7.44385L0.191552 5.35885C0.212552 5.13035 0.313552 4.91485 0.476552 4.75185L4.97455 0.253851C5.32555 -0.098649 5.96205 -0.081149 6.33255 0.288351L7.70155 1.65735L7.70205 1.65785C8.08455 2.04085 8.10005 2.64985 7.73605 3.01485L3.23755 7.51335C3.07505 7.67585 2.85955 7.77685 2.63055 7.79785L0.545552 7.98735C0.530552 7.98835 0.515552 7.98885 0.500052 7.98885C0.368552 7.98885 0.241052 7.93685 0.146552 7.84285ZM6.0095 3.32835L4.662 1.98085L5.636 1.00635L6.983 2.35335L6.0095 3.32835ZM2.54 6.80135L1.0515 6.93685L1.1835 5.45885L3.992 2.65035L5.34 3.99885L2.54 6.80135ZM7.5 9.98885C7.775 9.98885 8 9.76385 8 9.48885C8 9.21435 7.775 8.98885 7.5 8.98885H0.5C0.2255 8.98885 0 9.21435 0 9.48885C0 9.76385 0.2255 9.98885 0.5 9.98885H7.5Z" fill="white"/>
</svg>
