<svg width="18" height="18" viewBox="0 0 18 18" fill="none" xmlns="http://www.w3.org/2000/svg">
<g clip-path="url(#clip0_13_3)">
<path d="M9.00001 3.67346C10.7245 3.67346 12.1225 5.11253 12.1225 6.88775C12.1225 8.66297 10.7245 10.102 9.00001 10.102C7.27554 10.102 5.87756 8.66293 5.87756 6.88775C5.87756 5.11257 7.27554 3.67346 9.00001 3.67346ZM9.00001 4.95918C7.99408 4.95918 7.16328 5.81441 7.16328 6.88775C7.16328 7.96108 7.99408 8.81632 9.00001 8.81632C10.0059 8.81632 10.8367 7.96108 10.8367 6.88775C10.8367 5.81441 10.0059 4.95918 9.00001 4.95918Z" fill="#9D9C9D"/>
<path d="M9 0C13.9706 0 18 4.02943 18 9C18 12.3485 16.1713 15.27 13.4581 16.82C12.1892 17.5508 10.7222 17.9772 9.15712 17.9991L9.00004 18C4.02943 18 0 13.9706 0 9C0 4.02943 4.02943 0 9 0ZM8.15915 12.3061C6.5137 12.3061 5.05233 13.3495 4.51506 14.899L4.43199 15.1679C5.70765 16.135 7.27905 16.6912 8.92478 16.7136L9.12753 16.7133C10.4856 16.6912 11.7585 16.3183 12.8592 15.681L13.5687 15.2107L13.4892 14.9669C12.9788 13.4026 11.5337 12.3369 9.8937 12.3068L8.15915 12.3061ZM9 1.28571C4.73951 1.28571 1.28571 4.73951 1.28571 9C1.28571 11.0419 2.07901 12.8985 3.37425 14.2784C4.14378 12.3225 6.03663 11.0204 8.15918 11.0204H9.82239C11.9499 11.0204 13.8466 12.3286 14.6128 14.2921C15.9157 12.9108 16.7143 11.0487 16.7143 9C16.7143 4.73951 13.2605 1.28571 9 1.28571Z" fill="#9D9C9D"/>
</g>
<defs>
<clipPath id="clip0_13_3">
<rect width="18" height="18" fill="white"/>
</clipPath>
</defs>
</svg>
