<svg width="24" height="20" viewBox="0 0 24 20" fill="none" xmlns="http://www.w3.org/2000/svg">
<path d="M11.2498 0.148254C11.4207 0.0842874 11.6083 0.0842874 11.7791 0.148254L22.4197 4.13263C22.5699 4.18877 22.6989 4.29148 22.7899 4.4256C22.8807 4.55962 22.9296 4.71865 22.9295 4.88165C22.9294 5.04473 22.881 5.20473 22.7899 5.33868C22.6987 5.47256 22.5689 5.57479 22.4188 5.63068L21.3211 6.03986V12.2479L23.074 14.0613C23.3558 14.3526 23.3742 14.8124 23.1277 15.1248L23.075 15.1854L21.3211 16.9979V18.5037C21.3209 18.9403 20.9779 19.2995 20.5477 19.2996C20.1173 19.2996 19.7734 18.9404 19.7733 18.5037V16.9979L18.0203 15.1854C17.8756 15.0357 17.7947 14.8331 17.7947 14.6229C17.7948 14.4128 17.8757 14.2109 18.0203 14.0613L19.7733 12.2479V6.61603L18.3338 7.15314V11.6297C18.3338 11.7977 18.2825 11.9621 18.1863 12.0984C18.1335 12.1733 17.697 12.7583 16.619 13.3104C15.2534 14.0097 13.4856 14.3611 11.3699 14.3611C9.25287 14.3611 7.4932 14.0095 6.1463 13.3084C5.08078 12.7538 4.65808 12.1629 4.60529 12.0848C4.51517 11.9512 4.46661 11.7919 4.46661 11.6297V7.10626L0.603333 5.62775C0.454492 5.57057 0.326899 5.46772 0.237122 5.3338C0.147346 5.19985 0.0998952 5.04102 0.100403 4.87872C0.100983 4.7163 0.149246 4.55702 0.240051 4.42365C0.330878 4.2903 0.459771 4.18863 0.609192 4.13263L11.2498 0.148254ZM19.6609 14.6229L20.5467 15.5399L21.4334 14.6229L20.5467 13.7059L19.6609 14.6229ZM6.01447 11.3152C6.45549 11.7561 7.19162 12.1117 8.1004 12.3602C9.02497 12.6129 10.1151 12.7535 11.2215 12.7684C12.328 12.7832 13.4482 12.6729 14.4324 12.4266C15.4004 12.1843 16.2275 11.8108 16.7859 11.3055V7.72931L11.6336 9.65118L11.6258 9.65411V9.65314C11.4655 9.6985 11.356 9.70411 11.2713 9.6922C11.2295 9.68631 11.1964 9.6769 11.1707 9.66876C11.1424 9.65979 11.1315 9.656 11.1199 9.65411L11.1102 9.65216L11.1004 9.64825L6.01447 7.70001V11.3152ZM3.11407 4.88947L11.3738 8.05255L19.8875 4.87872L11.5145 1.74396L3.11407 4.88947Z" fill="#9D9C9D" stroke="#9D9C9D" stroke-width="0.2"/>
</svg>
