<svg width="76" height="81" viewBox="0 0 76 81" fill="none" xmlns="http://www.w3.org/2000/svg">
<path d="M29.3524 63.4668H39.1323V74.9328H29.3524V63.4668Z" fill="#FFE266"/>
<path opacity="0.3" d="M29.3524 63.4668H39.1323V74.9328H29.3524" fill="#CB2CFF"/>
<path d="M64.5226 61.4457C63.1159 62.8524 60.8352 62.8524 59.4284 61.4457L4.13195 6.1492C2.72522 4.74248 2.72522 2.46176 4.13195 1.05504C5.53867 -0.351681 7.81938 -0.351681 9.2261 1.05504L64.5226 56.3515C65.9293 57.7583 65.9293 60.039 64.5226 61.4457Z" fill="#FFE266"/>
<path opacity="0.3" d="M64.5226 61.4457C63.1159 62.8524 60.8352 62.8524 59.4284 61.4457L4.13195 6.1492C2.72522 4.74248 2.72522 2.46176 4.13195 1.05504C5.53867 -0.351681 7.81938 -0.351681 9.2261 1.05504L64.5226 56.3515C65.9293 57.7583 65.9293 60.039 64.5226 61.4457Z" fill="white"/>
<path d="M59.0284 43.3088C54.5109 52.5258 44.9839 58.8597 34.0188 58.7388C19.1404 58.5749 7.00256 46.4368 6.83904 31.5585C6.71849 20.5935 13.0524 11.0669 22.2692 6.54935C24.3428 5.53302 24.8122 2.78719 23.1794 1.15439C22.1678 0.142793 20.6233 -0.122469 19.3384 0.50648C7.94922 6.08139 0.0928063 17.8 0.118716 31.3176C0.154737 50.092 15.486 65.4231 34.2605 65.4592C47.7781 65.4851 59.4965 57.6287 65.0712 46.2398C65.7002 44.9549 65.4351 43.4104 64.4233 42.3988C62.7905 40.7659 60.0447 41.2352 59.0284 43.3088ZM46.3676 80.8901H22.1315C19.9122 80.8901 18.113 79.091 18.113 76.8717C18.113 74.6525 19.9122 72.8533 22.1315 72.8533H46.3676C48.5868 72.8533 50.386 74.6525 50.386 76.8717C50.386 79.091 48.5868 80.8901 46.3676 80.8901Z" fill="#FFE266"/>
<path d="M34.3262 52.5647C46.0979 52.5647 55.6408 43.0219 55.6408 31.2501C55.6408 19.4784 46.0979 9.93555 34.3262 9.93555C22.5545 9.93555 13.0116 19.4784 13.0116 31.2501C13.0116 43.0219 22.5545 52.5647 34.3262 52.5647Z" fill="#8BB6EF"/>
<path d="M34.3262 52.565C36.0889 52.565 37.801 52.3495 39.4391 51.9461C35.2654 46.1036 27.7763 46.1326 26.387 44.9749C24.2877 43.2255 27.9196 39.8108 25.4293 38.1505C22.5902 36.2578 17.033 38.7443 14.8278 39.8699C18.1383 47.3474 25.6223 52.565 34.3262 52.565ZM16.351 19.7917C14.2371 23.1009 13.0116 27.0324 13.0116 31.2504C13.0116 31.415 13.0141 31.5791 13.0178 31.743C20.2283 30.9562 24.1709 28.1317 24.3289 25.3846C24.4627 23.0598 18.5848 20.6296 16.351 19.7917ZM39.2078 10.498C36.7358 11.8782 30.9151 15.601 32.2575 19.4114C33.1402 21.9171 35.3035 22.03 36.8739 22.3602C39.2669 22.8633 39.1816 25.0674 38.1384 26.5129C37.4564 27.458 35.7416 31.4734 36.1652 33.636C37.3324 39.5957 49.2423 37.9099 55.2133 35.5184C55.4983 34.1137 55.6416 32.6839 55.6409 31.2505C55.6409 21.1583 48.6268 12.7051 39.2078 10.498Z" fill="#BDF4E3"/>
<path d="M34.3262 9.93555C33.6762 9.93555 33.0335 9.96635 32.3983 10.0232C41.3017 10.9086 48.2552 18.4207 48.2552 27.5573C48.2552 37.2897 40.3656 45.1791 30.6334 45.1791C21.4968 45.1791 13.9848 38.2258 13.0993 29.3222C13.0424 29.9573 13.0116 30.6002 13.0116 31.2501C13.0116 43.0218 22.5545 52.5647 34.3262 52.5647C46.0979 52.5647 55.6408 43.0218 55.6408 31.2501C55.6408 19.4785 46.098 9.93555 34.3262 9.93555Z" fill="#8388EF"/>
<path d="M13.1004 29.3313C13.044 29.9637 13.0116 30.6031 13.0116 31.2502C13.0116 31.4148 13.0141 31.579 13.0178 31.7428C13.1805 31.7251 13.3396 31.705 13.499 31.6853C13.3129 30.9106 13.1797 30.1241 13.1004 29.3313ZM39.4393 51.946C35.2656 46.1034 27.7765 46.1325 26.3871 44.9748C26.2446 44.8573 26.1197 44.7201 26.016 44.5673C22.473 43.6077 19.3731 41.5711 17.0894 38.8301C16.3218 39.1458 15.5673 39.4926 14.828 39.8699C18.1385 47.3474 25.6225 52.565 34.3263 52.565C36.089 52.565 37.8011 52.3495 39.4393 51.946ZM55.2133 35.5182C55.4983 34.1135 55.6416 32.6837 55.6409 31.2504C55.6409 21.1583 48.6268 12.7051 39.2078 10.498C38.6926 10.7857 38.1861 11.0886 37.689 11.4065C43.9088 14.1273 48.2553 20.3342 48.2553 27.5576C48.2553 31.3275 47.0709 34.8204 45.0547 37.6858C48.6296 37.5293 52.5238 36.5954 55.2133 35.5182Z" fill="#B1B7E3"/>
<path d="M24.6868 20.7096C24.3222 20.7096 23.9553 20.59 23.649 20.3441C22.9349 19.7702 22.821 18.7263 23.3946 18.0122C25.0947 15.8959 27.6744 14.8887 27.7834 14.847C28.6389 14.5186 29.598 14.9458 29.9263 15.801C30.254 16.6546 29.829 17.6121 28.977 17.9422C28.9324 17.9599 27.1009 18.6958 25.9807 20.09C25.8253 20.2837 25.6284 20.44 25.4044 20.5473C25.1804 20.6545 24.9351 20.71 24.6868 20.7096Z" fill="white"/>
<path d="M42.9987 21.8816C42.7348 21.8816 42.4816 21.7768 42.295 21.5902C42.1084 21.4035 42.0035 21.1504 42.0035 20.8865V19.4864C42.0035 19.2224 42.1084 18.9693 42.295 18.7827C42.4816 18.5961 42.7348 18.4912 42.9987 18.4912C43.2626 18.4912 43.5158 18.5961 43.7024 18.7827C43.889 18.9693 43.9939 19.2224 43.9939 19.4864V20.8865C43.9938 21.1504 43.889 21.4035 43.7023 21.5901C43.5157 21.7767 43.2626 21.8816 42.9987 21.8816ZM48.0368 25.509C47.7729 25.509 47.5198 25.4041 47.3331 25.2175C47.1465 25.0309 47.0416 24.7778 47.0416 24.5139V23.1138C47.0416 22.8498 47.1465 22.5967 47.3331 22.4101C47.5197 22.2235 47.7728 22.1186 48.0368 22.1186C48.3007 22.1186 48.5538 22.2235 48.7405 22.4101C48.9271 22.5967 49.0319 22.8498 49.0319 23.1138V24.5139C49.0319 24.7778 48.927 25.0309 48.7404 25.2175C48.5538 25.4041 48.3007 25.509 48.0368 25.509ZM44.0566 29.9425C43.7927 29.9424 43.5396 29.8376 43.3529 29.651C43.1663 29.4643 43.0615 29.2112 43.0614 28.9473V27.5472C43.0614 27.2833 43.1663 27.0302 43.3529 26.8435C43.5395 26.6569 43.7927 26.5521 44.0566 26.5521C44.3205 26.5521 44.5736 26.6569 44.7603 26.8435C44.9469 27.0302 45.0518 27.2833 45.0518 27.5472V28.9473C45.0517 29.2112 44.9469 29.4643 44.7602 29.651C44.5736 29.8376 44.3205 29.9424 44.0566 29.9425Z" fill="#90E0C5"/>
<path d="M6.15267 67.7199C6.15267 69.4189 4.77534 70.7962 3.07634 70.7962C1.37734 70.7962 0 69.4189 0 67.7199C0 66.0209 1.37734 64.6436 3.07634 64.6436C4.77534 64.6436 6.15267 66.0209 6.15267 67.7199Z" fill="white"/>
<path d="M46.7353 4.95221C47.4548 4.95221 48.038 4.36894 48.038 3.64945C48.038 2.92995 47.4548 2.34668 46.7353 2.34668C46.0158 2.34668 45.4325 2.92995 45.4325 3.64945C45.4325 4.36894 46.0158 4.95221 46.7353 4.95221Z" fill="white"/>
<path d="M71.8232 23.3962L72.8682 26.3347C72.913 26.4605 73.0016 26.5602 73.1133 26.6106L75.724 27.7868C76.0929 27.953 76.0929 28.5407 75.724 28.7069L73.1133 29.8832C73.0014 29.9335 72.913 30.0332 72.8682 30.159L71.8232 33.0976C71.6754 33.5128 71.1533 33.5128 71.0057 33.0976L69.9606 30.159C69.9159 30.0332 69.8273 29.9334 69.7156 29.8832L67.1047 28.7069C66.7358 28.5407 66.7358 27.953 67.1047 27.7868L69.7156 26.6106C69.8275 26.5602 69.9159 26.4605 69.9606 26.3347L71.0057 23.3962C71.1533 22.981 71.6754 22.981 71.8232 23.3962ZM65.9718 1.07899L67.4077 5.04053C67.4692 5.21021 67.591 5.3445 67.7446 5.41244L71.332 6.99816C71.8388 7.22219 71.8388 8.01449 71.332 8.23852L67.7446 9.82424C67.591 9.89218 67.4692 10.0266 67.4077 10.1961L65.9718 14.1577C65.7689 14.7174 65.0515 14.7174 64.8485 14.1577L63.4125 10.1961C63.3511 10.0265 63.2293 9.89218 63.0757 9.82424L59.4883 8.23852C58.9814 8.01449 58.9814 7.22219 59.4883 6.99816L63.0757 5.41244C63.2293 5.3445 63.3511 5.21005 63.4125 5.04053L64.8485 1.07899C65.0515 0.519242 65.7689 0.519242 65.9718 1.07899Z" fill="white"/>
</svg>
