<svg width="19" height="18" viewBox="0 0 19 18" fill="none" xmlns="http://www.w3.org/2000/svg">
<path d="M16.4146 2.62634H13.1317V1.96975C13.1317 0.883762 12.2479 0 11.1619 0H7.22242C6.13643 0 5.25267 0.883762 5.25267 1.96975V2.62634H1.96975C0.883762 2.62634 0 3.5101 0 4.59609V15.1014C0 16.1874 0.883762 17.0712 1.96975 17.0712H16.4146C17.5006 17.0712 18.3844 16.1874 18.3844 15.1014V4.59609C18.3844 3.5101 17.5006 2.62634 16.4146 2.62634ZM6.56584 1.96975C6.56584 1.79562 6.63502 1.62861 6.75815 1.50548C6.88128 1.38234 7.04829 1.31317 7.22242 1.31317H11.1619C11.3361 1.31317 11.5031 1.38234 11.6262 1.50548C11.7493 1.62861 11.8185 1.79562 11.8185 1.96975V2.62634H6.56584V1.96975ZM16.2964 3.9395L14.8775 6.20275C14.8234 6.31218 14.7396 6.40423 14.6357 6.46841C14.5318 6.5326 14.412 6.56635 14.2899 6.56584H13.7883V5.90926C13.7883 5.73512 13.7191 5.56811 13.596 5.44498C13.4728 5.32185 13.3058 5.25267 13.1317 5.25267C12.9575 5.25267 12.7905 5.32185 12.6674 5.44498C12.5443 5.56811 12.4751 5.73512 12.4751 5.90926V6.56584H5.90926V5.90926C5.90926 5.73512 5.84008 5.56811 5.71695 5.44498C5.59381 5.32185 5.42681 5.25267 5.25267 5.25267C5.07853 5.25267 4.91153 5.32185 4.7884 5.44498C4.66526 5.56811 4.59609 5.73512 4.59609 5.90926V6.56584H4.09446C3.84364 6.56584 3.61843 6.42664 3.47596 6.14694L2.08859 3.9395H16.2964ZM17.0712 15.1014C17.0712 15.2756 17.002 15.4426 16.8789 15.5657C16.7557 15.6888 16.5887 15.758 16.4146 15.758H1.96975C1.79561 15.758 1.62861 15.6888 1.50548 15.5657C1.38234 15.4426 1.31317 15.2756 1.31317 15.1014V5.17191L2.33284 6.79039C2.49566 7.11828 2.74702 7.39404 3.05847 7.58643C3.36993 7.77883 3.72903 7.88018 4.09511 7.87901H4.59674V8.53559C4.59674 8.70973 4.66592 8.87673 4.78905 8.99987C4.91219 9.123 5.07919 9.19218 5.25333 9.19218C5.42747 9.19218 5.59447 9.123 5.7176 8.99987C5.84074 8.87673 5.90991 8.70973 5.90991 8.53559V7.87901H12.4758V8.53559C12.4758 8.70973 12.5449 8.87673 12.6681 8.99987C12.7912 9.123 12.9582 9.19218 13.1323 9.19218C13.3065 9.19218 13.4735 9.123 13.5966 8.99987C13.7197 8.87673 13.7889 8.70973 13.7889 8.53559V7.87901H14.2905C15.0417 7.87901 15.7167 7.46142 16.0213 6.8462L17.0725 5.17388V15.1014H17.0712Z" fill="#BDBDBD"/>
</svg>
