<svg width="136" height="113" viewBox="0 0 136 113" fill="none" xmlns="http://www.w3.org/2000/svg">
<path opacity="0.1" fill-rule="evenodd" clip-rule="evenodd" d="M0 113H115.692C126.73 113 135.679 104.059 135.692 93.025C135.692 93.0167 135.692 93.0083 135.692 93L135.692 33C134.923 44.6667 121.662 68 74.7692 68C27.8769 68 5.38462 98 0 113Z" fill="#006838"/>
<path d="M110.692 30.5C110.692 30.6326 110.692 30.7653 110.692 30.8909C110.685 31.2819 110.671 31.6798 110.657 32.0637C110.029 44.4131 102.064 54.8218 91.0339 59.0104C90.9152 59.0523 90.8035 59.1012 90.6848 59.1431C90.3358 59.2687 89.9798 59.3944 89.6237 59.5061C89.5051 59.548 89.3864 59.5829 89.2677 59.6178C88.5487 59.8412 87.8226 60.0366 87.0896 60.2042C86.8453 60.26 86.594 60.3159 86.3496 60.3647C85.7283 60.4904 85.1 60.6021 84.4717 60.6859C84.3461 60.7068 84.2204 60.7208 84.0878 60.7347C83.8365 60.7696 83.5782 60.7976 83.3199 60.8255C83.1942 60.8394 83.0616 60.8534 82.9359 60.8604C82.6776 60.8813 82.4193 60.9023 82.161 60.9162C81.5118 60.9581 80.8626 60.9791 80.1994 60.9791C79.5432 60.9791 78.8869 60.9581 78.2377 60.9162C77.9794 60.9023 77.7211 60.8813 77.4628 60.8604C77.3372 60.8464 77.2045 60.8394 77.0789 60.8255C76.8206 60.7976 76.5693 60.7696 76.311 60.7347C76.1853 60.7208 76.0596 60.6998 75.927 60.6859C75.2917 60.5951 74.6634 60.4904 74.0491 60.3647C73.7978 60.3159 73.5535 60.26 73.3091 60.2042C72.5691 60.0366 71.8431 59.8342 71.1241 59.6178C71.0054 59.5829 70.8867 59.541 70.768 59.5061C70.412 59.3874 70.056 59.2687 69.7069 59.1431C69.5882 59.1012 69.4766 59.0593 69.3579 59.0104C58.3279 54.8148 50.3626 44.4062 49.7343 32.0637C49.7203 31.7426 49.7064 31.4145 49.6994 31.0864C49.6994 31.0236 49.6994 30.9538 49.6994 30.8909C49.6994 30.8421 49.6994 30.7932 49.6994 30.7443C49.6994 30.6606 49.6994 30.5768 49.6994 30.493C49.6994 30.13 49.7064 29.767 49.7203 29.411C49.7273 29.2993 49.7273 29.1876 49.7343 29.0689C49.7343 29.02 49.7413 28.9712 49.7413 28.9223C49.7552 28.664 49.7692 28.4057 49.7901 28.1474C49.7971 28.0217 49.8111 27.8891 49.825 27.7634C49.846 27.5052 49.8739 27.2469 49.9018 26.9955C49.9297 26.7372 49.9646 26.4859 49.9996 26.2346C50.0554 25.8576 50.1113 25.4737 50.1811 25.1037C50.7744 21.7807 51.9054 18.6463 53.4831 15.784C53.5319 15.6863 53.5878 15.5956 53.6436 15.4978C54.2649 14.3948 54.9561 13.3337 55.71 12.3285C55.7519 12.2726 55.7938 12.2168 55.8357 12.1609C56.5477 11.2185 57.3087 10.3179 58.1185 9.46624C58.1254 9.45926 58.1324 9.45228 58.1324 9.45228C59.2215 8.30739 60.4012 7.24628 61.6578 6.2829C62.2373 5.83612 62.8376 5.41028 63.4519 5.00538C64.0663 4.60048 64.6946 4.21653 65.3368 3.86049C65.5532 3.74182 65.7696 3.62314 65.986 3.51144C66.2025 3.39975 66.4259 3.28107 66.6423 3.17636C66.7889 3.10655 66.9355 3.02976 67.0821 2.95994C67.3473 2.83429 67.6126 2.70863 67.8779 2.58995C67.9477 2.56203 68.0175 2.52712 68.0873 2.4992C68.2828 2.41543 68.4713 2.33166 68.6668 2.25486C68.8971 2.16411 69.1275 2.07336 69.3579 1.9826C69.4766 1.94072 69.5882 1.89185 69.7069 1.84997C69.8535 1.79412 70.0001 1.74525 70.1467 1.6894C70.3492 1.61959 70.5586 1.54978 70.7611 1.47997C70.8797 1.43809 70.9984 1.40318 71.1171 1.36828C71.3544 1.29149 71.5988 1.22168 71.8361 1.15187C72.4365 0.97734 73.0508 0.830739 73.6652 0.691119C73.9095 0.635271 74.1608 0.586404 74.4121 0.537537C74.6634 0.48867 74.9148 0.446784 75.1661 0.404898C75.543 0.342069 75.92 0.286221 76.304 0.237354C76.5553 0.202449 76.8136 0.174525 77.0719 0.146601C77.1975 0.132639 77.3302 0.118677 77.4558 0.111696C77.7141 0.090753 77.9724 0.06981 78.2307 0.055848C78.88 0.020943 79.5362 0 80.1924 0C80.8486 0 81.5048 0.020943 82.1541 0.062829C82.4123 0.076791 82.6707 0.097734 82.9289 0.118677C83.0546 0.132639 83.1872 0.13962 83.3129 0.153582C83.5712 0.181506 83.8225 0.20943 84.0808 0.244335C84.4648 0.293202 84.8417 0.34905 85.2187 0.411879C85.47 0.453765 85.7213 0.495651 85.9727 0.544518C86.224 0.593385 86.4683 0.642252 86.7196 0.6981C87.334 0.830739 87.9483 0.984321 88.5487 1.15885C88.793 1.22866 89.0303 1.29847 89.2677 1.37526C89.3864 1.41016 89.5051 1.45205 89.6237 1.48695C89.8332 1.55676 90.0356 1.62657 90.245 1.69638C90.3916 1.74525 90.5382 1.8011 90.6848 1.85695C90.8035 1.89883 90.9152 1.94072 91.0339 1.98959C91.2643 2.08034 91.4946 2.17109 91.725 2.26184C91.9205 2.33864 92.1159 2.42241 92.3044 2.50618C92.3742 2.5341 92.4441 2.56901 92.5139 2.59693C92.7791 2.71561 93.0514 2.83429 93.3097 2.96693C93.4563 3.03674 93.6029 3.10655 93.7495 3.18334C93.9729 3.29503 94.1893 3.40673 94.4057 3.51843C94.6221 3.63012 94.8385 3.7488 95.0549 3.86748C95.6972 4.23049 96.3255 4.60746 96.9398 5.01236C97.5541 5.41726 98.1545 5.8431 98.7339 6.28988C99.9905 7.25326 101.17 8.31437 102.259 9.45926C102.266 9.46624 102.273 9.47322 102.273 9.47322C103.083 10.3249 103.851 11.2255 104.556 12.1679C104.598 12.2237 104.64 12.2796 104.682 12.3354C105.436 13.3477 106.12 14.4018 106.748 15.5048C106.804 15.5956 106.853 15.6933 106.909 15.791C108.486 18.6463 109.617 21.7877 110.211 25.1107C110.281 25.4876 110.336 25.8646 110.392 26.2416C110.427 26.4929 110.462 26.7512 110.49 27.0025C110.518 27.2608 110.546 27.5121 110.567 27.7704C110.581 27.8961 110.588 28.0287 110.602 28.1544C110.623 28.4127 110.637 28.671 110.651 28.9293C110.678 29.4528 110.692 29.9694 110.692 30.5Z" fill="#D8226D"/>
<path d="M80.1922 55.876C94.2069 55.876 105.568 44.5148 105.568 30.5001C105.568 16.4853 94.2069 5.12415 80.1922 5.12415C66.1774 5.12415 54.8163 16.4853 54.8163 30.5001C54.8163 44.5148 66.1774 55.876 80.1922 55.876Z" fill="white"/>
<path d="M80.1922 50.5913C91.2883 50.5913 100.284 41.5961 100.284 30.5C100.284 19.4039 91.2883 10.4087 80.1922 10.4087C69.0961 10.4087 60.1009 19.4039 60.1009 30.5C60.1009 41.5961 69.0961 50.5913 80.1922 50.5913Z" fill="#D8226D"/>
<path d="M80.1923 45.7395C88.6088 45.7395 95.4318 38.9166 95.4318 30.5C95.4318 22.0835 88.6088 15.2605 80.1923 15.2605C71.7757 15.2605 64.9527 22.0835 64.9527 30.5C64.9527 38.9166 71.7757 45.7395 80.1923 45.7395Z" fill="white"/>
<path d="M80.1922 41.2159C86.0642 41.2159 90.8243 36.4558 90.8243 30.5838C90.8243 24.7119 86.0642 19.9518 80.1922 19.9518C74.3203 19.9518 69.5602 24.7119 69.5602 30.5838C69.5602 36.4558 74.3203 41.2159 80.1922 41.2159Z" fill="#D8226D"/>
<path d="M80.1922 35.3519C83.0106 35.3519 85.2953 33.0671 85.2953 30.2487C85.2953 27.4304 83.0106 25.1456 80.1922 25.1456C77.3739 25.1456 75.0891 27.4304 75.0891 30.2487C75.0891 33.0671 77.3739 35.3519 80.1922 35.3519Z" fill="white"/>
<g clip-path="url(#clip0_0_1)">
<path d="M72.127 60.6258V51.3553H88.2609V60.6258H72.127ZM72.127 71.9949V62.7244H88.2609V71.9949H72.127ZM72.127 83.364V74.0935H88.2609V83.364H72.127ZM72.127 94.7297V85.4592H88.2609V94.7297H72.127ZM72.127 106.099V96.8284H88.2609V106.099H72.127ZM72.127 117.468V108.197H88.2609V117.468H72.127ZM72.127 128.834V119.563H88.2609V128.834H72.127ZM72.127 140.203V130.932H88.2609V140.203H72.127ZM70.0256 39.3541V153.035H71.2981L72.127 152.207V142.301H88.2609V153.035H89.5335L90.3623 152.207V38.5264H89.0898L88.2609 39.3541V49.2601H72.127V38.5264H70.8545L70.0256 39.3541Z" fill="#474747"/>
<path d="M72.1271 38.5264H70.8546V152.207H72.1271V38.5264Z" fill="white"/>
<path d="M90.359 38.5264H89.0865V152.207H90.359V38.5264Z" fill="white"/>
<path d="M89.7262 106.099H71.4909V107.37H89.7262V106.099Z" fill="white"/>
<path d="M89.7262 94.7296H71.4909V96.0005H89.7262V94.7296Z" fill="white"/>
<path d="M89.7262 83.364H71.4909V84.6349H89.7262V83.364Z" fill="white"/>
<path d="M89.7262 71.9949H71.4909V73.2657H89.7262V71.9949Z" fill="white"/>
<path d="M89.7262 60.6259H71.4909V61.8967H89.7262V60.6259Z" fill="white"/>
<path d="M89.7262 49.26H71.4909V50.5309H89.7262V49.26Z" fill="white"/>
</g>
<defs>
<clipPath id="clip0_0_1">
<rect width="20.3333" height="114.509" fill="white" transform="translate(70.0256 38.5264)"/>
</clipPath>
</defs>
</svg>
