<svg width="60" height="48" viewBox="0 0 60 48" fill="none" xmlns="http://www.w3.org/2000/svg">
<path d="M47.3804 27.3455V39.4874C47.3804 40.0205 47.1632 40.514 46.8078 40.8892C46.5314 41.1458 40.1743 47.3846 29.612 47.3846C19.0496 47.3846 12.6925 41.1458 12.4161 40.8892C12.0607 40.514 11.8436 40.0205 11.8436 39.4874V27.3455L26.9665 34.907C27.7867 35.3216 28.6929 35.5375 29.612 35.5375C30.531 35.5375 31.4372 35.3216 32.2575 34.907L47.3804 27.3455ZM57.2517 32.1391V18.0031L58.1342 17.5608C58.4634 17.3979 58.7406 17.1463 58.9343 16.8342C59.1281 16.5222 59.2308 16.1621 59.2308 15.7948C59.2308 15.4275 59.1281 15.0675 58.9343 14.7554C58.7406 14.4434 58.4634 14.1917 58.1342 14.0288L30.4945 0.208715C30.2202 0.0714606 29.9177 0 29.611 0C29.3043 0 29.0018 0.0714606 28.7275 0.208715L1.08776 14.0288C0.760516 14.1938 0.485527 14.4464 0.29346 14.7585C0.101392 15.0706 -0.000204422 15.4299 3.08811e-07 15.7964C0.00020504 16.1629 0.102203 16.5221 0.294619 16.834C0.487036 17.1459 0.762306 17.3982 1.08973 17.5628L28.7295 31.3829C29.0035 31.5197 29.3057 31.5909 29.612 31.5909C29.9183 31.5909 30.2204 31.5197 30.4945 31.3829L53.3032 19.9774V32.1391C52.1285 32.8242 51.3289 34.0818 51.3289 35.5388C51.3289 37.7165 53.0998 39.4874 55.2775 39.4874C57.4551 39.4874 59.226 37.7165 59.226 35.5388C59.226 34.0838 58.4264 32.8242 57.2517 32.1391Z" fill="#1476B7"/>
</svg>
